<svg width="308" height="280" viewBox="0 0 308 280" fill="none" xmlns="http://www.w3.org/2000/svg">
<path d="M263.307 226.415L264.736 226.815L269.069 223.321L269.862 220.47C269.862 220.47 272.11 220.949 270.806 224.613C269.501 228.277 270.052 227.405 270.052 227.405C270.052 227.405 274.738 228.716 275.014 229.24C275.217 229.62 274.05 234.314 273.395 236.857C273.254 237.474 272.911 238.027 272.421 238.428C271.931 238.83 271.321 239.056 270.688 239.072C270.511 239.069 270.335 239.045 270.163 239C268.99 238.672 263.281 236.057 263.281 236.057L260.81 235.369L263.307 226.415Z" fill="#A454EB"/>
<path d="M259.433 224.496L257.592 234.511L260.036 235.199L262.704 225.616L259.433 224.496Z" fill="#A454EB"/>
<path d="M226.587 134.881C231.574 134.881 236.358 132.9 239.884 129.373C243.411 125.847 245.392 121.063 245.392 116.076C245.39 111.09 243.408 106.308 239.882 102.783C236.355 99.2577 231.573 97.2773 226.587 97.2773C221.601 97.2773 216.818 99.2577 213.292 102.783C209.765 106.308 207.783 111.09 207.782 116.076C207.782 121.063 209.763 125.847 213.29 129.373C216.816 132.9 221.599 134.881 226.587 134.881Z" fill="white"/>
<path d="M226.587 104.095C228.959 104.095 231.277 104.798 233.248 106.116C235.22 107.433 236.757 109.306 237.664 111.497C238.571 113.688 238.808 116.099 238.345 118.424C237.882 120.75 236.739 122.886 235.062 124.562C233.385 126.239 231.248 127.38 228.922 127.842C226.596 128.304 224.185 128.065 221.995 127.157C219.805 126.249 217.933 124.711 216.616 122.739C215.3 120.766 214.598 118.448 214.599 116.077C214.599 114.503 214.909 112.944 215.512 111.49C216.114 110.036 216.997 108.715 218.111 107.602C219.224 106.489 220.546 105.607 222 105.005C223.454 104.403 225.013 104.094 226.587 104.095ZM226.587 106.179C224.401 106.177 222.277 106.904 220.551 108.244C221.865 109.879 223.582 111.146 225.532 111.921C226.566 110.033 227.731 108.219 229.019 106.494C228.225 106.286 227.408 106.18 226.587 106.179ZM231.058 107.254C229.751 108.958 228.571 110.754 227.525 112.629C230.351 113.395 233.269 113.768 236.196 113.737C235.857 112.35 235.222 111.053 234.335 109.934C233.448 108.815 232.33 107.901 231.058 107.254ZM236.491 116.077C236.491 115.991 236.491 115.906 236.491 115.821C233.13 115.886 229.778 115.445 226.548 114.51C226.319 114.982 226.096 115.46 225.893 115.939C229.327 117.049 232.264 119.329 234.191 122.382C235.671 120.614 236.484 118.383 236.491 116.077ZM226.587 125.981C228.79 125.982 230.93 125.243 232.663 123.883C230.969 121.003 228.263 118.856 225.073 117.859C224.154 120.271 223.476 122.767 223.048 125.312C224.176 125.751 225.376 125.978 226.587 125.981ZM221.088 124.309C221.528 121.962 222.17 119.657 223.008 117.42C220.946 117.163 218.856 117.23 216.814 117.617C217.026 118.966 217.514 120.257 218.249 121.409C218.983 122.56 219.947 123.548 221.081 124.309H221.088ZM223.808 115.447C224.051 114.884 224.306 114.326 224.575 113.769C222.419 112.888 220.514 111.488 219.03 109.692C217.647 111.332 216.835 113.377 216.716 115.519C219.06 115.1 221.457 115.076 223.808 115.447Z" fill="black"/>
<path d="M289.249 93.1675L291.439 94.367L299.868 90.3228L302.267 85.9443C302.267 85.9443 305.767 87.5895 302.227 93.1085C298.688 98.6275 299.92 97.3952 299.92 97.3952C299.92 97.3952 307.13 101.367 307.36 102.324C307.543 102.98 303.827 110.268 301.775 114.188C301.313 115.153 300.541 115.935 299.582 116.411C298.623 116.886 297.533 117.026 296.486 116.81C296.197 116.736 295.917 116.628 295.653 116.489C293.857 115.506 285.48 109.017 285.48 109.017L281.698 106.945L289.249 93.1675Z" fill="#EBEBEB"/>
<path d="M283.611 88.5264L276.742 104.264L280.498 106.322L288.553 91.6201L283.611 88.5264Z" fill="#EBEBEB"/>
<path d="M239.873 157.225L241.296 156.996L243.695 152.165L243.229 149.334C243.229 149.334 245.406 148.836 245.753 152.611C246.1 156.386 246.225 155.371 246.225 155.371C246.225 155.371 250.892 154.63 251.344 154.971C251.672 155.22 252.557 159.834 253.015 162.338C253.144 162.939 253.068 163.567 252.8 164.12C252.532 164.673 252.086 165.121 251.534 165.393C251.377 165.464 251.212 165.514 251.043 165.543C249.876 165.733 243.78 165.753 243.78 165.753L241.329 166.153L239.873 157.225Z" fill="#EBEBEB"/>
<path d="M235.679 157.114L238.137 166.69L240.568 166.29L239.021 156.767L235.679 157.114Z" fill="#EBEBEB"/>
<path d="M61.0915 92.8904L119.892 93.1982L119.646 140.207L60.8453 139.899L61.0915 92.8904Z" fill="#FAFAFA"/>
<path d="M61.0824 92.8849H61.3642H62.1901L65.3888 92.9177L77.423 93.0225L119.884 93.3241L119.733 93.1733C119.654 107.161 119.563 123.2 119.464 140.176L119.635 140.006L60.8333 139.724L60.971 139.862C61.0168 125.71 61.0562 113.971 61.0824 105.778C61.0824 101.675 61.0824 98.4563 61.0824 96.254V93.737C61.0824 93.1667 61.0824 92.8652 61.0824 92.8652C61.0824 92.8652 61.0824 93.1471 61.0824 93.7042C61.0824 94.2614 61.0824 95.1135 61.0496 96.195C61.0496 98.3908 61.0037 101.603 60.9644 105.693C60.9054 113.919 60.8136 125.684 60.7088 139.875V140.019H60.853L119.654 140.36H119.825V140.19C119.91 123.22 119.989 107.181 120.054 93.1864V93.0291H119.897L77.3378 92.8783H65.3363H61.0955L61.0824 92.8849Z" fill="#263238"/>
<path d="M63.1808 95.8583L117.852 96.1445L117.637 137.235L62.9657 136.949L63.1808 95.8583Z" fill="#FDFCFD"/>
<path d="M117.623 137.22L98.6666 111.572L86.7503 127.493L78.7734 118.906L62.9505 136.925L117.623 137.22Z" fill="#DD07E9"/>
<path d="M81.8277 108.353C81.8226 109.205 82.0701 110.039 82.539 110.75C83.0078 111.461 83.677 112.017 84.4619 112.348C85.2468 112.679 86.1121 112.769 86.9485 112.608C87.7848 112.447 88.5546 112.042 89.1605 111.443C89.7664 110.845 90.1812 110.08 90.3525 109.245C90.5237 108.411 90.4437 107.545 90.1226 106.756C89.8015 105.967 89.2536 105.291 88.5484 104.814C87.8431 104.336 87.0121 104.078 86.1604 104.073C85.0187 104.068 83.9216 104.516 83.1095 105.318C82.2973 106.12 81.8364 107.212 81.8277 108.353Z" fill="#263238"/>
<path d="M0.644104 278.438C0.644104 278.536 -14.1038 278.608 97.849 278.608C209.802 278.608 300.596 278.536 300.596 278.438C300.596 278.34 209.834 278.268 97.849 278.268C-14.1366 278.268 0.644104 278.379 0.644104 278.438Z" fill="white"/>
<path d="M261.511 15.5802L249.581 0.281738L246.665 19.5195L230.927 18.9886L242.594 34.3067L227.099 46.282L246.881 38.9408L249.647 58.1983L262.92 45.2857L279.641 56.907L275.977 40.0092L294.959 37.0203L280.198 28.3027L288.804 13.4631L273.82 21.9578L272.254 0.92409L261.511 15.5802Z" fill="#FAFAFA"/>
<path d="M242.595 34.3068L241.533 35.1065L238.459 37.4596L226.765 46.4329L226.365 46.7409L226.831 46.5443C229.538 45.43 232.612 44.3223 236.007 43.149C239.403 41.9757 243.04 40.7304 246.868 39.1572L246.744 39.0851L249.674 58.1984V58.4081L249.824 58.2574L263.065 45.2727H262.907L279.379 56.7236L279.641 56.9071L279.576 56.5991C278.488 51.3554 277.328 45.7119 276.135 39.9635L276.023 40.1142L294.881 37.1712L295.254 37.1122L294.927 36.9221L282.119 29.4564L280.153 28.2963L280.192 28.4929C281.831 26.107 283.273 23.6228 284.682 21.1583C286.091 18.6937 287.402 16.1964 288.706 13.7385L288.916 13.3386L288.523 13.5615L273.519 21.9842L273.709 22.089C273.46 18.4272 273.213 14.8243 272.969 11.2805C272.859 9.51074 272.752 7.76284 272.648 6.0368C272.602 5.16503 272.556 4.29982 272.516 3.41495C272.516 2.9889 272.516 2.5563 272.464 2.10403V1.44857V1.13395C272.47 1.05103 272.47 0.967793 272.464 0.884871L272.313 0.675124L272.267 0.740669L261.367 15.659H261.551L249.752 0.196638L249.608 0L249.569 0.24252C248.437 7.30402 247.412 13.6817 246.495 19.3754L246.586 19.3033L230.914 18.8576H230.777L230.862 18.969L239.56 30.3544L241.815 33.304L242.595 34.3068L241.854 33.3105L239.632 30.3544L230.98 18.8838L230.927 18.9887L246.586 19.5131H246.645V19.4344C247.572 13.7538 248.607 7.37831 249.752 0.308065L249.569 0.35395L261.367 15.8294L261.459 15.9539L261.551 15.8294C265.046 11.0795 268.684 6.1089 272.464 0.917644L272.267 0.773444C272.22 0.896613 272.2 1.02852 272.208 1.16017V1.48134V2.1368C272.208 2.56285 272.208 2.99546 272.254 3.44772C272.3 4.31293 272.346 5.17814 272.385 6.06957C272.49 7.80654 272.602 9.56318 272.707 11.3133C272.951 14.8615 273.198 18.4665 273.447 22.1284V22.3316L273.624 22.2332L288.654 13.7909L288.47 13.6139C287.159 16.0785 285.849 18.5561 284.42 21.0272C282.991 23.4983 281.575 25.9694 279.943 28.3356L279.864 28.4536L279.989 28.5322L281.955 29.6858L294.796 37.1319L294.841 36.8828L275.984 39.852H275.846V39.9766L279.3 56.6253L279.497 56.5007L263.032 45.0892L262.953 45.0302L262.881 45.1023C258.234 49.6905 253.796 54.0297 249.661 58.1066L249.837 58.1656C248.769 51.2439 247.766 44.7942 246.875 39.0589V38.9409L246.763 38.9868C242.949 40.5599 239.285 41.8119 235.922 42.9982C232.56 44.1846 229.479 45.2924 226.746 46.4198L226.811 46.5377L238.485 37.4793L241.526 35.113L242.595 34.3068Z" fill="#263238"/>
<path d="M262.992 31.0551C262.992 31.3662 263.084 31.6703 263.257 31.929C263.43 32.1877 263.676 32.3894 263.963 32.5084C264.251 32.6275 264.567 32.6586 264.872 32.5979C265.177 32.5372 265.457 32.3874 265.677 32.1674C265.897 31.9474 266.047 31.6671 266.108 31.362C266.169 31.0568 266.138 30.7405 266.018 30.4531C265.899 30.1656 265.698 29.9199 265.439 29.7471C265.18 29.5742 264.876 29.4819 264.565 29.4819C264.358 29.4811 264.153 29.5212 263.962 29.5999C263.771 29.6787 263.597 29.7945 263.451 29.9408C263.305 30.087 263.189 30.2608 263.11 30.452C263.031 30.6433 262.991 30.8482 262.992 31.0551Z" fill="#263238"/>
<path d="M258.187 31.0551C258.187 31.3662 258.28 31.6703 258.452 31.929C258.625 32.1877 258.871 32.3894 259.158 32.5084C259.446 32.6275 259.762 32.6586 260.067 32.5979C260.372 32.5372 260.653 32.3874 260.873 32.1674C261.093 31.9474 261.243 31.6671 261.303 31.362C261.364 31.0568 261.333 30.7405 261.214 30.4531C261.095 30.1656 260.893 29.9199 260.634 29.7471C260.376 29.5742 260.072 29.4819 259.76 29.4819C259.554 29.4811 259.349 29.5212 259.157 29.5999C258.966 29.6787 258.792 29.7945 258.646 29.9408C258.5 30.087 258.384 30.2608 258.305 30.452C258.227 30.6433 258.186 30.8482 258.187 31.0551Z" fill="#263238"/>
<path d="M253.384 31.0565C253.384 31.3676 253.476 31.6718 253.649 31.9305C253.822 32.1892 254.068 32.3908 254.355 32.5099C254.643 32.6289 254.959 32.6601 255.264 32.5994C255.569 32.5387 255.85 32.3889 256.07 32.1689C256.29 31.9489 256.439 31.6686 256.5 31.3634C256.561 31.0583 256.53 30.742 256.411 30.4545C256.291 30.1671 256.09 29.9214 255.831 29.7485C255.572 29.5757 255.268 29.4834 254.957 29.4834C254.751 29.4834 254.546 29.5241 254.355 29.6031C254.164 29.6822 253.991 29.7981 253.845 29.9442C253.699 30.0902 253.583 30.2636 253.504 30.4545C253.425 30.6454 253.384 30.8499 253.384 31.0565Z" fill="#263238"/>
<path d="M104.225 4.64746H192.227C199.796 4.64746 205.933 10.7837 205.933 18.3532V264.623C205.933 272.192 199.796 278.329 192.227 278.329H104.225C96.6553 278.329 90.519 272.192 90.519 264.623V18.3532C90.519 10.7837 96.6553 4.64746 104.225 4.64746Z" fill="#263238"/>
<path d="M114.634 4.75781H200.486C208.65 4.75781 215.267 11.3753 215.267 19.5385V263.658C215.267 271.822 208.65 278.439 200.486 278.439H114.634C106.471 278.439 99.8535 271.822 99.8535 263.658V19.5385C99.8535 11.3753 106.471 4.75781 114.634 4.75781Z" fill="#455A64"/>
<path d="M117.256 9.12525H132.934C135.038 9.12525 136.742 11.2293 136.736 13.838V17.2071C136.736 19.8289 138.44 21.9198 140.544 21.9133L171.108 21.874C173.206 21.874 174.917 19.7568 174.917 17.1481V13.7594C174.917 11.1375 176.621 9.04004 178.725 9.04004H184.244H197.963C204.779 9.04004 210.305 15.5946 210.298 23.6437L210.193 258.102C210.193 266.171 204.661 272.719 197.851 272.732L117.138 272.843C110.327 272.843 104.802 266.289 104.808 258.24L104.913 23.7814C104.92 15.6864 110.439 9.13836 117.256 9.12525Z" fill="white"/>
<path d="M117.255 9.12371H116.777C116.304 9.13028 115.832 9.18075 115.368 9.27447C113.53 9.62729 111.807 10.4289 110.353 11.6079C109.296 12.4802 108.366 13.4949 107.587 14.623C106.661 15.9969 105.962 17.5107 105.516 19.1064C105.261 20.0009 105.081 20.9152 104.979 21.8397C104.88 22.8306 104.839 23.8263 104.854 24.822C104.854 26.8802 104.854 29.065 104.854 31.3766C104.854 49.9393 104.802 76.7935 104.769 109.973C104.736 143.152 104.71 182.677 104.677 226.547C104.677 232.031 104.677 237.582 104.677 243.202C104.677 246.007 104.677 248.83 104.677 251.671V255.944C104.633 257.381 104.676 258.819 104.808 260.251C104.96 261.699 105.313 263.12 105.857 264.472C106.38 265.84 107.11 267.119 108.02 268.267C108.929 269.427 110.023 270.431 111.258 271.236C112.511 272.038 113.913 272.578 115.381 272.822C116.849 272.991 118.328 273.046 119.805 272.986H124.229H133.144L169.555 272.94H188.176H197.582C199.185 272.957 200.774 272.633 202.242 271.99C203.707 271.335 205.03 270.4 206.136 269.237C208.336 266.885 209.752 263.907 210.187 260.716C210.38 259.146 210.45 257.564 210.396 255.983V251.244C210.396 244.991 210.396 238.782 210.396 232.616C210.396 220.289 210.396 208.148 210.396 196.192C210.396 172.32 210.396 149.288 210.396 127.369C210.396 105.45 210.396 84.5804 210.396 65.1001V23.5045C210.357 19.1457 208.686 14.8262 205.572 11.9881C204.056 10.5626 202.179 9.57693 200.145 9.13683C199.647 9.02692 199.14 8.95895 198.631 8.93363C198.12 8.8943 197.621 8.88775 197.123 8.8943H194.141H182.618H179.832C179.367 8.8943 178.921 8.8943 178.449 8.8943C177.989 8.93875 177.543 9.07706 177.138 9.30069C176.332 9.76692 175.696 10.4789 175.323 11.3326C174.957 12.157 174.783 13.0532 174.811 13.9545V16.5763C174.863 17.4252 174.738 18.2755 174.444 19.0736C174.161 19.855 173.658 20.5378 172.996 21.04C172.674 21.2883 172.307 21.4709 171.914 21.5775C171.52 21.6763 171.114 21.716 170.708 21.6955L152.355 21.7348H144.254H140.459C139.872 21.7021 139.303 21.5238 138.803 21.2159C138.303 20.9081 137.888 20.4804 137.594 19.9716C137.029 19.0321 136.753 17.9469 136.801 16.8516C136.801 15.757 136.801 14.6951 136.801 13.6661C136.788 12.6558 136.495 11.669 135.956 10.8148C135.453 10.0078 134.672 9.4132 133.76 9.14338C133.329 9.05359 132.888 9.02054 132.449 9.04506H128.818H124.721H119.169H132.429C132.869 9.02061 133.309 9.05367 133.74 9.14338C134.643 9.4386 135.403 10.0604 135.87 10.8869C136.396 11.7245 136.682 12.6904 136.696 13.6792V16.8516C136.628 18.0021 136.914 19.1459 137.516 20.1289C137.817 20.6529 138.244 21.0941 138.757 21.4131C139.271 21.7322 139.855 21.9193 140.459 21.9576H152.342H170.695C171.118 21.9766 171.542 21.9369 171.954 21.8397C172.367 21.7193 172.755 21.5262 173.101 21.2694C173.792 20.7429 174.318 20.0284 174.615 19.2113C174.92 18.393 175.051 17.5203 175.002 16.6484C175.002 15.7832 175.002 14.9114 175.002 14.0266C174.967 13.1523 175.135 12.2818 175.493 11.4834C175.845 10.662 176.449 9.97345 177.217 9.51699C177.604 9.30623 178.03 9.17686 178.469 9.13683C178.908 9.13683 179.38 9.13683 179.839 9.13683H182.625H194.148H197.13C197.628 9.12373 198.127 9.13686 198.624 9.17615C199.123 9.19603 199.619 9.26186 200.106 9.37279C202.097 9.80637 203.932 10.7739 205.415 12.1716C208.469 14.9573 210.115 19.2178 210.147 23.5111C210.18 27.8044 210.147 32.2877 210.147 36.8169C210.147 45.8754 210.147 55.2857 210.147 65.0477C210.147 84.5607 210.115 105.411 210.101 127.316C210.088 149.222 210.101 172.288 210.062 196.14C210.062 208.082 210.062 220.224 210.062 232.564C210.062 238.725 210.062 244.935 210.062 251.192V255.885C210.116 257.448 210.048 259.013 209.859 260.565C209.438 263.677 208.065 266.583 205.926 268.883C204.85 270.012 203.566 270.923 202.144 271.564C200.718 272.184 199.177 272.497 197.621 272.481H188.216H169.587L133.183 272.534H124.269H119.844C118.387 272.597 116.928 272.545 115.479 272.377C114.055 272.14 112.692 271.618 111.474 270.843C110.271 270.058 109.205 269.079 108.321 267.946C107.426 266.824 106.709 265.57 106.198 264.229C105.667 262.907 105.32 261.517 105.169 260.1C105.043 258.679 104.999 257.252 105.038 255.826C105.038 254.397 105.038 252.973 105.038 251.553V243.195C105.038 237.58 105.038 232.029 105.038 226.54C105.038 182.67 105.038 143.152 105.038 109.973C105.038 76.7935 105.038 49.9327 105.038 31.3701C105.038 29.0497 105.038 26.8649 105.038 24.8155C104.989 23.8217 104.997 22.8259 105.064 21.8331C105.163 20.9134 105.338 20.0035 105.588 19.1129C106.022 17.5256 106.713 16.0199 107.633 14.6558C108.401 13.5273 109.323 12.5123 110.373 11.6407C111.819 10.4791 113.527 9.68723 115.348 9.33346C115.81 9.23851 116.279 9.18151 116.751 9.16304L117.255 9.12371Z" fill="#263238"/>
<path d="M182.861 248.314L184.584 273.818L173.579 275.169L168.309 249.127L182.861 248.314Z" fill="#FFBE9D"/>
<path d="M184.447 270.449L184.552 271.177C184.552 271.177 197.608 274.493 198.054 276.827L173.435 279.999L172.714 271.767C174.65 272.4 176.699 272.611 178.724 272.383C180.748 272.156 182.7 271.497 184.447 270.449Z" fill="#A454EB"/>
<path d="M175.547 274.061C175.319 274.165 175.138 274.348 175.036 274.576C174.935 274.804 174.921 275.062 174.996 275.3C175.09 275.53 175.269 275.716 175.495 275.819C175.722 275.921 175.98 275.933 176.215 275.85C176.457 275.742 176.649 275.548 176.756 275.306C176.862 275.064 176.875 274.791 176.792 274.539C176.668 274.315 176.464 274.147 176.221 274.066C175.978 273.986 175.714 274.001 175.481 274.107" fill="white"/>
<path d="M173.435 280L173.258 278.034L196.92 275.72C196.92 275.72 198.08 276.054 198.054 276.841L173.435 280Z" fill="white"/>
<path d="M184.644 271.237C184.644 271.362 184.061 271.493 183.523 271.951C182.986 272.41 182.73 272.961 182.612 272.928C182.494 272.895 182.612 272.181 183.267 271.617C183.923 271.053 184.657 271.126 184.644 271.237Z" fill="#263238"/>
<path d="M187.363 271.97C187.409 272.088 186.911 272.356 186.57 272.92C186.229 273.484 186.177 274.034 186.059 274.041C185.941 274.047 185.777 273.385 186.216 272.691C186.655 271.996 187.35 271.858 187.363 271.97Z" fill="#263238"/>
<path d="M189.231 274.875C189.126 274.914 188.877 274.337 189.106 273.636C189.336 272.935 189.854 272.607 189.919 272.699C189.985 272.79 189.683 273.19 189.506 273.767C189.329 274.344 189.349 274.849 189.231 274.875Z" fill="#263238"/>
<path d="M138.401 43.0243C138.132 41.2611 136.546 39.9108 134.816 39.4848C133.053 39.1494 131.231 39.3339 129.572 40.0157C127.664 40.6428 125.933 41.7171 124.525 43.1488C123.829 43.8706 123.282 44.7228 122.917 45.6564C122.551 46.59 122.374 47.5867 122.395 48.5892C122.499 50.4572 123.43 52.3384 122.906 54.1344C122.513 55.5043 121.359 56.5006 120.199 57.3265C119.039 58.1523 117.78 58.9258 117 60.1122C116.22 61.2985 116.089 63.0748 117.144 64.0449C118.082 64.897 119.766 64.9953 120.159 66.1948C120.408 66.9421 119.989 67.7221 119.76 68.4758C119.547 69.2806 119.505 70.1211 119.637 70.9431C119.769 71.765 120.072 72.5501 120.526 73.2476C121.457 74.6243 122.714 75.75 124.184 76.5249C126.721 77.9538 129.886 78.6224 132.567 77.4819C133.882 76.8855 135.013 75.9487 135.845 74.7683C137.197 72.7677 137.954 70.4243 138.027 68.0105C138.098 65.6109 137.942 63.21 137.562 60.8397" fill="#263238"/>
<path d="M139.332 71.5239C138.221 71.8349 137.053 71.881 135.922 71.6585C134.79 71.4361 133.726 70.9513 132.816 70.243C131.905 69.5348 131.174 68.6229 130.68 67.5806C130.186 66.5383 129.944 65.3947 129.972 64.2417C130.018 62.1049 130.981 59.9288 130.319 57.8968C129.861 56.5007 128.694 55.4126 128.301 53.9641C127.717 51.8469 128.995 49.7167 130.215 47.8945C130.933 46.6738 131.833 45.5689 132.882 44.6172C133.412 44.1468 134.04 43.7995 134.72 43.6C135.399 43.4006 136.115 43.354 136.815 43.4636" fill="#263238"/>
<path d="M159.048 43.7271C158.93 45.3395 159.998 46.7815 161.073 47.9941C162.148 49.2067 163.341 50.4652 163.57 52.0711C163.983 54.9092 161.204 57.5442 161.781 60.3561C162.082 61.8571 163.321 63.0697 163.537 64.5904C163.754 66.111 162.961 67.5006 161.984 68.6215C161.007 69.7423 159.814 70.6796 158.949 71.8988C158.949 71.8988 157.153 74.8549 151.608 72.9606" fill="#263238"/>
<path d="M134.245 46.1847C134.199 44.7164 135.556 43.5628 136.919 43.0516C138.283 42.5403 139.797 42.3109 141.009 41.4981C142.084 40.7706 142.805 39.6432 143.716 38.719C144.84 37.5795 146.246 36.7596 147.791 36.3434C149.336 35.9273 150.963 35.9299 152.507 36.3509C154.051 36.772 155.454 37.5964 156.574 38.7395C157.693 39.8825 158.488 41.303 158.877 42.8549C159.402 44.9393 159.048 47.4038 157.402 48.7934C155.495 50.3993 152.663 50.0388 150.192 49.5406C147.721 49.0425 144.981 48.5443 142.943 49.9798C141.711 50.845 140.977 52.2542 140.249 53.5586C139.521 54.863 138.558 56.1804 137.136 56.6786C135.713 57.1767 133.78 56.3246 133.727 54.8236" fill="#263238"/>
<path d="M140.014 46.4857C139.405 46.5513 138.844 46.8431 138.441 47.3033C138.038 47.7634 137.822 48.3583 137.838 48.9699L139.299 82.051C139.358 85.9837 145.067 88.1533 149.256 88.055C153.477 87.9567 153.614 85.8854 153.667 82.1559C153.752 75.9486 153.746 73.6349 153.752 73.6349C153.759 73.6349 159.088 72.7369 160.176 65.7693C160.72 62.3019 160.53 56.5929 160.228 52.0046C159.953 47.8228 157.174 42.7036 153.018 43.1559L140.014 46.4857Z" fill="#FFBE9D"/>
<path d="M158.988 56.5982C158.989 56.8248 158.903 57.043 158.748 57.2086C158.594 57.3742 158.382 57.4747 158.156 57.4897C158.042 57.4986 157.928 57.4847 157.819 57.4488C157.711 57.4129 157.61 57.3558 157.524 57.2807C157.438 57.2056 157.368 57.1141 157.318 57.0116C157.268 56.909 157.238 56.7975 157.232 56.6835C157.228 56.451 157.316 56.2265 157.477 56.0584C157.638 55.8904 157.858 55.7923 158.09 55.7855C158.203 55.7793 158.315 55.7955 158.422 55.8331C158.528 55.8707 158.625 55.9289 158.709 56.0045C158.792 56.0801 158.86 56.1715 158.908 56.2734C158.956 56.3753 158.983 56.4857 158.988 56.5982Z" fill="#263238"/>
<path d="M159.218 54.2141C159.107 54.3321 158.431 53.834 157.468 53.834C156.504 53.834 155.803 54.3256 155.698 54.2076C155.593 54.0896 155.764 53.9454 156.065 53.7225C156.477 53.4322 156.968 53.2764 157.471 53.2764C157.975 53.2764 158.466 53.4322 158.877 53.7225C159.172 53.9585 159.27 54.1682 159.218 54.2141Z" fill="#263238"/>
<path d="M150.061 56.7693C150.065 57.0024 149.977 57.2276 149.817 57.3967C149.656 57.5658 149.436 57.6653 149.203 57.6738C149.089 57.6827 148.974 57.6688 148.866 57.633C148.758 57.5971 148.657 57.5399 148.571 57.4648C148.485 57.3898 148.415 57.2983 148.365 57.1957C148.315 57.0932 148.285 56.9816 148.279 56.8676C148.277 56.635 148.365 56.4107 148.525 56.2419C148.685 56.0732 148.905 55.9732 149.137 55.9631C149.251 55.9542 149.366 55.968 149.474 56.0039C149.582 56.0398 149.683 56.097 149.769 56.172C149.855 56.2471 149.925 56.3386 149.975 56.4412C150.025 56.5437 150.055 56.6553 150.061 56.7693Z" fill="#263238"/>
<path d="M149.551 54.6981C149.439 54.8161 148.757 54.3114 147.8 54.3179C146.843 54.3245 146.136 54.8029 146.031 54.685C145.926 54.567 146.09 54.4228 146.398 54.1999C146.814 53.9121 147.308 53.7588 147.814 53.7608C148.314 53.7592 148.803 53.9151 149.21 54.2065C149.505 54.4359 149.603 54.6456 149.551 54.6981Z" fill="#263238"/>
<path d="M153.05 62.2959C153.555 62.1317 154.079 62.0348 154.61 62.0075C154.859 62.0075 155.088 61.9354 155.134 61.765C155.152 61.5108 155.092 61.2573 154.964 61.0374L154.236 59.1694C153.22 56.5147 152.486 54.3255 152.597 54.2862C152.709 54.2469 153.613 56.3705 154.623 59.0252C154.872 59.6806 155.101 60.3361 155.324 60.9063C155.479 61.2025 155.525 61.5432 155.455 61.8699C155.417 61.9555 155.361 62.032 155.291 62.0942C155.221 62.1564 155.138 62.2028 155.049 62.2304C154.914 62.2666 154.775 62.2864 154.636 62.2894C154.109 62.3554 153.577 62.3576 153.05 62.2959Z" fill="#263238"/>
<path d="M153.745 73.6679C150.458 73.7261 147.22 72.8706 144.391 71.1968C144.391 71.1968 146.751 75.9816 153.725 75.3131L153.745 73.6679Z" fill="#EB996E"/>
<path d="M149.97 52.3582C149.879 52.6204 148.915 52.4958 147.788 52.6335C146.66 52.7711 145.749 53.0858 145.598 52.8498C145.533 52.7384 145.69 52.4893 146.057 52.2402C146.545 51.9209 147.103 51.7251 147.683 51.67C148.258 51.5948 148.844 51.6623 149.387 51.8666C149.8 52.0305 150.01 52.2468 149.97 52.3582Z" fill="#263238"/>
<path d="M159.074 52.0901C158.884 52.3064 158.13 52.0901 157.232 52.0901C156.334 52.0901 155.56 52.2409 155.383 52.0115C155.311 51.9001 155.429 51.6838 155.764 51.474C156.22 51.2155 156.74 51.0906 157.265 51.1135C157.785 51.1157 158.294 51.2657 158.733 51.5461C159.054 51.7559 159.159 51.9853 159.074 52.0901Z" fill="#263238"/>
<path d="M135.15 69.394C136.112 69.5878 137.106 69.5499 138.051 69.2835C138.996 69.0171 139.863 68.5299 140.582 67.862C141.301 67.1941 141.851 66.3648 142.187 65.4425C142.522 64.5202 142.633 63.5313 142.511 62.5576C142.295 60.8468 141.37 59.1033 141.967 57.4843C142.747 55.3475 145.749 54.6855 146.555 52.5552C147.02 51.3099 146.607 49.8613 147.132 48.6225C147.656 47.3836 148.829 46.82 149.996 46.3939C151.163 45.9679 152.428 45.6794 153.411 44.9126C154.394 44.1457 155.004 42.7102 154.375 41.6353C149.17 42.2657 144.058 43.5133 139.148 45.3517C138.008 45.7778 136.815 46.289 136.146 47.3181C135.478 48.3472 135.491 49.7695 135.53 51.0477C135.819 57.3008 136.109 63.5539 136.402 69.807" fill="#263238"/>
<path d="M131.473 46.7672C131.408 46.8486 131.368 46.9461 131.355 47.049C131.338 47.1999 131.353 47.3526 131.4 47.4971C131.446 47.6417 131.522 47.7749 131.623 47.888C131.774 48.0775 131.963 48.2336 132.177 48.3464C132.392 48.4593 132.627 48.5264 132.869 48.5435C133.491 48.5063 134.096 48.3269 134.639 48.0191C135.264 47.6727 135.957 47.467 136.67 47.4161C137.496 47.3969 138.32 47.4717 139.128 47.6389C140.043 47.8378 140.973 47.9584 141.908 47.9994C142.958 48.0397 143.982 47.6654 144.759 46.9573C145.457 46.2162 146.014 45.3545 146.404 44.4141C146.757 43.5734 147.196 42.7716 147.715 42.0216C148.172 41.4141 148.796 40.952 149.51 40.6914C150.224 40.4309 150.999 40.3829 151.74 40.5534C152.747 40.8223 153.614 41.4644 154.165 42.3494C154.353 42.6821 154.522 43.0257 154.669 43.3784C154.669 43.3784 154.669 43.2736 154.617 43.0835C154.538 42.8023 154.426 42.5316 154.283 42.2773C153.953 41.6824 153.479 41.1797 152.905 40.8151C152.331 40.4504 151.675 40.2355 150.996 40.1898C150.317 40.1442 149.638 40.2694 149.02 40.5538C148.403 40.8383 147.866 41.2731 147.459 41.8184C146.906 42.5763 146.44 43.3942 146.07 44.2568C145.696 45.1571 145.163 45.983 144.497 46.6951C143.781 47.3439 142.84 47.6852 141.875 47.6455C140.958 47.6089 140.046 47.4971 139.148 47.3112C138.313 47.1459 137.462 47.0821 136.611 47.1211C135.864 47.1787 135.138 47.4026 134.488 47.7766C133.988 48.0821 133.426 48.2704 132.843 48.3272C132.628 48.3213 132.416 48.2725 132.22 48.1835C132.024 48.0946 131.848 47.9674 131.702 47.8094C131.604 47.714 131.526 47.5999 131.473 47.4737C131.42 47.3476 131.393 47.2121 131.394 47.0752C131.44 46.8721 131.492 46.7737 131.473 46.7672Z" fill="#455A64"/>
<path d="M130.687 47.4296C130.779 47.5082 131.847 45.7319 133.964 44.5259C135.27 43.8432 136.678 43.3761 138.133 43.1429C137.7 43.0546 137.254 43.0546 136.822 43.1429C135.756 43.3035 134.729 43.6613 133.794 44.1982C132.858 44.732 132.033 45.4394 131.362 46.2825C131.063 46.6161 130.833 47.0061 130.687 47.4296Z" fill="#455A64"/>
<path d="M138.493 42.7817C138.493 42.7817 138.493 42.8603 138.591 42.9849C138.713 43.1653 138.863 43.3247 139.037 43.4568C139.367 43.6928 139.742 43.8602 140.138 43.9491C140.534 44.0381 140.944 44.0467 141.344 43.9746C142.51 43.6986 143.564 43.0691 144.359 42.1721C145.303 41.2544 146.175 40.0746 147.453 39.3471C148.673 38.6761 150.102 38.4934 151.451 38.8358C152.544 39.1283 153.516 39.7621 154.224 40.6449C154.708 41.2431 155.069 41.9315 155.285 42.6702C155.436 43.2012 155.462 43.5027 155.495 43.5027C155.528 43.5027 155.495 43.424 155.495 43.2798C155.483 43.0592 155.452 42.8399 155.403 42.6244C155.236 41.8443 154.896 41.1118 154.407 40.481C153.686 39.5197 152.664 38.8275 151.503 38.5146C150.072 38.129 148.547 38.3147 147.249 39.0324C145.88 39.819 145.008 41.0316 144.09 41.9361C143.363 42.7963 142.395 43.4194 141.311 43.7255C140.562 43.8804 139.781 43.7445 139.128 43.3454C138.898 43.1793 138.685 42.9904 138.493 42.7817Z" fill="#455A64"/>
<path d="M138.827 72.383C138.73 72.4292 138.625 72.458 138.519 72.4682C138.216 72.5249 137.909 72.5556 137.601 72.5599C136.465 72.5794 135.341 72.3254 134.324 71.8193C132.79 71.0643 131.555 69.8153 130.817 68.2732C129.898 66.3865 129.687 64.2331 130.22 62.2037C130.513 61.2051 130.719 60.1831 130.837 59.1492C130.877 58.2001 130.636 57.2602 130.142 56.4487C129.674 55.6769 129.313 54.8458 129.067 53.9776C128.883 53.2039 128.861 52.4006 129.001 51.618C129.188 50.4867 129.685 49.4294 130.437 48.5635C130.634 48.3251 130.854 48.1057 131.092 47.908C131.263 47.7835 131.354 47.7245 131.361 47.7376C131.368 47.7507 131.033 48.0326 130.548 48.6487C129.872 49.5203 129.434 50.5525 129.277 51.6442C129.159 52.3889 129.197 53.15 129.388 53.8793C129.64 54.7132 130.004 55.5091 130.47 56.2455C130.71 56.6766 130.905 57.1313 131.053 57.6023C131.195 58.1049 131.253 58.6277 131.223 59.1492C131.118 60.2081 130.914 61.2548 130.614 62.2758C130.099 64.2135 130.287 66.2709 131.145 68.0831C131.826 69.5645 132.979 70.7789 134.422 71.5374C135.402 72.0498 136.483 72.3386 137.588 72.383C138.387 72.4223 138.82 72.3436 138.827 72.383Z" fill="#455A64"/>
<path d="M126.49 41.544C126.816 41.2254 127.229 41.0109 127.676 40.9279C128.747 40.6318 129.888 40.7199 130.901 41.1769C131.909 41.6431 132.72 42.4512 133.189 43.4579C133.423 43.8532 133.531 44.3107 133.497 44.7689C133.431 44.7689 133.326 44.2838 132.933 43.5956C132.434 42.698 131.661 41.9832 130.727 41.5553C129.794 41.1273 128.748 41.0086 127.742 41.2163C126.968 41.3605 126.523 41.603 126.49 41.544Z" fill="#455A64"/>
<path d="M131.636 45.9412C131.628 45.7883 131.628 45.6352 131.636 45.4823C131.647 45.0554 131.541 44.6336 131.328 44.2632C130.995 43.6759 130.493 43.203 129.886 42.9064C129.492 42.7098 129.059 42.602 128.619 42.5907C128.178 42.5794 127.74 42.6648 127.336 42.8408C126.349 43.2839 125.545 44.0551 125.062 45.0235C124.505 46.1394 124.261 47.385 124.354 48.6285C124.452 50.0214 124.671 51.4031 125.01 52.7579C125.385 54.2402 125.565 55.7649 125.547 57.2937C125.401 58.8236 125.002 60.3186 124.367 61.7181C123.79 62.9999 123.284 64.3129 122.853 65.6509C122.481 66.8456 122.373 68.1072 122.538 69.3477C122.703 70.4297 123.028 71.4813 123.502 72.4677C124.222 73.8949 125.078 75.2493 126.058 76.5119C126.373 76.9379 126.635 77.2787 126.838 77.5606C127.041 77.8424 127.107 77.9277 127.094 77.9408C126.977 77.8411 126.87 77.7315 126.773 77.613C126.576 77.3836 126.288 77.0493 125.927 76.6102C124.89 75.371 123.989 74.0239 123.24 72.5922C122.73 71.5881 122.379 70.5114 122.198 69.4001C122.006 68.1099 122.105 66.7933 122.486 65.546C122.911 64.2075 123.412 62.8945 123.987 61.6132C124.605 60.2558 124.993 58.8048 125.134 57.32C125.259 54.2655 124.02 51.4208 123.974 48.6875C123.895 47.3786 124.169 46.0724 124.767 44.9055C125.296 43.8762 126.171 43.0663 127.238 42.618C127.679 42.4345 128.155 42.3511 128.633 42.3738C129.11 42.3964 129.576 42.5246 129.998 42.7491C130.635 43.0779 131.153 43.5983 131.479 44.237C131.69 44.6396 131.777 45.0959 131.728 45.5479C131.716 45.6826 131.685 45.8149 131.636 45.9412Z" fill="#455A64"/>
<path d="M152.69 64.6291C152.547 65.0462 152.346 65.4411 152.093 65.8024C151.966 65.9841 151.801 66.1366 151.61 66.2497C151.419 66.3627 151.206 66.4337 150.985 66.4578C150.748 66.4583 150.515 66.3984 150.307 66.2837C150.1 66.1691 149.925 66.0034 149.799 65.8024C149.551 65.4 149.437 64.9299 149.471 64.4587C149.471 64.0326 149.681 63.5279 150.127 63.4755C150.304 63.4708 150.479 63.509 150.638 63.5869L152.854 64.4914" fill="#EB996E"/>
<path d="M151.805 66.4503C151.406 66.4803 151.005 66.4313 150.625 66.3061C150.236 66.1548 149.916 65.8655 149.727 65.4933C149.59 65.2105 149.532 64.8954 149.561 64.5823C149.59 64.2693 149.704 63.97 149.891 63.717C149.983 63.6253 149.963 63.6253 150.061 63.6384C150.182 63.6797 150.3 63.7279 150.415 63.7826L150.782 63.9268C151.254 64.1169 151.68 64.2873 152.047 64.4249C152.427 64.6091 152.835 64.7308 153.253 64.7854C152.921 64.5221 152.549 64.312 152.152 64.1628C151.805 63.9989 151.392 63.8023 150.92 63.5925L150.566 63.4352C150.434 63.3702 150.298 63.3133 150.16 63.2648C150.054 63.2262 149.938 63.2262 149.832 63.2648C149.735 63.3047 149.651 63.3704 149.589 63.4549C149.486 63.5813 149.402 63.7227 149.34 63.8744C149.218 64.1566 149.161 64.4626 149.172 64.7699C149.184 65.0772 149.263 65.3781 149.406 65.6507C149.646 66.0875 150.049 66.4124 150.527 66.5552C150.839 66.6546 151.171 66.6682 151.49 66.5945C151.707 66.5486 151.811 66.4765 151.805 66.4503Z" fill="#263238"/>
<path d="M127.147 151.458C127.147 151.537 127.114 151.628 127.101 151.707C127.134 151.438 127.16 151.222 127.147 151.458Z" fill="#263238"/>
<path d="M120.625 157.429L119.642 166.114L111.692 173.377C111.508 173.081 111.385 172.752 111.333 172.409C111.28 172.065 111.297 171.714 111.384 171.377C111.744 170.473 109.568 172.557 109.568 172.557V177.552C109.568 177.552 108.205 178.096 107.752 176.896C107.3 175.697 107.025 171.449 107.025 171.449L107.68 170.997C107.422 170.738 107.229 170.423 107.115 170.075C107.001 169.728 106.97 169.359 107.025 168.998C106.562 167.847 106.406 166.596 106.572 165.367C106.684 164.274 106.961 163.205 107.392 162.194L113.9 154.925L120.625 157.429Z" fill="#FFBE9D"/>
<path d="M116.632 165.793C115.985 166.867 115.196 167.848 114.286 168.71C113.449 169.645 112.487 170.461 111.428 171.135C111.369 171.063 112.614 169.949 114.05 168.474C115.485 166.999 116.554 165.727 116.632 165.793Z" fill="#EB996E"/>
<path d="M111.048 167.378C110.505 168.174 109.872 168.904 109.16 169.554C108.528 170.292 107.811 170.952 107.023 171.52C107.571 170.726 108.206 169.996 108.918 169.344C109.55 168.609 110.265 167.95 111.048 167.378Z" fill="#EB996E"/>
<path d="M109.974 165.387C109.508 166.011 109.007 166.609 108.473 167.176C108.025 167.812 107.541 168.423 107.025 169.005C107.262 168.242 107.67 167.542 108.217 166.96C108.68 166.312 109.279 165.775 109.974 165.387Z" fill="#EB996E"/>
<path d="M109.062 163.335C108.723 163.856 108.328 164.337 107.882 164.77C107.227 165.537 106.709 166.199 106.624 166.147C106.83 165.545 107.173 165 107.627 164.554C107.998 164.036 108.491 163.618 109.062 163.335Z" fill="#EB996E"/>
<path d="M167.569 59.2668C168.577 59.0051 169.552 58.6268 170.473 58.1394C171.445 57.7634 172.369 57.2727 173.226 56.6777C172.217 56.9394 171.243 57.3178 170.322 57.8051C169.349 58.1811 168.425 58.6718 167.569 59.2668Z" fill="#455A64"/>
<path d="M176.752 72.612C177.407 72.612 178.994 73.5362 180.272 75.2928L180.337 75.3715C181.248 76.5513 182.1 73.1757 182.251 71.9238C182.281 71.7283 182.354 71.542 182.465 71.3788C182.577 71.2156 182.724 71.0797 182.895 70.9814C183.067 70.883 183.258 70.8247 183.456 70.8109C183.653 70.797 183.85 70.8279 184.034 70.9012L188.249 72.8676L189.481 72.9135C189.777 73.0156 190.024 73.2251 190.173 73.5006C190.323 73.7761 190.363 74.0975 190.287 74.4014L188.268 81.0871L188.229 82.9027L179.787 84.0301L179.656 79.4419C179.531 78.9175 179.361 78.2948 179.138 77.5869C178.934 76.945 178.619 76.3438 178.207 75.8106C177.762 75.2022 177.252 74.644 176.686 74.1458C176.643 74.1093 176.597 74.0764 176.549 74.0474C176.454 73.9978 176.373 73.9258 176.313 73.8377C176.219 73.7401 176.155 73.6183 176.127 73.486C176.098 73.3538 176.108 73.2163 176.153 73.089C176.199 72.9617 176.279 72.8497 176.385 72.7654C176.49 72.6811 176.618 72.628 176.752 72.612Z" fill="#FFBE9D"/>
<path d="M176.916 52.0889C176.916 52.0889 181.845 51.1451 188.93 44.7085C196.016 38.2718 199.503 29.5607 200.342 29.6328C201.181 29.7049 204.93 28.0925 211.485 43.5352C218.039 58.9778 215.194 62.4387 213.805 62.3731C212.415 62.3076 203.016 59.3973 197.084 59.902C191.152 60.4067 183.457 63.2711 183.457 63.2711L176.916 52.0889Z" fill="#A454EB"/>
<path d="M166.271 60.112L167.857 63.3368L168.565 64.7788C169.037 65.7276 169.854 66.4599 170.848 66.8255C171.843 67.1911 172.94 67.1624 173.914 66.7452L184.519 63.3893L178.803 49.251L168.152 54.5471C167.165 55.036 166.413 55.8967 166.06 56.9402C165.707 57.9837 165.783 59.1245 166.271 60.112Z" fill="#263238"/>
<path d="M172.183 65.3565L175.342 72.0094L177.033 71.5899L187.704 80.7663L190.929 74.8672C190.929 74.8672 184.552 71.9045 183.424 69.5645C182.297 67.2245 183.686 66.746 183.686 66.746L180.743 63.2065L172.183 65.3565Z" fill="#263238"/>
<path d="M210.922 43.7987C214.415 52.1623 215.759 59.5297 213.924 60.3294C212.088 61.1291 207.762 54.9415 204.269 46.5647C200.775 38.1879 199.425 30.8336 201.267 30.0274C203.109 29.2212 207.428 35.435 210.922 43.7987Z" fill="#263238"/>
<path d="M165.242 64.668L168.113 63.8553L166.448 60.46L164.272 61.725L165.242 64.668Z" fill="#455A64"/>
<g opacity="0.3">
<path d="M181.753 64.458L173.967 69.1183L173.069 67.2241L181.753 64.458Z" fill="black"/>
</g>
<path d="M168.388 61.2854C169.493 61.019 170.568 60.6367 171.593 60.1449C172.664 59.7591 173.692 59.2626 174.661 58.6636C173.551 58.9232 172.474 59.3058 171.449 59.8041C170.379 60.1888 169.353 60.6853 168.388 61.2854Z" fill="#455A64"/>
<path d="M169.43 63.3902C169.738 63.3925 170.043 63.3346 170.328 63.2198C170.604 63.1411 170.925 63.0494 171.279 62.9314C171.633 62.8134 172.006 62.643 172.4 62.4791C173.374 62.1203 174.297 61.6355 175.146 61.0371C174.148 61.3059 173.179 61.6748 172.255 62.1383C171.862 62.3021 171.502 62.4857 171.154 62.6233C170.807 62.761 170.499 62.8658 170.25 62.9707C169.732 63.2067 169.417 63.3902 169.43 63.3902Z" fill="#455A64"/>
<path d="M203.383 41.7591C203.383 41.7591 207.716 39.2356 209.879 45.0364C212.042 50.8373 207.539 51.6763 207.539 51.6763C205.696 48.5815 204.297 45.2432 203.383 41.7591Z" fill="#FAFAFA"/>
<path d="M199.037 34.7588C199.046 35.1291 199.09 35.4978 199.168 35.86C199.286 36.5679 199.444 37.5969 199.686 38.8554C199.843 39.5109 200.027 40.1663 200.217 40.8873C200.309 41.2479 200.414 41.628 200.512 42.0147L200.669 42.6047C200.728 42.8079 200.807 42.9979 200.872 43.2011C201.161 44.0008 201.456 44.8398 201.764 45.7115L202 46.367C202.079 46.5899 202.19 46.7996 202.282 47.0225L202.878 48.3334L203.475 49.6443C203.58 49.8606 203.665 50.0835 203.776 50.2998L204.117 50.9159L205.428 53.2428C205.533 53.4263 205.631 53.6164 205.736 53.7934L206.077 54.2981C206.3 54.6324 206.516 54.9535 206.732 55.2747C207.152 55.9302 207.545 56.4808 207.899 57.0182C208.686 58.0277 209.348 58.8273 209.8 59.3779C210.021 59.6769 210.269 59.9555 210.541 60.2103C210.349 59.886 210.13 59.579 209.885 59.2927L208.083 56.8609L206.955 55.1043L206.3 54.1277L205.965 53.623C205.861 53.446 205.769 53.2559 205.664 53.0724C205.264 52.3317 204.838 51.5517 204.399 50.752C204.294 50.5488 204.183 50.3457 204.071 50.1425C203.96 49.9393 203.874 49.7164 203.77 49.487L203.18 48.1761L202.583 46.8652C202.491 46.6489 202.38 46.4391 202.301 46.2097L202.065 45.5542L201.161 43.07C201.089 42.8734 201.01 42.6768 200.951 42.4801C200.892 42.2835 200.84 42.0868 200.787 41.8968C200.682 41.51 200.578 41.143 200.473 40.7759L199.902 38.7702C199.64 37.5379 199.43 36.5285 199.247 35.8141C199.202 35.4579 199.132 35.1052 199.037 34.7588Z" fill="#263238"/>
<path d="M185.509 69.6296C185.729 69.7303 185.904 69.9104 185.997 70.1339C186.091 70.3574 186.097 70.6079 186.014 70.8356C185.686 71.7532 185.161 73.1953 184.775 74.067C184.661 74.354 184.497 74.6183 184.29 74.847C184.188 74.9572 184.057 75.037 183.912 75.0775C183.768 75.118 183.615 75.1176 183.47 75.0764C183.326 75.003 183.203 74.8917 183.117 74.7543C183.03 74.617 182.983 74.4587 182.979 74.2964C182.978 73.9693 183.038 73.6449 183.156 73.3395C183.431 72.4808 183.91 71.1961 184.316 70.1474C184.358 70.0332 184.422 69.9287 184.506 69.8403C184.589 69.7518 184.69 69.6813 184.801 69.6328C184.913 69.5844 185.033 69.5592 185.155 69.5586C185.276 69.558 185.397 69.5822 185.509 69.6296Z" fill="#FFBE9D"/>
<path d="M186.787 71.3211C187.008 71.4232 187.183 71.6041 187.278 71.8284C187.372 72.0527 187.38 72.3043 187.299 72.5337C186.971 73.4514 186.446 74.8934 186.053 75.7652C185.943 76.0523 185.781 76.3168 185.575 76.5452C185.47 76.6542 185.338 76.7326 185.193 76.7719C185.047 76.8111 184.894 76.8098 184.749 76.768C184.603 76.696 184.481 76.5849 184.395 76.4471C184.309 76.3093 184.264 76.1503 184.264 75.988C184.258 75.661 184.316 75.3361 184.434 75.031C184.716 74.1724 185.188 72.8877 185.601 71.8455C185.642 71.7316 185.706 71.6271 185.789 71.5386C185.871 71.45 185.971 71.3791 186.082 71.3301C186.193 71.2811 186.313 71.255 186.434 71.2535C186.555 71.252 186.675 71.275 186.787 71.3211Z" fill="#FFBE9D"/>
<path d="M188.026 72.3962C188.222 72.4791 188.379 72.6341 188.464 72.8292C188.549 73.0242 188.557 73.2446 188.484 73.4449C188.189 74.238 187.718 75.4899 187.357 76.2437C187.256 76.4876 187.109 76.71 186.924 76.8992C186.83 76.9952 186.711 77.0641 186.581 77.0986C186.451 77.1332 186.314 77.1323 186.184 77.0958C186.057 77.0375 185.948 76.9457 185.87 76.8301C185.791 76.7146 185.746 76.5798 185.738 76.4404C185.735 76.1552 185.788 75.8723 185.895 75.6079C186.144 74.8673 186.551 73.753 186.951 72.8484C186.991 72.7477 187.051 72.656 187.127 72.5786C187.203 72.5012 187.294 72.4397 187.394 72.3976C187.494 72.3555 187.601 72.3337 187.709 72.3335C187.818 72.3332 187.925 72.3546 188.026 72.3962Z" fill="#FFBE9D"/>
<path d="M189.619 72.7568C189.818 72.8385 189.977 72.9943 190.062 73.1914C190.148 73.3884 190.154 73.6111 190.078 73.8121C189.783 74.6117 189.311 75.8637 188.95 76.624C188.849 76.8694 188.7 77.0922 188.511 77.2795C188.417 77.3755 188.298 77.4444 188.168 77.4789C188.037 77.5135 187.9 77.5126 187.771 77.4761C187.644 77.4178 187.535 77.326 187.456 77.2104C187.378 77.0949 187.332 76.9601 187.325 76.8207C187.319 76.5352 187.372 76.2517 187.482 75.9882C187.731 75.241 188.17 74.1202 188.537 73.2091C188.623 73.0074 188.784 72.8472 188.986 72.7627C189.188 72.6782 189.415 72.6761 189.619 72.7568Z" fill="#FFBE9D"/>
<path d="M184.375 74.8865C184.756 74.4049 185.047 73.8588 185.234 73.2741C185.519 72.7329 185.703 72.1443 185.778 71.5371C185.392 72.0127 185.1 72.5578 184.919 73.143C184.633 73.686 184.448 74.277 184.375 74.8865Z" fill="#EB996E"/>
<path d="M185.778 76.289C186.491 75.1026 187.005 73.8073 187.298 72.4546C186.893 73.0185 186.583 73.6451 186.381 74.3095C186.069 74.9303 185.865 75.5997 185.778 76.289Z" fill="#EB996E"/>
<path d="M187.232 76.4994C187.657 76.0415 187.975 75.4953 188.163 74.9C188.454 74.3491 188.618 73.7398 188.642 73.1172C188.3 73.6274 188.033 74.1836 187.848 74.769C187.56 75.3127 187.352 75.8957 187.232 76.4994Z" fill="#EB996E"/>
<path d="M125.75 205.158L130.201 169.442C127.304 162.671 126.268 155.907 127.101 151.705C127.048 152.144 127.028 152.688 127.146 151.456C127.867 144.017 134.291 138.55 134.291 138.55L136.441 129.524L163.97 133.392L162.928 148.5L180.704 211.175L183.936 264.156L169.561 265.841C169.561 265.841 163.924 239.347 162.41 228.276C161.575 222.273 161.098 216.226 160.981 210.166L147.479 189.958C145.879 198.302 144.07 208.593 143.14 213.967C142.724 216.374 141.692 218.632 140.144 220.522L104.808 248.333V231.56C108.171 223.537 125.75 205.158 125.75 205.158Z" fill="#263238"/>
<path d="M160.411 144.609C160.666 144.135 160.86 143.631 160.988 143.108C161.36 141.873 161.645 140.614 161.84 139.339C162.032 138.061 162.133 136.771 162.141 135.478C162.172 134.943 162.137 134.406 162.037 133.879C161.941 134.404 161.895 134.938 161.899 135.472C161.84 136.455 161.722 137.805 161.499 139.286C161.276 140.768 160.988 142.092 160.752 143.042C160.595 143.554 160.481 144.078 160.411 144.609Z" fill="#455A64"/>
<path d="M159.139 134.33C159.139 134.33 159.034 134.225 158.785 134.173C158.426 134.103 158.054 134.156 157.729 134.324C157.473 134.443 157.253 134.626 157.088 134.856C156.924 135.086 156.822 135.354 156.792 135.634C156.765 135.976 156.833 136.318 156.988 136.623C157.143 136.928 157.379 137.185 157.67 137.365C157.972 137.533 158.317 137.607 158.661 137.575C159.005 137.543 159.332 137.409 159.597 137.188C159.821 137.023 159.998 136.805 160.113 136.552C160.227 136.3 160.276 136.022 160.253 135.746C160.224 135.391 160.119 135.047 159.945 134.737C159.833 134.514 159.748 134.409 159.728 134.422C159.709 134.435 159.728 134.56 159.827 134.789C159.94 135.098 160.004 135.423 160.017 135.752C160.019 135.984 159.965 136.213 159.86 136.419C159.755 136.626 159.602 136.804 159.414 136.939C159.196 137.113 158.932 137.219 158.655 137.243C158.377 137.268 158.099 137.21 157.854 137.077C157.617 136.927 157.423 136.717 157.293 136.468C157.163 136.22 157.101 135.941 157.113 135.661C157.137 135.431 157.216 135.211 157.344 135.02C157.472 134.828 157.645 134.67 157.847 134.56C158.241 134.345 158.695 134.265 159.139 134.33Z" fill="#455A64"/>
<path d="M141.061 141.613C141.061 141.613 141.225 141.705 141.547 141.816C142 141.961 142.465 142.066 142.936 142.131C143.637 142.227 144.347 142.251 145.053 142.203C145.918 142.134 146.773 141.972 147.603 141.718C148.428 141.445 149.221 141.085 149.969 140.643C150.576 140.276 151.142 139.848 151.66 139.365C152.009 139.04 152.327 138.685 152.611 138.303C152.814 138.034 152.912 137.877 152.893 137.864C152.873 137.85 152.394 138.414 151.496 139.174C150.97 139.62 150.407 140.019 149.812 140.367C149.076 140.782 148.301 141.122 147.498 141.383C146.693 141.633 145.865 141.799 145.027 141.881C144.34 141.947 143.649 141.947 142.962 141.881C141.769 141.777 141.081 141.554 141.061 141.613Z" fill="#455A64"/>
<path d="M132.219 168.571C132.303 168.72 132.402 168.861 132.514 168.99L133.425 170.15C134.185 171.18 135.286 172.661 136.61 174.529C139.265 178.252 142.85 183.463 146.777 189.237C150.703 195.012 154.223 200.236 156.786 204.057L159.827 208.541C160.181 209.046 160.482 209.452 160.666 209.753C160.758 209.901 160.863 210.039 160.98 210.166C160.907 210.009 160.822 209.858 160.725 209.714L159.938 208.469L156.989 203.92C154.478 200.092 150.985 194.822 147.058 189.047C143.132 183.273 139.514 178.082 136.807 174.385C135.457 172.536 134.323 171.107 133.53 170.065L132.592 168.918C132.475 168.795 132.35 168.679 132.219 168.571Z" fill="#455A64"/>
<path d="M137.064 88.5337C137.011 88.5337 137.011 87.8455 136.828 86.7574C136.585 85.3485 136.097 83.993 135.386 82.7526C134.749 81.4777 133.726 80.4363 132.463 79.7768C131.917 79.5602 131.331 79.4684 130.745 79.508C130.891 79.4241 131.056 79.379 131.224 79.3769C131.669 79.338 132.117 79.4008 132.535 79.5605C133.891 80.1843 134.994 81.2526 135.661 82.5887C136.391 83.8648 136.861 85.2727 137.044 86.7312C137.154 87.3265 137.161 87.9362 137.064 88.5337Z" fill="#263238"/>
<path d="M139.332 77.9209L153.752 80.1495L156.308 82.3977C156.308 82.3977 165.366 100.03 165.543 103.595C165.727 107.528 163.616 114.299 163.616 114.299L165.688 129.899C165.996 131.688 164.829 133.412 164.049 133.412L139.141 130.069C135.897 129.414 134.553 127.736 134.763 125.861L135.15 122.381L124.525 86.7828C123.869 88.8868 124.879 81.1065 129.624 79.363C131.63 78.6223 136.277 77.2786 139.332 77.9209Z" fill="#A454EB"/>
<path d="M154.984 81.3237C154.984 81.3237 159.415 84.7452 163.616 88.6321C167.818 92.519 179.007 100.293 179.007 100.293L179.787 84.0308L188.235 82.8837C188.235 82.8837 192.358 103.164 189.743 108.761C187.128 114.359 183.988 114.601 175.284 111.803C166.579 109.004 164.055 107.758 164.055 107.758L154.984 81.3237Z" fill="#A454EB"/>
<path d="M157.206 83.7417C157.206 83.7417 157.284 83.8203 157.409 83.9908L157.927 84.7511C158.366 85.4066 158.995 86.3766 159.749 87.5893C161.763 90.7219 163.386 94.09 164.58 97.6178C165.76 101.181 166.017 104.986 165.327 108.675C165.101 109.784 164.751 110.863 164.285 111.894C164.159 112.176 164.019 112.452 163.865 112.72C163.767 112.903 163.708 112.995 163.695 112.988C163.682 112.982 163.865 112.582 164.167 111.848C164.581 110.808 164.893 109.73 165.097 108.63C165.707 104.978 165.421 101.233 164.265 97.7161C163.073 94.2153 161.49 90.86 159.546 87.7138L157.815 84.8167L157.35 84.0301C157.29 83.9403 157.242 83.8434 157.206 83.7417Z" fill="#263238"/>
<path d="M132.33 79.3631C132.33 79.3631 136.814 85.2622 137.063 90.6305C137.312 95.9987 129.014 128.339 129.014 128.339L121.738 157.835L112.686 154.492C112.686 154.492 114.79 133.517 115.19 130.895C116.029 125.462 119.608 114.869 120.1 108.747C120.591 102.625 122.859 90.8271 123.98 88.0676C125.101 85.3081 125.147 79.2123 132.33 79.3631Z" fill="#A454EB"/>
<path d="M136.689 93.6064C136.705 93.7129 136.705 93.8211 136.689 93.9276C136.689 94.1701 136.623 94.4651 136.584 94.8256C136.479 95.6056 136.302 96.7264 136.053 98.1029C135.555 100.876 134.742 104.658 133.824 108.859C132.907 113.061 131.956 116.81 131.249 119.53C130.895 120.893 130.593 121.988 130.383 122.748C130.285 123.096 130.2 123.404 130.128 123.613C130.056 123.823 130.029 123.915 130.016 123.908C130.017 123.804 130.032 123.7 130.062 123.6L130.259 122.715C130.449 121.896 130.711 120.808 131.019 119.477C131.675 116.692 132.533 112.923 133.497 108.787C134.46 104.651 135.266 100.817 135.817 98.0636C136.079 96.7527 136.296 95.6187 136.473 94.7863C136.538 94.4323 136.597 94.1308 136.643 93.8948C136.645 93.797 136.66 93.7 136.689 93.6064Z" fill="#263238"/>
<g opacity="0.3">
<path d="M137.339 129.592C138.768 128.157 139.063 125.981 139.305 123.975C140.013 117.578 140.723 111.18 141.435 104.783C141.881 100.798 142.3 96.6161 140.78 92.893C140.699 92.6036 140.555 92.3358 140.357 92.1091C140.16 91.8823 139.915 91.7023 139.639 91.5821C139.357 91.5273 139.065 91.5565 138.8 91.666C138.534 91.7755 138.306 91.9606 138.145 92.1983C137.797 92.6571 136.834 93.3191 136.683 93.8697C135.228 99.5722 134.599 105.19 133.15 110.912C132.764 112.419 132.265 112.36 132.6 113.881C133.078 116.083 135.143 122.402 135.143 122.402C135.143 122.402 134.848 124.703 134.763 126.046C134.721 126.844 134.953 127.631 135.42 128.279C135.887 128.926 136.562 129.394 137.332 129.605" fill="black"/>
</g>
<path d="M136.002 96.8181C135.858 96.9631 135.692 97.0847 135.511 97.1786C135.042 97.4723 134.554 97.7329 134.049 97.9586C133.289 98.3192 132.452 98.4879 131.611 98.4502C130.589 98.3336 129.615 97.9517 128.786 97.3425C127.989 96.7553 127.15 96.2273 126.275 95.7628C125.572 95.3967 124.771 95.2658 123.988 95.3892C123.462 95.4757 122.975 95.7203 122.592 96.0905C122.33 96.3658 122.244 96.5625 122.218 96.5494C122.192 96.5362 122.218 96.3199 122.493 96.0053C122.866 95.5674 123.377 95.2692 123.942 95.1598C124.774 94.9887 125.64 95.1018 126.4 95.481C127.298 95.9367 128.157 96.465 128.969 97.0606C129.754 97.6406 130.671 98.0147 131.637 98.1487C132.431 98.1894 133.224 98.0504 133.957 97.7423C135.216 97.1917 135.97 96.7329 136.002 96.8181Z" fill="#FAFAFA"/>
<path d="M164.055 96.1046C164.055 96.1046 164.055 96.1898 163.924 96.3472C163.786 96.5698 163.623 96.7764 163.439 96.9633C162.745 97.6523 161.878 98.1414 160.929 98.3791C159.528 98.7469 158.059 98.7671 156.648 98.4381C154.958 98.0093 153.297 97.4752 151.674 96.8388C148.717 95.7545 145.513 95.5384 142.438 96.2161C141.175 96.5275 139.939 96.9396 138.741 97.4483C138.81 97.3889 138.887 97.3403 138.971 97.3041C139.195 97.171 139.427 97.0507 139.665 96.9436C140.538 96.5346 141.449 96.214 142.386 95.9867C143.776 95.6416 145.207 95.4872 146.64 95.5278C148.397 95.5854 150.133 95.9217 151.785 96.5241C153.396 97.1537 155.042 97.692 156.714 98.1366C158.077 98.4654 159.5 98.4654 160.863 98.1366C161.786 97.9276 162.641 97.4878 163.347 96.8584C163.852 96.4127 164.055 96.085 164.055 96.1046Z" fill="#FAFAFA"/>
<path d="M169.366 93.2461C169.476 93.674 169.5 94.1196 169.438 94.557C169.34 95.6514 169.027 96.7156 168.515 97.6877C168.003 98.6599 167.303 99.5207 166.455 100.22C166.122 100.531 165.73 100.771 165.302 100.928C165.619 100.617 165.951 100.321 166.298 100.043C167.074 99.3198 167.724 98.4712 168.219 97.5328C168.71 96.5935 169.043 95.579 169.202 94.5308C169.3 93.7573 169.3 93.2461 169.366 93.2461Z" fill="#FAFAFA"/>
<g opacity="0.3">
<path d="M160.123 88.0625C166.927 94.8924 172.774 102.483 175.284 111.803C171.397 110.492 167.72 109.293 165.295 108.283C165.295 108.283 166.023 104.442 165.583 102.181C165.039 99.4216 165.046 97.1013 160.123 88.0625Z" fill="black"/>
</g>
<path d="M178.882 100.333C179.378 101.007 179.831 101.712 180.239 102.443C180.549 103.221 180.816 104.015 181.039 104.822C181.152 103.948 180.98 103.061 180.547 102.292C180.223 101.474 179.638 100.785 178.882 100.333Z" fill="#263238"/>
<path d="M218.394 119.765L223.034 158.97L173.994 164.774L169.354 125.57L218.394 119.765Z" fill="#FAFAFA"/>
<path d="M169.367 125.555C169.445 125.559 169.524 125.559 169.603 125.555L170.291 125.483L172.959 125.181L183 124.027L218.395 119.905L218.251 119.793C219.627 131.46 221.207 144.838 222.872 158.99L222.996 158.832L173.961 164.659L174.092 164.758C172.677 152.96 171.471 143.173 170.671 136.33C170.251 132.916 169.924 130.228 169.701 128.393C169.583 127.475 169.498 126.774 169.439 126.295C169.38 125.817 169.34 125.568 169.34 125.568C169.34 125.568 169.34 125.804 169.413 126.276C169.485 126.748 169.544 127.442 169.642 128.347C169.852 130.182 170.16 132.857 170.546 136.271C171.346 143.134 172.513 152.946 173.857 164.791V164.909H173.981L223.049 159.088H223.187V158.944C221.502 144.792 219.909 131.415 218.533 119.747V119.616H218.402L182.922 123.877L172.913 125.096L170.291 125.424L169.635 125.509L169.367 125.555Z" fill="#263238"/>
<path d="M216.998 122.436L221.054 156.707L175.464 162.103L171.408 127.832L216.998 122.436Z" fill="#263238"/>
<path d="M221.063 156.694L202.619 137.272L194.327 151.765L186.796 145.433L175.47 162.082L221.063 156.694Z" fill="#FAFAFA"/>
<path d="M188.257 136.33C188.342 137.038 188.636 137.706 189.1 138.248C189.564 138.79 190.179 139.183 190.866 139.376C191.553 139.569 192.282 139.554 192.961 139.333C193.64 139.112 194.238 138.695 194.68 138.134C195.122 137.573 195.387 136.894 195.443 136.183C195.5 135.471 195.343 134.759 194.995 134.136C194.647 133.513 194.121 133.007 193.486 132.682C192.85 132.358 192.132 132.229 191.423 132.312C190.471 132.425 189.602 132.912 189.008 133.665C188.415 134.419 188.144 135.377 188.257 136.33Z" fill="#FAFAFA"/>
<path d="M105.446 140.131H120.011V93.1938H105.446" fill="#FAFAFA"/>
<path d="M105.447 93.194H105.702H106.469L109.386 93.2333L120.011 93.2923L119.873 93.1546C119.873 99.5454 119.873 107.726 119.873 116.62C119.873 125.515 119.873 133.708 119.873 140.092L120.011 139.961L109.386 140.02H106.469H105.702H105.447C105.532 140.029 105.617 140.029 105.702 140.02H106.469L109.386 140.059L120.011 140.118H120.142V139.981C120.142 133.597 120.142 125.41 120.181 116.509C120.221 107.608 120.181 99.434 120.142 93.0432V92.9121H120.011L109.386 92.9711H106.469H105.702C105.608 93.0336 105.522 93.1085 105.447 93.194Z" fill="#263238"/>
<path d="M105.447 136.992L117.599 137.169V95.8943L105.447 95.7173V136.992Z" fill="#EBEBEB"/>
<path d="M117.507 137.051L105.447 137.169L105.368 120.501L117.507 137.051Z" fill="#E0E0E0"/>
<path d="M210.992 172.523L252.632 176.232L249.667 209.522L208.027 205.813L210.992 172.523Z" fill="#FAFAFA"/>
<path d="M210.976 172.518H211.179L211.762 172.577L214.024 172.793L222.545 173.58L252.611 176.313L252.512 176.202C251.627 186.106 250.611 197.465 249.536 209.486L249.674 209.374L208.026 205.684L208.118 205.789C208.99 195.767 209.711 187.436 210.215 181.642C210.464 178.732 210.661 176.451 210.792 174.891C210.858 174.117 210.904 173.521 210.943 173.108C210.982 172.695 210.982 172.492 210.982 172.492L210.923 173.088C210.884 173.488 210.825 174.078 210.753 174.845C210.609 176.398 210.399 178.673 210.097 181.57C209.566 187.397 208.786 195.728 207.888 205.776V205.874H207.974L249.615 209.61H249.74V209.558C250.808 197.537 251.817 186.178 252.696 176.267V176.129H252.591L222.44 173.508L213.919 172.78L211.677 172.59L211.1 172.544L210.976 172.518Z" fill="#263238"/>
<path d="M212.293 174.752L251.008 178.201L248.416 207.299L209.701 203.851L212.293 174.752Z" fill="#F0D9D0"/>
<path d="M248.402 207.297L236.493 188L227.106 198.573L221.968 192.018L209.691 203.85L248.402 207.297Z" fill="#E6CDAE"/>
<path d="M224.76 184.723C224.707 185.326 224.833 185.931 225.124 186.462C225.415 186.993 225.856 187.426 226.393 187.707C226.93 187.987 227.538 188.101 228.14 188.036C228.742 187.97 229.311 187.728 229.775 187.339C230.239 186.95 230.578 186.432 230.747 185.851C230.917 185.27 230.911 184.651 230.729 184.074C230.547 183.496 230.198 182.985 229.726 182.606C229.254 182.227 228.68 181.996 228.077 181.943C227.268 181.872 226.465 182.125 225.843 182.646C225.221 183.168 224.832 183.914 224.76 184.723Z" fill="#E6CDAE"/>
</svg>
