<svg width="34" height="34" viewBox="0 0 34 34" fill="none" xmlns="http://www.w3.org/2000/svg">
<path d="M9.49634 11.8994C10.4446 11.503 11.8044 11.0754 13.1267 10.9426C14.5518 10.799 15.7605 11.0101 16.4613 11.7484V22.1915C15.4594 21.6236 14.1896 21.5454 13.0185 21.6632C11.7541 21.7918 10.4789 22.1572 9.49634 22.5322V11.8994ZM17.5328 11.7484C18.2336 11.0101 19.4423 10.799 20.8674 10.9426C22.1897 11.0754 23.5495 11.503 24.4978 11.8994V22.5322C23.5141 22.1572 22.2401 21.7907 20.9757 21.6643C19.8034 21.5454 18.5347 21.6225 17.5328 22.1915V11.7484ZM16.9971 10.7797C15.9416 9.8721 14.4115 9.73709 13.0185 9.87639C11.3962 10.0403 9.75886 10.5965 8.73876 11.0604C8.64516 11.103 8.5658 11.1716 8.51013 11.2581C8.45446 11.3445 8.42483 11.4452 8.4248 11.548V23.3348C8.42483 23.4245 8.44735 23.5127 8.49029 23.5914C8.53324 23.67 8.59525 23.7367 8.67064 23.7852C8.74602 23.8337 8.83236 23.8625 8.92176 23.869C9.01117 23.8755 9.10078 23.8595 9.18238 23.8224C10.1275 23.3938 11.6501 22.8784 13.1256 22.7294C14.6354 22.5773 15.9009 22.8226 16.5792 23.6691C16.6294 23.7317 16.693 23.7822 16.7653 23.8169C16.8376 23.8516 16.9168 23.8696 16.9971 23.8696C17.0773 23.8696 17.1565 23.8516 17.2288 23.8169C17.3011 23.7822 17.3648 23.7317 17.415 23.6691C18.0932 22.8226 19.3587 22.5773 20.8674 22.7294C22.344 22.8784 23.8677 23.3938 24.8117 23.8224C24.8933 23.8595 24.9829 23.8755 25.0724 23.869C25.1618 23.8625 25.2481 23.8337 25.3235 23.7852C25.3989 23.7367 25.4609 23.67 25.5038 23.5914C25.5468 23.5127 25.5693 23.4245 25.5693 23.3348V11.548C25.5693 11.4452 25.5397 11.3445 25.484 11.2581C25.4283 11.1716 25.349 11.103 25.2554 11.0604C24.2353 10.5965 22.598 10.0403 20.9757 9.87639C19.5827 9.73602 18.0525 9.8721 16.9971 10.7797Z" fill="#A454EB"/>
</svg>
