<svg width="35" height="35" viewBox="0 0 35 35" fill="none" xmlns="http://www.w3.org/2000/svg">
<path d="M18.705 16.6433V15.7316C19 15.6064 19.3018 15.5126 19.6103 15.45C19.9189 15.3874 20.2428 15.3561 20.5821 15.3561C20.8145 15.3561 21.0425 15.374 21.2659 15.4098C21.4894 15.4455 21.7084 15.4902 21.9229 15.5438V16.402C21.7084 16.3215 21.4916 16.2613 21.2724 16.2212C21.0532 16.1812 20.8231 16.161 20.5821 16.1606C20.2425 16.1606 19.9162 16.2032 19.6034 16.2883C19.2905 16.3733 18.9911 16.4917 18.705 16.6433ZM18.705 19.5931V18.6813C19 18.5562 19.3018 18.4623 19.6103 18.3997C19.9189 18.3372 20.2428 18.3059 20.5821 18.3059C20.8145 18.3059 21.0425 18.3238 21.2659 18.3595C21.4894 18.3953 21.7084 18.44 21.9229 18.4936V19.3517C21.7084 19.2713 21.4916 19.2108 21.2724 19.1704C21.0532 19.13 20.8231 19.11 20.5821 19.1104C20.2425 19.1104 19.9162 19.1506 19.6034 19.231C19.2905 19.3115 18.9911 19.4322 18.705 19.5931ZM18.705 18.1182V17.2064C19 17.0813 19.3018 16.9874 19.6103 16.9249C19.9189 16.8623 20.2428 16.831 20.5821 16.831C20.8145 16.831 21.0425 16.8489 21.2659 16.8846C21.4894 16.9204 21.7084 16.9651 21.9229 17.0187V17.8768C21.7084 17.7964 21.4916 17.736 21.2724 17.6956C21.0532 17.6552 20.8231 17.6351 20.5821 17.6355C20.2425 17.6355 19.9162 17.678 19.6034 17.7631C19.2905 17.8482 18.9911 17.9666 18.705 18.1182ZM18.1687 20.478C18.562 20.2903 18.9576 20.1494 19.3556 20.0554C19.7535 19.9613 20.1624 19.9145 20.5821 19.9148C20.9039 19.9148 21.2191 19.9417 21.5277 19.9953C21.8362 20.0489 22.1468 20.1294 22.4593 20.2366V14.9271C22.1643 14.8019 21.858 14.7081 21.5405 14.6455C21.223 14.5829 20.9036 14.5516 20.5821 14.5516C20.162 14.5516 19.7464 14.6053 19.3352 14.7125C18.924 14.8198 18.5352 14.9807 18.1687 15.1952V20.478ZM17.6324 22.0601C17.2033 21.7205 16.7385 21.4568 16.2379 21.2691C15.7374 21.0813 15.2189 20.9875 14.6826 20.9875C14.3072 20.9875 13.9386 21.0367 13.5767 21.135C13.2149 21.2333 12.8684 21.3718 12.5373 21.5506C12.3496 21.6489 12.1687 21.6445 11.9946 21.5372C11.8205 21.43 11.7332 21.2735 11.7329 21.0679V14.6053C11.7329 14.507 11.7575 14.4131 11.8069 14.3237C11.8562 14.2343 11.9299 14.1673 12.0278 14.1226C12.448 13.917 12.8793 13.7582 13.322 13.6463C13.7646 13.5344 14.2182 13.4786 14.6826 13.479C15.2011 13.479 15.7084 13.546 16.2047 13.6801C16.701 13.8142 17.1769 14.0153 17.6324 14.2835C18.0883 14.0153 18.5643 13.8142 19.0606 13.6801C19.5569 13.546 20.0641 13.479 20.5821 13.479C21.0469 13.479 21.5007 13.535 21.9433 13.6469C22.386 13.7588 22.8172 13.9174 23.2369 14.1226C23.3352 14.1673 23.4091 14.2343 23.4584 14.3237C23.5078 14.4131 23.5323 14.507 23.5319 14.6053V21.0679C23.5319 21.2735 23.4448 21.43 23.2707 21.5372C23.0966 21.6445 22.9155 21.6489 22.7274 21.5506C22.3967 21.3718 22.0504 21.2333 21.6886 21.135C21.3267 21.0367 20.9579 20.9875 20.5821 20.9875C20.0458 20.9875 19.5274 21.0813 19.0268 21.2691C18.5262 21.4568 18.0614 21.7205 17.6324 22.0601Z" fill="#C25CFA"/>
</svg>
