<svg width="34" height="35" viewBox="0 0 34 35" fill="none" xmlns="http://www.w3.org/2000/svg">
<path d="M11.2329 21.593C11.2329 22.5478 11.963 23.278 12.9179 23.278H20.781C21.7358 23.278 22.466 22.5478 22.466 21.593V17.0998H11.2329V21.593ZM20.781 13.1682H19.6577V12.6066C19.6577 12.2696 19.433 12.0449 19.096 12.0449C18.7591 12.0449 18.5344 12.2696 18.5344 12.6066V13.1682H15.1645V12.6066C15.1645 12.2696 14.9398 12.0449 14.6028 12.0449C14.2658 12.0449 14.0412 12.2696 14.0412 12.6066V13.1682H12.9179C11.963 13.1682 11.2329 13.8984 11.2329 14.8532V15.9765H22.466V14.8532C22.466 13.8984 21.7358 13.1682 20.781 13.1682Z" fill="black"/>
</svg>
