<svg width="35" height="35" viewBox="0 0 35 35" fill="none" xmlns="http://www.w3.org/2000/svg">
<path d="M9.28174 9.815C9.28174 9.65363 9.34584 9.49886 9.45995 9.38476C9.57406 9.27065 9.72882 9.20654 9.89019 9.20654H11.7155C11.8512 9.20658 11.9831 9.252 12.09 9.33557C12.1969 9.41914 12.2729 9.53606 12.3057 9.66775L12.7986 11.6404H26.927C27.0163 11.6405 27.1045 11.6602 27.1854 11.6982C27.2662 11.7363 27.3377 11.7916 27.3947 11.8604C27.4518 11.9292 27.493 12.0096 27.5154 12.0961C27.5378 12.1826 27.5409 12.273 27.5245 12.3608L25.6991 22.0961C25.673 22.2356 25.599 22.3615 25.4899 22.4521C25.3808 22.5428 25.2435 22.5925 25.1016 22.5926H14.1494C14.0075 22.5925 13.8701 22.5428 13.761 22.4521C13.6519 22.3615 13.5779 22.2356 13.5518 22.0961L11.7277 12.379L11.2409 10.4235H9.89019C9.72882 10.4235 9.57406 10.3594 9.45995 10.2452C9.34584 10.1311 9.28174 9.97637 9.28174 9.815ZM13.0566 12.8573L14.6544 21.3757H24.5966L26.1944 12.8573H13.0566ZM15.3663 22.5926C14.7208 22.5926 14.1017 22.849 13.6453 23.3055C13.1889 23.7619 12.9324 24.381 12.9324 25.0265C12.9324 25.6719 13.1889 26.291 13.6453 26.7474C14.1017 27.2039 14.7208 27.4603 15.3663 27.4603C16.0118 27.4603 16.6308 27.2039 17.0872 26.7474C17.5437 26.291 17.8001 25.6719 17.8001 25.0265C17.8001 24.381 17.5437 23.7619 17.0872 23.3055C16.6308 22.849 16.0118 22.5926 15.3663 22.5926ZM23.8847 22.5926C23.2392 22.5926 22.6201 22.849 22.1637 23.3055C21.7073 23.7619 21.4508 24.381 21.4508 25.0265C21.4508 25.6719 21.7073 26.291 22.1637 26.7474C22.6201 27.2039 23.2392 27.4603 23.8847 27.4603C24.5302 27.4603 25.1492 27.2039 25.6057 26.7474C26.0621 26.291 26.3185 25.6719 26.3185 25.0265C26.3185 24.381 26.0621 23.7619 25.6057 23.3055C25.1492 22.849 24.5302 22.5926 23.8847 22.5926ZM15.3663 23.8095C15.689 23.8095 15.9985 23.9377 16.2268 24.166C16.455 24.3942 16.5832 24.7037 16.5832 25.0265C16.5832 25.3492 16.455 25.6587 16.2268 25.8869C15.9985 26.1152 15.689 26.2434 15.3663 26.2434C15.0435 26.2434 14.734 26.1152 14.5058 25.8869C14.2776 25.6587 14.1494 25.3492 14.1494 25.0265C14.1494 24.7037 14.2776 24.3942 14.5058 24.166C14.734 23.9377 15.0435 23.8095 15.3663 23.8095ZM23.8847 23.8095C24.2074 23.8095 24.517 23.9377 24.7452 24.166C24.9734 24.3942 25.1016 24.7037 25.1016 25.0265C25.1016 25.3492 24.9734 25.6587 24.7452 25.8869C24.517 26.1152 24.2074 26.2434 23.8847 26.2434C23.5619 26.2434 23.2524 26.1152 23.0242 25.8869C22.796 25.6587 22.6678 25.3492 22.6678 25.0265C22.6678 24.7037 22.796 24.3942 23.0242 24.166C23.2524 23.9377 23.5619 23.8095 23.8847 23.8095Z" fill="black"/>
</svg>
