<svg width="70" height="70" viewBox="0 0 70 70" fill="none" xmlns="http://www.w3.org/2000/svg">
<path d="M37.9167 61.25L43.75 58.3333L49.5833 61.25V40.8333H37.9167M49.5833 26.25V20.4167L43.75 23.3333L37.9167 20.4167V26.25L32.0833 29.1667L37.9167 32.0833V37.9167L43.75 35L49.5833 37.9167V32.0833L55.4167 29.1667M58.3333 8.75H11.6667C10.1196 8.75 8.63585 9.36458 7.54189 10.4585C6.44792 11.5525 5.83334 13.0362 5.83334 14.5833V43.75C5.83334 45.2971 6.44792 46.7808 7.54189 47.8748C8.63585 48.9687 10.1196 49.5833 11.6667 49.5833H32.0833V43.75H11.6667V14.5833H58.3333V43.75H55.4167V49.5833H58.3333C59.8804 49.5833 61.3642 48.9687 62.4581 47.8748C63.5521 46.7808 64.1667 45.2971 64.1667 43.75V14.5833C64.1667 13.0362 63.5521 11.5525 62.4581 10.4585C61.3642 9.36458 59.8804 8.75 58.3333 8.75ZM32.0833 23.3333H14.5833V17.5H32.0833M26.25 32.0833H14.5833V26.25H26.25M32.0833 40.8333H14.5833V35H32.0833V40.8333Z" fill="url(#paint0_linear_366_20)"/>
<defs>
<linearGradient id="paint0_linear_366_20" x1="35" y1="8.75" x2="35" y2="61.25" gradientUnits="userSpaceOnUse">
<stop stop-color="#B678ED"/>
<stop offset="1" stop-color="#966EEB"/>
</linearGradient>
</defs>
</svg>
