<svg width="35" height="35" viewBox="0 0 35 35" fill="none" xmlns="http://www.w3.org/2000/svg">
<path d="M19.6982 22.4053L21.5241 26.0567L23.3779 24.1557L26.2056 24.184L23.5748 18.9597V18.9507M15.8603 22.4053L14.0343 26.0567L12.1805 24.1557L9.35289 24.184L11.9837 18.9597V18.9507" stroke="#344054" stroke-width="0.842634" stroke-linecap="round" stroke-linejoin="round"/>
<path d="M24.5953 15.7571C24.5953 16.4689 23.9679 17.068 23.7617 17.7048C23.5558 18.3412 23.6965 19.2121 23.2938 19.7644C22.8912 20.3167 22.0296 20.4385 21.5241 20.8506C21.0185 21.2627 20.588 22.0303 19.9327 22.2456C19.277 22.4609 18.5373 22.0488 17.8259 22.0488C17.1145 22.0488 16.3564 22.4514 15.7196 22.2456C15.0827 22.0393 14.6801 21.2434 14.1278 20.8506C13.575 20.4574 12.7139 20.3167 12.3113 19.7644C11.9086 19.2117 12.0587 18.36 11.8434 17.7048C11.6277 17.0491 10.9631 16.4689 10.9631 15.7571C10.9631 15.0452 11.5904 14.4466 11.7962 13.8098C12.0021 13.173 11.8619 12.3025 12.2645 11.7502C12.6672 11.1979 13.5287 11.0761 14.081 10.664C14.6333 10.2519 14.9704 9.48429 15.6724 9.26902C16.3748 9.05331 17.0678 9.46541 17.7792 9.46541C18.4906 9.46541 19.2487 9.06274 19.886 9.26902C20.5223 9.47485 20.925 10.2707 21.5241 10.664C22.1231 11.0572 22.9379 11.1974 23.3406 11.7502C23.7432 12.303 23.5936 13.1546 23.8088 13.8098C24.0241 14.465 24.5953 15.0457 24.5953 15.7571ZM17.7792 12.9483C17.0342 12.9483 16.3197 13.2442 15.7929 13.771C15.2661 14.2978 14.9702 15.0123 14.9702 15.7573C14.9702 16.5023 15.2661 17.2168 15.7929 17.7436C16.3197 18.2704 17.0342 18.5663 17.7792 18.5663C18.5241 18.5663 19.2385 18.2704 19.7653 17.7436C20.292 17.2169 20.588 16.5025 20.588 15.7575C20.588 15.0126 20.292 14.2982 19.7653 13.7714C19.2385 13.2447 18.5241 12.9483 17.7792 12.9483Z" stroke="black" stroke-width="0.842634" stroke-linecap="round" stroke-linejoin="round"/>
</svg>
