<svg width="35" height="35" viewBox="0 0 35 35" fill="none" xmlns="http://www.w3.org/2000/svg">
<path d="M10.8614 18.8407C10.9392 18.9189 10.9989 19.0132 11.0361 19.1171C11.0733 19.2209 11.0871 19.3316 11.0766 19.4414C11.0238 19.9496 10.9239 20.4517 10.7781 20.9413C11.8243 20.6991 12.4633 20.4186 12.7535 20.2716C12.9181 20.1882 13.1077 20.1685 13.2859 20.2161C13.7969 20.3529 14.3236 20.4215 14.8526 20.4201C17.8493 20.4201 20.1021 18.315 20.1021 15.9205C20.1021 13.5259 17.8493 11.4208 14.8526 11.4208C11.8558 11.4208 9.60297 13.5267 9.60297 15.9205C9.60297 17.0214 10.0657 18.0428 10.8614 18.8407ZM10.4917 21.7692C10.314 21.8044 10.1357 21.8367 9.95694 21.866C9.80695 21.89 9.69296 21.734 9.75221 21.5945C9.81862 21.4374 9.87965 21.2781 9.93519 21.1168L9.93744 21.1093C10.1234 20.5693 10.2749 19.9484 10.3304 19.3702C9.41023 18.4478 8.85303 17.2404 8.85303 15.9205C8.85303 13.0212 11.5393 10.6709 14.8526 10.6709C18.1658 10.6709 20.8521 13.0212 20.8521 15.9205C20.8521 18.8197 18.1658 21.17 14.8526 21.17C14.2583 21.1714 13.6665 21.0942 13.0925 20.9406C12.7025 21.1378 11.8633 21.497 10.4917 21.7692Z" fill="black"/>
<path d="M14.1519 14.99C14.0058 14.7625 13.7898 14.5886 13.5364 14.4943C13.283 14.4001 13.0059 14.3906 12.7466 14.4674C12.4874 14.5442 12.2601 14.703 12.0989 14.9201C11.9376 15.1371 11.8512 15.4006 11.8526 15.6709C11.8527 15.8948 11.913 16.1145 12.027 16.3072C12.1411 16.4998 12.3048 16.6583 12.5011 16.766C12.6973 16.8738 12.9189 16.9268 13.1427 16.9197C13.3665 16.9125 13.5842 16.8454 13.7732 16.7253C13.6749 17.0171 13.4919 17.3283 13.1905 17.6403C13.1328 17.6999 13.1012 17.7801 13.1026 17.8631C13.1033 17.9041 13.1121 17.9447 13.1284 17.9824C13.1448 18.0201 13.1684 18.0542 13.198 18.0827C13.2275 18.1113 13.2624 18.1338 13.3006 18.1488C13.3388 18.1639 13.3797 18.1713 13.4207 18.1706C13.5037 18.1692 13.5827 18.1349 13.6404 18.0752C14.7548 16.9203 14.6101 15.6649 14.1519 14.9915V14.99ZM17.1516 14.99C17.0056 14.7625 16.7896 14.5886 16.5362 14.4943C16.2828 14.4001 16.0056 14.3906 15.7464 14.4674C15.4872 14.5442 15.2599 14.703 15.0986 14.9201C14.9374 15.1371 14.851 15.4006 14.8523 15.6709C14.8525 15.8948 14.9127 16.1145 15.0268 16.3072C15.1409 16.4998 15.3046 16.6583 15.5008 16.766C15.6971 16.8738 15.9187 16.9268 16.1424 16.9197C16.3662 16.9125 16.584 16.8454 16.7729 16.7253C16.6747 17.0171 16.4917 17.3283 16.1902 17.6403C16.1617 17.6698 16.1392 17.7047 16.1241 17.7429C16.109 17.7811 16.1016 17.822 16.1023 17.8631C16.103 17.9041 16.1118 17.9447 16.1282 17.9824C16.1445 18.0201 16.1682 18.0542 16.1977 18.0827C16.2273 18.1113 16.2621 18.1338 16.3004 18.1488C16.3386 18.1639 16.3794 18.1713 16.4205 18.1706C16.4616 18.1699 16.5021 18.1611 16.5398 18.1448C16.5775 18.1284 16.6116 18.1048 16.6402 18.0752C17.7546 16.9203 17.6099 15.6649 17.1516 14.9915V14.99Z" fill="black"/>
<path d="M16.0015 21.0422C16.0015 23.3863 18.1734 25.2865 20.8521 25.2865C21.3326 25.2876 21.8111 25.2252 22.2752 25.101C22.6293 25.2805 23.4424 25.6249 24.8103 25.8492C24.9316 25.8686 25.0237 25.7425 24.9758 25.6297C24.7612 25.1228 24.5672 24.4474 24.5089 23.8313C25.2517 23.0855 25.7028 22.1093 25.7028 21.0422C25.7028 18.6981 23.5309 16.7979 20.8521 16.7979C18.1734 16.7979 16.0015 18.6981 16.0015 21.0422ZM21.3409 20.294C21.3809 20.2344 21.427 20.1791 21.4785 20.1291C21.5599 20.046 21.6564 19.9793 21.7629 19.9326L21.7677 19.9302C21.9114 19.8638 22.0678 19.8294 22.2261 19.8295C22.807 19.8295 23.2775 20.2818 23.2775 20.8403C23.2775 21.3981 22.807 21.8504 22.2261 21.8504C22.0181 21.8504 21.8247 21.7928 21.6616 21.6928C21.7447 21.9286 21.8981 22.1803 22.1527 22.4325C22.1767 22.4559 22.1957 22.484 22.2084 22.515C22.2211 22.546 22.2274 22.5793 22.2267 22.6128C22.2261 22.6463 22.2186 22.6794 22.2048 22.7099C22.1909 22.7404 22.1709 22.7677 22.1461 22.7903C22.0412 22.8873 21.875 22.8842 21.7738 22.7842C20.9649 21.9784 20.9431 21.1119 21.2032 20.5371C21.2415 20.4522 21.2876 20.3704 21.3409 20.294ZM19.0331 21.6928C19.1156 21.9286 19.2696 22.1803 19.5243 22.4325C19.5482 22.456 19.5671 22.4841 19.5798 22.5151C19.5925 22.5461 19.5987 22.5794 19.598 22.613C19.5973 22.6465 19.5898 22.6795 19.5758 22.71C19.5619 22.7405 19.5419 22.7678 19.517 22.7903C19.4127 22.8873 19.2466 22.8842 19.1453 22.7842C18.3365 21.9784 18.3146 21.1119 18.5742 20.5371C18.6127 20.4522 18.659 20.371 18.7124 20.2946C18.7524 20.2348 18.7985 20.1793 18.85 20.1291C18.9314 20.046 19.0279 19.9793 19.1344 19.9326L19.1393 19.9302C19.2828 19.8639 19.439 19.8295 19.597 19.8295C20.1773 19.8295 20.6484 20.2818 20.6484 20.8403C20.6484 21.3981 20.1773 21.8504 19.597 21.8504C19.3891 21.8504 19.1962 21.7928 19.0331 21.6928Z" fill="black"/>
<path d="M20.9811 23.4373C22.5645 23.4373 23.848 22.3564 23.848 21.0231C23.848 19.6898 22.5645 18.6089 20.9811 18.6089C19.3978 18.6089 18.1143 19.6898 18.1143 21.0231C18.1143 22.3564 19.3978 23.4373 20.9811 23.4373Z" fill="black"/>
</svg>
