<svg width="35" height="35" viewBox="0 0 35 35" fill="none" xmlns="http://www.w3.org/2000/svg">
<path d="M21.5655 14.2628C21.299 13.9942 20.9817 13.7814 20.6321 13.6365C20.2826 13.4916 19.9077 13.4177 19.5293 13.419H13.0661C12.6873 13.419 12.3123 13.4937 11.9625 13.6388C11.6127 13.7839 11.2949 13.9966 11.0274 14.2647C10.7599 14.5327 10.5479 14.851 10.4035 15.2011C10.2591 15.5512 10.1852 15.9264 10.186 16.3051V20.3408C10.1852 20.7195 10.2591 21.0947 10.4035 21.4448C10.5479 21.795 10.7599 22.1132 11.0274 22.3813C11.2949 22.6493 11.6127 22.862 11.9625 23.0072C12.3123 23.1523 12.6873 23.227 13.0661 23.227H14.4908L15.6832 24.4132C15.7608 24.5007 15.8568 24.5691 15.9644 24.615C16.0715 24.659 16.1852 24.6823 16.3008 24.6823C16.4163 24.681 16.5301 24.6578 16.6371 24.615C16.7369 24.5677 16.8279 24.5036 16.9061 24.4255L18.1291 23.2025H19.5538C19.9321 23.2031 20.3067 23.1288 20.6562 22.984C21.0057 22.8392 21.323 22.6267 21.59 22.3587C21.8519 22.0889 22.0594 21.7713 22.2015 21.4231C22.3445 21.0715 22.4198 20.6955 22.4216 20.3164V16.2806C22.4188 15.9045 22.3418 15.5326 22.1949 15.1863C22.048 14.84 21.8341 14.5262 21.5655 14.2628ZM13.4696 19.2585C13.2689 19.2585 13.0726 19.199 12.9057 19.0874C12.7388 18.9759 12.6087 18.8174 12.5319 18.6319C12.455 18.4464 12.4349 18.2423 12.4741 18.0454C12.5133 17.8485 12.6099 17.6677 12.7519 17.5257C12.8939 17.3838 13.0747 17.2871 13.2716 17.2479C13.4685 17.2088 13.6726 17.2289 13.8581 17.3057C14.0436 17.3825 14.2021 17.5126 14.3136 17.6795C14.4252 17.8465 14.4847 18.0427 14.4847 18.2435C14.4831 18.5122 14.3756 18.7694 14.1856 18.9594C13.9956 19.1495 13.7384 19.2569 13.4696 19.2585ZM16.3008 19.2585C16.1675 19.2585 16.0355 19.2323 15.9123 19.1812C15.7892 19.1302 15.6773 19.0555 15.583 18.9612C15.4888 18.867 15.414 18.7551 15.363 18.6319C15.312 18.5088 15.2857 18.3768 15.2857 18.2435C15.2857 18.1102 15.312 17.9782 15.363 17.855C15.414 17.7319 15.4888 17.62 15.583 17.5257C15.6773 17.4315 15.7892 17.3567 15.9123 17.3057C16.0355 17.2547 16.1675 17.2284 16.3008 17.2284C16.57 17.2284 16.8281 17.3354 17.0185 17.5257C17.2089 17.7161 17.3158 17.9743 17.3158 18.2435C17.3158 18.5127 17.2089 18.7709 17.0185 18.9612C16.8281 19.1516 16.57 19.2585 16.3008 19.2585ZM19.1258 19.2585C18.925 19.2585 18.7288 19.199 18.5618 19.0874C18.3949 18.9759 18.2648 18.8174 18.188 18.6319C18.1112 18.4464 18.0911 18.2423 18.1302 18.0454C18.1694 17.8485 18.2661 17.6677 18.408 17.5257C18.55 17.3838 18.7308 17.2871 18.9277 17.2479C19.1246 17.2088 19.3287 17.2289 19.5142 17.3057C19.6997 17.3825 19.8582 17.5126 19.9697 17.6795C20.0813 17.8465 20.1408 18.0427 20.1408 18.2435C20.1392 18.5122 20.0317 18.7694 19.8417 18.9594C19.6517 19.1495 19.3945 19.2569 19.1258 19.2585Z" fill="black"/>
<path d="M21.0476 16.1666C22.1858 16.1666 23.1085 15.2439 23.1085 14.1058C23.1085 12.9676 22.1858 12.0449 21.0476 12.0449C19.9095 12.0449 18.9868 12.9676 18.9868 14.1058C18.9868 15.2439 19.9095 16.1666 21.0476 16.1666Z" fill="#EB1023"/>
</svg>
