<svg width="35" height="35" viewBox="0 0 35 35" fill="none" xmlns="http://www.w3.org/2000/svg">
<path d="M13.9102 11.6792C13.9102 11.3999 14.0212 11.132 14.2187 10.9345C14.4162 10.7369 14.6841 10.626 14.9634 10.626H18.4741C18.7534 10.626 19.0213 10.7369 19.2188 10.9345C19.4163 11.132 19.5273 11.3999 19.5273 11.6792V12.3813C19.5273 12.6606 19.4163 12.9285 19.2188 13.126C19.0213 13.3235 18.7534 13.4345 18.4741 13.4345H14.9634C14.6841 13.4345 14.4162 13.3235 14.2187 13.126C14.0212 12.9285 13.9102 12.6606 13.9102 12.3813V11.6792Z" fill="black"/>
<path fill-rule="evenodd" clip-rule="evenodd" d="M12.8574 12.0552C11.9741 12.1043 11.4166 12.2448 11.0171 12.645C10.3999 13.2621 10.3999 14.255 10.3999 16.2406V20.4534C10.3999 22.4397 10.3999 23.4325 11.0171 24.0497C11.6336 24.6662 12.6271 24.6662 14.6127 24.6662H18.8255C20.8111 24.6662 21.8047 24.6662 22.4211 24.0497C23.0383 23.4318 23.0383 22.4397 23.0383 20.4534V16.2406C23.0383 14.255 23.0383 13.2621 22.4211 12.645C22.0216 12.2448 21.4641 12.1043 20.5808 12.0552V12.3803C20.5808 12.9389 20.3589 13.4747 19.9639 13.8697C19.5689 14.2647 19.0331 14.4867 18.4744 14.4867H14.9638C14.4051 14.4867 13.8693 14.2647 13.4743 13.8697C13.0793 13.4747 12.8574 12.9389 12.8574 12.3803V12.0552ZM12.6818 16.5931C12.6818 16.4534 12.7373 16.3195 12.8361 16.2207C12.9348 16.1219 13.0688 16.0665 13.2084 16.0665H20.2298C20.3694 16.0665 20.5034 16.1219 20.6021 16.2207C20.7009 16.3195 20.7564 16.4534 20.7564 16.5931C20.7564 16.7327 20.7009 16.8667 20.6021 16.9654C20.5034 17.0642 20.3694 17.1197 20.2298 17.1197H13.2084C13.0688 17.1197 12.9348 17.0642 12.8361 16.9654C12.7373 16.8667 12.6818 16.7327 12.6818 16.5931ZM13.384 19.0505C13.384 18.9109 13.4395 18.7769 13.5382 18.6782C13.637 18.5794 13.7709 18.5239 13.9106 18.5239H19.5276C19.6673 18.5239 19.8012 18.5794 19.9 18.6782C19.9988 18.7769 20.0542 18.9109 20.0542 19.0505C20.0542 19.1902 19.9988 19.3241 19.9 19.4229C19.8012 19.5217 19.6673 19.5771 19.5276 19.5771H13.9106C13.7709 19.5771 13.637 19.5217 13.5382 19.4229C13.4395 19.3241 13.384 19.1902 13.384 19.0505ZM14.0861 21.508C14.0861 21.3683 14.1416 21.2344 14.2403 21.1356C14.3391 21.0369 14.473 20.9814 14.6127 20.9814H18.8255C18.9652 20.9814 19.0991 21.0369 19.1979 21.1356C19.2966 21.2344 19.3521 21.3683 19.3521 21.508C19.3521 21.6477 19.2966 21.7816 19.1979 21.8804C19.0991 21.9791 18.9652 22.0346 18.8255 22.0346H14.6127C14.473 22.0346 14.3391 21.9791 14.2403 21.8804C14.1416 21.7816 14.0861 21.6477 14.0861 21.508Z" fill="black"/>
</svg>
