<svg width="34" height="35" viewBox="0 0 34 35" fill="none" xmlns="http://www.w3.org/2000/svg">
<path d="M16.9466 18.1276V15.5519C16.9466 15.3861 16.8904 15.2471 16.7779 15.135C16.6654 15.0229 16.5259 14.9669 16.3595 14.9669C16.1932 14.9669 16.0545 15.0229 15.9433 15.135C15.8322 15.2471 15.7766 15.3861 15.7766 15.5519V18.3544C15.7766 18.4289 15.7902 18.5011 15.8175 18.5711C15.8448 18.6411 15.8896 18.7073 15.9521 18.7696L17.9179 20.7354C18.0309 20.8486 18.1674 20.9051 18.3274 20.9051C18.4873 20.9051 18.6238 20.8486 18.7369 20.7354C18.85 20.6224 18.9066 20.4859 18.9066 20.3259C18.9066 20.166 18.85 20.0295 18.7369 19.9165L16.9466 18.1276ZM16.3616 24.667C15.484 24.667 14.662 24.5003 13.8956 24.1668C13.1292 23.8333 12.4622 23.3828 11.8947 22.8153C11.3272 22.2478 10.8767 21.5808 10.5432 20.8144C10.2097 20.048 10.043 19.226 10.043 18.3484C10.043 17.4708 10.2097 16.6488 10.5432 15.8824C10.8767 15.116 11.3272 14.449 11.8947 13.8815C12.4622 13.314 13.1292 12.8635 13.8956 12.53C14.662 12.1965 15.484 12.0298 16.3616 12.0298C17.2392 12.0298 18.0612 12.1965 18.8276 12.53C19.594 12.8635 20.261 13.314 20.8285 13.8815C21.396 14.449 21.8465 15.116 22.18 15.8824C22.5135 16.6488 22.6802 17.4708 22.6802 18.3484C22.6802 19.226 22.5135 20.048 22.18 20.8144C21.8465 21.5808 21.396 22.2478 20.8285 22.8153C20.261 23.3828 19.594 23.8333 18.8276 24.1668C18.0612 24.5003 17.2392 24.667 16.3616 24.667Z" fill="black"/>
</svg>
