<svg width="35" height="35" viewBox="0 0 35 35" fill="none" xmlns="http://www.w3.org/2000/svg">
<path d="M13.7065 25.6987C13.3405 25.6987 13.0271 25.5684 12.7665 25.3078C12.5058 25.0471 12.3755 24.7337 12.3755 24.3677V13.7192C12.3755 13.3532 12.5058 13.0398 12.7665 12.7792C13.0271 12.5185 13.3405 12.3882 13.7065 12.3882H21.6929C22.0589 12.3882 22.3723 12.5185 22.6329 12.7792C22.8936 13.0398 23.0239 13.3532 23.0239 13.7192V24.3677C23.0239 24.7337 22.8936 25.0471 22.6329 25.3078C22.3723 25.5684 22.0589 25.6987 21.6929 25.6987H13.7065ZM17.0342 18.3779L18.698 17.3796L20.3618 18.3779V13.7192H17.0342V18.3779Z" fill="#C25CFA"/>
</svg>
