<svg width="70" height="70" viewBox="0 0 70 70" fill="none" xmlns="http://www.w3.org/2000/svg">
<path d="M19.6875 24.0623C19.6875 20.0011 21.3008 16.1064 24.1724 13.2347C27.0441 10.3631 30.9389 8.74977 35 8.74977C39.0611 8.74977 42.9559 10.3631 45.8276 13.2347C48.6992 16.1064 50.3125 20.0011 50.3125 24.0623C50.3125 24.6424 50.543 25.1988 50.9532 25.6091C51.3634 26.0193 51.9198 26.2498 52.5 26.2498C53.0802 26.2498 53.6366 26.0193 54.0468 25.6091C54.457 25.1988 54.6875 24.6424 54.6875 24.0623C54.6872 20.7047 53.8283 17.4031 52.1923 14.4711C50.5563 11.5391 48.1976 9.07421 45.3405 7.31073C42.4834 5.54724 39.2228 4.54375 35.8685 4.39563C32.5142 4.24752 29.1778 4.9597 26.1764 6.46449C23.175 7.96927 20.6082 10.2167 18.7202 12.993C16.8321 15.7694 15.6855 18.9825 15.3893 22.327C15.093 25.6714 15.6571 29.036 17.0277 32.101C18.3984 35.166 20.5301 37.8296 23.2203 39.8385C25.5272 41.5618 28.184 42.758 31.0034 43.3429C31.3951 44.2214 32.0653 44.9463 32.9104 45.4055C33.7555 45.8648 34.7284 46.0327 35.6786 45.8834C36.6288 45.734 37.5032 45.2757 38.1667 44.5794C38.8302 43.8831 39.2457 42.9875 39.349 42.0312C39.4523 41.0749 39.2376 40.1113 38.7381 39.2893C38.2385 38.4674 37.4821 37.833 36.5857 37.4842C35.6893 37.1354 34.703 37.0918 33.7793 37.36C32.8557 37.6282 32.0461 38.1933 31.4759 38.9679C28.1194 38.1741 25.1292 36.2704 22.9897 33.5651C20.8501 30.8598 19.6866 27.5114 19.6875 24.0623ZM21.875 24.0623C21.8759 21.6477 22.5428 19.2801 23.8024 17.2201C25.062 15.1601 26.8654 13.4875 29.0143 12.3863C31.1631 11.2851 33.5741 10.7981 35.9819 10.9787C38.3898 11.1594 40.7011 12.0007 42.6616 13.4102C44.6221 14.8197 46.1558 16.7427 47.0939 18.9676C48.032 21.1925 48.3382 23.633 47.9788 26.0207C47.6193 28.4084 46.6082 30.6507 45.0567 32.5008C43.5051 34.3509 41.4733 35.7371 39.1847 36.507C38.0078 35.5328 36.5278 34.9997 35 34.9998C33.4097 34.9998 31.9528 35.5663 30.8153 36.507C28.2095 35.6304 25.9447 33.9576 24.3406 31.7247C22.7364 29.4919 21.874 26.8116 21.875 24.0623ZM35 15.3123C32.6794 15.3123 30.4538 16.2341 28.8128 17.8751C27.1719 19.516 26.25 21.7416 26.25 24.0623C26.25 26.3829 27.1719 28.6085 28.8128 30.2495C30.4538 31.8904 32.6794 32.8123 35 32.8123C37.3206 32.8123 39.5462 31.8904 41.1872 30.2495C42.8281 28.6085 43.75 26.3829 43.75 24.0623C43.75 21.7416 42.8281 19.516 41.1872 17.8751C39.5462 16.2341 37.3206 15.3123 35 15.3123ZM16.4062 39.3748H19.3791C21.1375 41.1713 23.1925 42.6513 25.4537 43.7498H16.4062C15.536 43.7498 14.7014 44.0955 14.0861 44.7108C13.4707 45.3262 13.125 46.1608 13.125 47.031V48.1248C13.125 51.347 15.1812 54.5757 19.1603 57.1067C23.1131 59.6223 28.7066 61.2498 34.9978 61.2498C41.2934 61.2498 46.8869 59.6223 50.8397 57.1067C54.8209 54.5779 56.875 51.3448 56.875 48.1248V47.031C56.875 46.1608 56.5293 45.3262 55.9139 44.7108C55.2986 44.0955 54.464 43.7498 53.5938 43.7498H41.1906C41.691 42.3344 41.691 40.7902 41.1906 39.3748H53.5938C55.6243 39.3748 57.5717 40.1814 59.0075 41.6172C60.4434 43.0531 61.25 45.0005 61.25 47.031V48.1248C61.25 53.3595 57.9184 57.787 53.1891 60.797C48.4334 63.8245 41.9956 65.6248 35 65.6248C28.0044 65.6248 21.5687 63.8245 16.8109 60.797C12.0816 57.787 8.75 53.3595 8.75 48.1248V47.031C8.75 45.0005 9.55664 43.0531 10.9925 41.6172C12.4283 40.1814 14.3757 39.3748 16.4062 39.3748Z" fill="url(#paint0_linear_366_18)"/>
<defs>
<linearGradient id="paint0_linear_366_18" x1="35" y1="4.37646" x2="35" y2="65.6248" gradientUnits="userSpaceOnUse">
<stop stop-color="#B678ED"/>
<stop offset="1" stop-color="#966EEB"/>
</linearGradient>
</defs>
</svg>
