<svg width="35" height="35" viewBox="0 0 35 35" fill="none" xmlns="http://www.w3.org/2000/svg">
<path d="M18.7535 16.1924C18.6028 16.1924 18.4765 16.1415 18.3746 16.0396C18.2726 15.9376 18.2216 15.8113 18.2216 15.6607V12.5766C18.2216 12.426 18.2726 12.2997 18.3746 12.1977C18.4765 12.0959 18.6028 12.0449 18.7535 12.0449H22.901C23.0516 12.0449 23.1778 12.0959 23.2798 12.1977C23.3817 12.2997 23.4326 12.426 23.4326 12.5766V15.6607C23.4326 15.8113 23.3817 15.9376 23.2798 16.0396C23.1778 16.1415 23.0516 16.1924 22.901 16.1924H18.7535ZM12.4789 18.3193C12.3284 18.3193 12.2021 18.2683 12.1001 18.1665C11.9982 18.0646 11.9473 17.9383 11.9473 17.7876V12.5766C11.9473 12.426 11.9982 12.2997 12.1001 12.1977C12.2021 12.0959 12.3284 12.0449 12.4789 12.0449H16.6264C16.7771 12.0449 16.9034 12.0959 17.0053 12.1977C17.1073 12.2997 17.1583 12.426 17.1583 12.5766V17.7876C17.1583 17.9383 17.1073 18.0646 17.0053 18.1665C16.9034 18.2683 16.7771 18.3193 16.6264 18.3193H12.4789ZM18.7535 23.5303C18.6028 23.5303 18.4765 23.4794 18.3746 23.3775C18.2726 23.2755 18.2216 23.1492 18.2216 22.9986V17.7876C18.2216 17.6369 18.2726 17.5106 18.3746 17.4088C18.4765 17.3069 18.6028 17.2559 18.7535 17.2559H22.901C23.0516 17.2559 23.1778 17.3069 23.2798 17.4088C23.3817 17.5106 23.4326 17.6369 23.4326 17.7876V22.9986C23.4326 23.1492 23.3817 23.2755 23.2798 23.3775C23.1778 23.4794 23.0516 23.5303 22.901 23.5303H18.7535ZM12.4789 23.5303C12.3284 23.5303 12.2021 23.4794 12.1001 23.3775C11.9982 23.2755 11.9473 23.1492 11.9473 22.9986V19.9145C11.9473 19.7639 11.9982 19.6376 12.1001 19.5356C12.2021 19.4337 12.3284 19.3828 12.4789 19.3828H16.6264C16.7771 19.3828 16.9034 19.4337 17.0053 19.5356C17.1073 19.6376 17.1583 19.7639 17.1583 19.9145V22.9986C17.1583 23.1492 17.1073 23.2755 17.0053 23.3775C16.9034 23.4794 16.7771 23.5303 16.6264 23.5303H12.4789Z" fill="white"/>
</svg>
