<svg width="36" height="35" viewBox="0 0 36 35" fill="none" xmlns="http://www.w3.org/2000/svg">
<path fill-rule="evenodd" clip-rule="evenodd" d="M17.4197 20.7328C17.5909 20.9039 17.823 21 18.065 21C18.307 21 18.5392 20.9039 18.7103 20.7328L23.8738 15.5693C23.961 15.4851 24.0305 15.3844 24.0783 15.273C24.1262 15.1617 24.1514 15.0419 24.1524 14.9207C24.1535 14.7995 24.1304 14.6793 24.0845 14.5671C24.0386 14.455 23.9708 14.353 23.8851 14.2673C23.7994 14.1816 23.6975 14.1139 23.5853 14.068C23.4731 14.0221 23.353 13.999 23.2318 14C23.1106 14.0011 22.9908 14.0263 22.8794 14.0741C22.7681 14.1219 22.6674 14.1915 22.5832 14.2787L18.065 18.7968L13.5469 14.2787C13.3747 14.1124 13.1441 14.0204 12.9048 14.0225C12.6655 14.0245 12.4366 14.1205 12.2673 14.2898C12.0981 14.459 12.0021 14.6879 12 14.9273C11.998 15.1666 12.09 15.3971 12.2562 15.5693L17.4197 20.7328Z" fill="black"/>
</svg>
