<svg width="36" height="35" viewBox="0 0 36 35" fill="none" xmlns="http://www.w3.org/2000/svg">
<path d="M26.9321 17.3079C25.1434 14.0011 22.0064 12 18.5351 12C15.0637 12 11.9215 14.0011 10.1486 17.3079L10 17.5573L10.138 17.8121C11.9268 21.1189 15.0637 23.12 18.5351 23.12C22.0064 23.12 25.1487 21.1455 26.9321 17.8121L27.0701 17.5573L26.9321 17.3079ZM18.5351 22.0319C15.5467 22.0319 12.8026 20.3652 11.2102 17.5573C12.8026 14.7495 15.5467 13.0828 18.5351 13.0828C21.5234 13.0828 24.2357 14.7548 25.8546 17.5573C24.2357 20.3652 21.5181 22.0319 18.5351 22.0319Z" fill="white"/>
<path d="M18.4181 20.1525C20.429 20.1525 22.0593 18.5223 22.0593 16.5113C22.0593 14.5003 20.429 12.8701 18.4181 12.8701C16.4071 12.8701 14.7769 14.5003 14.7769 16.5113C14.7769 18.5223 16.4071 20.1525 18.4181 20.1525Z" fill="white"/>
</svg>
