<svg width="35" height="35" viewBox="0 0 35 35" fill="none" xmlns="http://www.w3.org/2000/svg">
<path d="M22.6536 10.6558H10.6404C9.69659 10.6558 8.92432 11.428 8.92432 12.3719V24.3851C8.92432 25.3298 9.69659 26.1012 10.6404 26.1012H16.647V20.0947H14.9308V17.9709H16.647V16.2118C16.647 14.355 17.687 13.0507 19.8785 13.0507L21.4257 13.0524V15.2877H20.3985C19.5456 15.2877 19.2213 15.9278 19.2213 16.5216V17.9718H21.4248L20.9374 20.0947H19.2213V26.1012H22.6536C23.5975 26.1012 24.3697 25.3298 24.3697 24.3851V12.3719C24.3697 11.428 23.5975 10.6558 22.6536 10.6558Z" fill="white"/>
</svg>
