<svg width="35" height="35" viewBox="0 0 35 35" fill="none" xmlns="http://www.w3.org/2000/svg">
<path d="M25.5317 13.9409C25.456 13.7589 25.3114 13.6142 25.1293 13.5386C25.0397 13.5004 24.9436 13.4802 24.8462 13.479H21.1208C20.9232 13.479 20.7337 13.5575 20.594 13.6972C20.4543 13.837 20.3758 14.0265 20.3758 14.2241C20.3758 14.4217 20.4543 14.6112 20.594 14.7509C20.7337 14.8906 20.9232 14.9691 21.1208 14.9691H23.0506L18.8856 19.1341L16.4343 16.6754C16.3651 16.6055 16.2827 16.5501 16.1919 16.5123C16.1011 16.4744 16.0037 16.455 15.9053 16.455C15.807 16.455 15.7096 16.4744 15.6188 16.5123C15.528 16.5501 15.4456 16.6055 15.3763 16.6754L10.9059 21.1458C10.8361 21.2151 10.7806 21.2975 10.7428 21.3883C10.705 21.4791 10.6855 21.5764 10.6855 21.6748C10.6855 21.7732 10.705 21.8705 10.7428 21.9613C10.7806 22.0521 10.8361 22.1345 10.9059 22.2038C10.9752 22.2736 11.0576 22.3291 11.1484 22.3669C11.2391 22.4047 11.3365 22.4242 11.4349 22.4242C11.5333 22.4242 11.6306 22.4047 11.7214 22.3669C11.8122 22.3291 11.8946 22.2736 11.9639 22.2038L15.9053 18.2549L18.3566 20.7137C18.4259 20.7835 18.5083 20.8389 18.5991 20.8767C18.6899 20.9146 18.7873 20.934 18.8856 20.934C18.984 20.934 19.0814 20.9146 19.1721 20.8767C19.2629 20.8389 19.3453 20.7835 19.4146 20.7137L24.1011 16.0197V17.9494C24.1011 18.147 24.1796 18.3366 24.3193 18.4763C24.4591 18.616 24.6486 18.6945 24.8462 18.6945C25.0438 18.6945 25.2333 18.616 25.373 18.4763C25.5128 18.3366 25.5913 18.147 25.5913 17.9494V14.2241C25.5901 14.1267 25.5698 14.0305 25.5317 13.9409Z" fill="#C25CFA"/>
</svg>
