<svg width="36" height="35" viewBox="0 0 36 35" fill="none" xmlns="http://www.w3.org/2000/svg">
<path d="M7 10.0769C7 8.37759 8.37759 7 10.0769 7H27C28.6993 7 30.0769 8.37759 30.0769 10.0769V23.9231C30.0769 25.6224 28.6993 27 27 27H10.0769C8.37759 27 7 25.6224 7 23.9231V10.0769Z" fill="#A454EB"/>
<path d="M11.0173 22.8973H26.0601C26.5771 22.8973 27.0002 22.4742 27.0002 21.9571C27.0002 21.44 26.5771 21.0169 26.0601 21.0169H11.0173C10.5002 21.0169 10.0771 21.44 10.0771 21.9571C10.0771 22.4742 10.5002 22.8973 11.0173 22.8973ZM11.0173 18.1964H26.0601C26.5771 18.1964 27.0002 17.7734 27.0002 17.2563C27.0002 16.7392 26.5771 16.3161 26.0601 16.3161H11.0173C10.5002 16.3161 10.0771 16.7392 10.0771 17.2563C10.0771 17.7734 10.5002 18.1964 11.0173 18.1964ZM10.0771 12.5554C10.0771 13.0725 10.5002 13.4956 11.0173 13.4956H26.0601C26.5771 13.4956 27.0002 13.0725 27.0002 12.5554C27.0002 12.0383 26.5771 11.6152 26.0601 11.6152H11.0173C10.5002 11.6152 10.0771 12.0383 10.0771 12.5554Z" fill="white"/>
</svg>
