<svg width="34" height="35" viewBox="0 0 34 35" fill="none" xmlns="http://www.w3.org/2000/svg">
<path d="M9.90039 18.1267C9.90039 16.8198 9.90039 16.1664 10.1641 15.5919C10.4287 15.0174 10.9243 14.593 11.9165 13.7423L12.8788 12.9176C14.6736 11.3807 15.5686 10.6108 16.6368 10.6108C17.7049 10.6108 18.6009 11.3797 20.3947 12.9166L21.357 13.7413C22.3482 14.592 22.8448 15.0164 23.1085 15.5909C23.3731 16.1654 23.3731 16.8189 23.3731 18.1257V22.207C23.3731 24.0219 23.3731 24.9285 22.8092 25.4924C22.2452 26.0563 21.3387 26.0563 19.5238 26.0563H13.7497C11.9348 26.0563 11.0283 26.0563 10.4643 25.4924C9.90039 24.9285 9.90039 24.0219 9.90039 22.207V18.1267Z" stroke="#A454EB" stroke-width="1.92467"/>
<path d="M19.0422 26.0562V21.2446C19.0422 20.9893 18.9408 20.7446 18.7603 20.5641C18.5799 20.3836 18.3351 20.2822 18.0799 20.2822H15.1928C14.9376 20.2822 14.6928 20.3836 14.5124 20.5641C14.3319 20.7446 14.2305 20.9893 14.2305 21.2446V26.0562" stroke="#A454EB" stroke-width="1.92467" stroke-linecap="round" stroke-linejoin="round"/>
</svg>
