<svg width="35" height="35" viewBox="0 0 35 35" fill="none" xmlns="http://www.w3.org/2000/svg">
<path d="M17.4206 10.6108C16.032 10.6108 14.6746 11.0226 13.5201 11.794C12.3656 12.5655 11.4657 13.662 10.9343 14.9448C10.4029 16.2277 10.2639 17.6393 10.5348 19.0012C10.8057 20.3631 11.4744 21.614 12.4562 22.5959C13.4381 23.5777 14.689 24.2464 16.0509 24.5173C17.4128 24.7882 18.8244 24.6491 20.1073 24.1178C21.3901 23.5864 22.4866 22.6865 23.258 21.532C24.0295 20.3774 24.4412 19.0201 24.4412 17.6315C24.4393 15.7701 23.699 13.9855 22.3828 12.6693C21.0666 11.3531 19.282 10.6128 17.4206 10.6108ZM17.4206 23.5721C16.2456 23.5721 15.0971 23.2237 14.1202 22.5709C13.1433 21.9182 12.3818 20.9904 11.9322 19.9049C11.4826 18.8194 11.3649 17.6249 11.5942 16.4726C11.8234 15.3202 12.3892 14.2617 13.22 13.4309C14.0508 12.6001 15.1093 12.0343 16.2616 11.8051C17.414 11.5759 18.6084 11.6935 19.6939 12.1431C20.7794 12.5928 21.7072 13.3542 22.36 14.3311C23.0127 15.308 23.3611 16.4566 23.3611 17.6315C23.3594 19.2065 22.7329 20.7165 21.6192 21.8302C20.5055 22.9438 18.9956 23.5703 17.4206 23.5721ZM18.5007 20.8718C18.5007 21.015 18.4438 21.1524 18.3425 21.2537C18.2412 21.355 18.1039 21.4119 17.9606 21.4119C17.6742 21.4119 17.3994 21.2981 17.1969 21.0955C16.9943 20.893 16.8805 20.6182 16.8805 20.3318V17.6315C16.7373 17.6315 16.5999 17.5746 16.4986 17.4733C16.3974 17.3721 16.3405 17.2347 16.3405 17.0915C16.3405 16.9482 16.3974 16.8109 16.4986 16.7096C16.5999 16.6083 16.7373 16.5514 16.8805 16.5514C17.167 16.5514 17.4417 16.6652 17.6443 16.8678C17.8468 17.0703 17.9606 17.345 17.9606 17.6315V20.3318C18.1039 20.3318 18.2412 20.3887 18.3425 20.4899C18.4438 20.5912 18.5007 20.7286 18.5007 20.8718ZM16.3405 14.6612C16.3405 14.501 16.388 14.3444 16.477 14.2112C16.566 14.078 16.6925 13.9741 16.8405 13.9128C16.9886 13.8515 17.1514 13.8355 17.3086 13.8667C17.4657 13.898 17.6101 13.9751 17.7234 14.0884C17.8367 14.2017 17.9138 14.346 17.9451 14.5032C17.9763 14.6603 17.9603 14.8232 17.899 14.9712C17.8376 15.1193 17.7338 15.2458 17.6006 15.3348C17.4674 15.4238 17.3108 15.4713 17.1505 15.4713C16.9357 15.4713 16.7297 15.386 16.5777 15.234C16.4258 15.0821 16.3405 14.8761 16.3405 14.6612Z" fill="#A454EB"/>
</svg>
