<svg width="35" height="35" viewBox="0 0 35 35" fill="none" xmlns="http://www.w3.org/2000/svg">
<path d="M17.9428 9.25146C18.9696 9.2542 19.4907 9.25968 19.9407 9.27246L20.1177 9.27884C20.3222 9.28615 20.5239 9.29527 20.7675 9.30622C21.7386 9.35186 22.4012 9.50519 22.9826 9.73061C23.5849 9.96243 24.0924 10.2764 24.5998 10.7829C25.0639 11.2392 25.423 11.791 25.6521 12.4002C25.8776 12.9815 26.0309 13.6441 26.0765 14.6161C26.0875 14.8589 26.0966 15.0606 26.1039 15.2659L26.1094 15.443C26.1231 15.892 26.1285 16.4132 26.1304 17.4399L26.1313 18.1208V19.3163C26.1335 19.982 26.1265 20.6477 26.1103 21.3133L26.1048 21.4903C26.0975 21.6957 26.0884 21.8974 26.0774 22.1401C26.0318 23.1121 25.8767 23.7738 25.6521 24.3561C25.4237 24.9655 25.0645 25.5176 24.5998 25.9733C24.1435 26.4373 23.5916 26.7963 22.9826 27.0256C22.4012 27.2511 21.7386 27.4044 20.7675 27.45C20.551 27.4602 20.3344 27.4693 20.1177 27.4774L19.9407 27.4829C19.4907 27.4957 18.9696 27.502 17.9428 27.5039L17.262 27.5048H16.0673C15.4013 27.5071 14.7353 27.5001 14.0695 27.4838L13.8924 27.4783C13.6758 27.4701 13.4592 27.4607 13.2426 27.45C12.2715 27.4044 11.6089 27.2511 11.0267 27.0256C10.4176 26.7969 9.86595 26.4377 9.41033 25.9733C8.94583 25.5173 8.5864 24.9653 8.35712 24.3561C8.13169 23.7747 7.97836 23.1121 7.93273 22.1401C7.92256 21.9236 7.91343 21.707 7.90535 21.4903L7.90078 21.3133C7.88397 20.6478 7.87636 19.9821 7.87797 19.3163V17.4399C7.87542 16.7742 7.88211 16.1085 7.89805 15.443L7.90444 15.2659C7.91174 15.0606 7.92086 14.8589 7.93182 14.6161C7.97745 13.6441 8.13078 12.9824 8.3562 12.4002C8.58539 11.7904 8.94553 11.2384 9.41125 10.7829C9.86675 10.3188 10.418 9.95968 11.0267 9.73061C11.6089 9.50519 12.2706 9.35186 13.2426 9.30622C13.4854 9.29527 13.688 9.28615 13.8924 9.27884L14.0695 9.27337C14.735 9.25715 15.4007 9.25017 16.0664 9.25239L17.9428 9.25146ZM17.0046 13.8148C15.7944 13.8148 14.6337 14.2956 13.7779 15.1514C12.9221 16.0072 12.4413 17.1679 12.4413 18.3781C12.4413 19.5884 12.9221 20.7491 13.7779 21.6049C14.6337 22.4607 15.7944 22.9415 17.0046 22.9415C18.2149 22.9415 19.3756 22.4607 20.2314 21.6049C21.0872 20.7491 21.568 19.5884 21.568 18.3781C21.568 17.1679 21.0872 16.0072 20.2314 15.1514C19.3756 14.2956 18.2149 13.8148 17.0046 13.8148ZM17.0046 15.6401C17.3642 15.6401 17.7202 15.7108 18.0524 15.8484C18.3847 15.9859 18.6865 16.1875 18.9408 16.4417C19.1951 16.6959 19.3968 16.9977 19.5345 17.3299C19.6721 17.6621 19.743 18.0181 19.7431 18.3777C19.7431 18.7372 19.6724 19.0933 19.5348 19.4255C19.3973 19.7577 19.1957 20.0596 18.9415 20.3139C18.6873 20.5681 18.3855 20.7699 18.0533 20.9075C17.7211 21.0452 17.3651 21.1161 17.0055 21.1161C16.2794 21.1161 15.583 20.8277 15.0695 20.3142C14.556 19.8007 14.2675 19.1043 14.2675 18.3781C14.2675 17.652 14.556 16.9555 15.0695 16.4421C15.583 15.9286 16.2785 15.6401 17.0046 15.6401ZM21.797 12.4458C21.4945 12.4458 21.2043 12.566 20.9903 12.7799C20.7764 12.9939 20.6562 13.2841 20.6562 13.5866C20.6562 13.8892 20.7764 14.1794 20.9903 14.3933C21.2043 14.6073 21.4945 14.7275 21.797 14.7275C22.0996 14.7275 22.3898 14.6073 22.6037 14.3933C22.8177 14.1794 22.9379 13.8892 22.9379 13.5866C22.9379 13.2841 22.8177 12.9939 22.6037 12.7799C22.3898 12.566 22.0996 12.4458 21.797 12.4458Z" fill="white"/>
</svg>
