<svg width="35" height="35" viewBox="0 0 35 35" fill="none" xmlns="http://www.w3.org/2000/svg">
<path d="M18.2855 14.6464V12.3614C18.2855 12.2143 18.2357 12.091 18.1359 11.9916C18.036 11.8921 17.9123 11.8424 17.7647 11.8424C17.6172 11.8424 17.4941 11.8921 17.3955 11.9916C17.2969 12.091 17.2476 12.2143 17.2476 12.3614V14.8476C17.2476 14.9137 17.2597 14.9778 17.2839 15.0398C17.3081 15.1019 17.3479 15.1606 17.4033 15.216L19.1472 16.9599C19.2475 17.0602 19.3686 17.1104 19.5105 17.1104C19.6524 17.1104 19.7735 17.0602 19.8738 16.9599C19.9741 16.8596 20.0243 16.7385 20.0243 16.5966C20.0243 16.4547 19.9741 16.3336 19.8738 16.2333L18.2855 14.6464ZM17.7666 20.4477C16.988 20.4477 16.2588 20.2998 15.5789 20.0039C14.899 19.7081 14.3073 19.3084 13.8038 18.805C13.3004 18.3015 12.9007 17.7099 12.6049 17.0299C12.3091 16.35 12.1611 15.6208 12.1611 14.8423C12.1611 14.0637 12.3091 13.3345 12.6049 12.6546C12.9007 11.9747 13.3004 11.383 13.8038 10.8795C14.3073 10.3761 14.899 9.97642 15.5789 9.68058C16.2588 9.38474 16.988 9.23682 17.7666 9.23682C18.5451 9.23682 19.2743 9.38474 19.9543 9.68058C20.6342 9.97642 21.2259 10.3761 21.7293 10.8795C22.2328 11.383 22.6324 11.9747 22.9282 12.6546C23.2241 13.3345 23.372 14.0637 23.372 14.8423C23.372 15.6208 23.2241 16.35 22.9282 17.0299C22.6324 17.7099 22.2328 18.3015 21.7293 18.805C21.2259 19.3084 20.6342 19.7081 19.9543 20.0039C19.2743 20.2998 18.5451 20.4477 17.7666 20.4477Z" fill="white"/>
<path d="M15.5413 23.4197C16.4223 23.4444 17.2607 23.2825 18.0566 22.9339C18.8525 22.5851 19.5342 22.0753 20.1019 21.4043C20.7478 20.6409 21.1665 19.7754 21.3579 18.8077C21.5495 17.8399 21.4856 16.88 21.1663 15.9278C21.1227 15.7865 21.1243 15.644 21.1712 15.5001C21.2182 15.3563 21.312 15.2601 21.4528 15.2115C21.5937 15.1629 21.7311 15.1692 21.865 15.2305C21.999 15.2918 22.0916 15.394 22.1429 15.537C22.5194 16.6669 22.5993 17.8099 22.3827 18.966C22.166 20.122 21.6721 21.1557 20.9011 22.067C20.2557 22.8297 19.4855 23.4186 18.5905 23.8336C17.6956 24.2484 16.7497 24.4557 15.7528 24.4553L17.2267 25.7024C17.339 25.7974 17.4009 25.9151 17.4123 26.0556C17.4238 26.1961 17.3819 26.3227 17.2866 26.4353C17.1913 26.548 17.0737 26.6098 16.9341 26.6208C16.7944 26.6319 16.6685 26.5899 16.5562 26.4949L14.0521 24.3762C13.9399 24.2812 13.8779 24.1636 13.8662 24.0234C13.8545 23.8831 13.8961 23.7569 13.9911 23.6447L16.1099 21.1405C16.2049 21.0282 16.3226 20.9664 16.4631 20.9549C16.6035 20.9435 16.7301 20.9855 16.8427 21.0807C16.9554 21.1761 17.0172 21.2936 17.0283 21.4332C17.0393 21.5728 16.9973 21.6987 16.9023 21.811L15.5413 23.4197Z" fill="white"/>
</svg>
