<svg width="101" height="100" viewBox="0 0 101 100" fill="none" xmlns="http://www.w3.org/2000/svg">
<path d="M63.6202 92.1649L42.8885 97.7052C41.4114 98.0998 39.8794 97.2176 39.4835 95.7445C39.0879 94.2716 39.9724 92.7434 41.4493 92.3488L62.181 86.8086C63.658 86.414 65.1901 87.2959 65.5859 88.7691C65.982 90.2422 65.097 91.7702 63.6202 92.1649ZM54.0212 28.6235C53.8355 31.1441 52.406 32.5647 50.1866 32.5287C47.9768 32.4932 46.3687 30.9828 46.4217 28.6828C46.4732 26.4449 47.88 24.9749 50.2733 25.001C52.665 25.0267 53.8505 26.4361 54.0212 28.6235ZM80.5995 20.1289C72.3522 6.54365 56.0173 -0.0569682 40.8418 4.36502C27.5611 8.23511 18.9019 16.9808 15.7533 30.4311C12.6368 43.7438 16.5159 55.1943 26.3333 64.7838C28.6357 67.0328 30.7526 69.757 32.0505 72.6639C33.3518 75.5777 33.769 76.4888 36.9385 75.7239C41.3403 74.6615 45.6833 73.3567 50.0843 72.2905C52.3404 71.7438 53.1977 70.4875 53.1827 68.2191C53.1224 59.064 53.1427 49.9082 53.1761 40.7528C53.1834 38.6804 52.5303 36.974 50.2946 36.9222C48.0314 36.8698 47.3385 38.5191 47.3575 40.6319C47.4098 46.5676 47.3733 52.5037 47.3729 58.4397C47.3726 67.9887 47.3729 67.9887 37.9585 69.3607C34.3795 65.2707 31.1205 61.5942 27.9136 57.8726C16.4039 44.516 18.5087 24.7714 32.8737 14.5452C43.1939 7.19803 54.2802 6.78921 65.3333 12.9926C75.5963 18.753 81.1797 30.6205 79.6998 42.1006C78.7112 49.7697 75.0394 55.8915 69.5933 61.154C66.3065 64.3299 63.3115 67.7493 62.2333 72.3416C61.729 74.4895 60.5215 75.5549 58.4352 76.0677C58.8251 75.7063 35.9479 82.0993 35.9479 82.0993C34.5006 82.486 33.6339 83.9835 34.0218 85.4267L34.0814 85.6499C34.4693 87.0932 35.9706 87.9578 37.4179 87.5711C37.4179 87.5711 63.6673 80.5362 64.0114 80.439C66.4423 79.7697 67.7653 78.0438 67.8207 75.5803C67.9035 71.9027 69.5057 69.0403 72.113 66.5968C73.5089 65.2885 74.8986 63.9685 76.2122 62.5797C87.0543 51.1109 88.8435 33.7096 80.5995 20.1289Z" fill="black"/>
</svg>
