<svg width="35" height="35" viewBox="0 0 35 35" fill="none" xmlns="http://www.w3.org/2000/svg">
<path fill-rule="evenodd" clip-rule="evenodd" d="M23.3944 9.25146C24.1392 9.25146 24.8535 9.54735 25.3802 10.074C25.9068 10.6006 26.2027 11.3149 26.2027 12.0597V23.2928C26.2027 24.0376 25.9068 24.7519 25.3802 25.2786C24.8535 25.8052 24.1392 26.1011 23.3944 26.1011H12.1613C11.4165 26.1011 10.7022 25.8052 10.1756 25.2786C9.6489 24.7519 9.35303 24.0376 9.35303 23.2928V12.0597C9.35303 11.3149 9.6489 10.6006 10.1756 10.074C10.7022 9.54735 11.4165 9.25146 12.1613 9.25146H23.3944ZM14.0335 15.8041C13.7852 15.8041 13.5471 15.9027 13.3716 16.0783C13.196 16.2538 13.0974 16.4919 13.0974 16.7402V21.4206C13.0974 21.6689 13.196 21.907 13.3716 22.0825C13.5471 22.2581 13.7852 22.3567 14.0335 22.3567C14.2818 22.3567 14.5199 22.2581 14.6954 22.0825C14.871 21.907 14.9696 21.6689 14.9696 21.4206V16.7402C14.9696 16.4919 14.871 16.2538 14.6954 16.0783C14.5199 15.9027 14.2818 15.8041 14.0335 15.8041ZM16.8418 14.868C16.5935 14.868 16.3554 14.9666 16.1799 15.1422C16.0043 15.3177 15.9057 15.5558 15.9057 15.8041V21.4206C15.9057 21.6689 16.0043 21.907 16.1799 22.0825C16.3554 22.2581 16.5935 22.3567 16.8418 22.3567C17.09 22.3567 17.3281 22.2581 17.5037 22.0825C17.6792 21.907 17.7779 21.6689 17.7779 21.4206V17.9945C18.0634 17.6725 18.5455 17.2943 19.0818 17.065C19.3936 16.9321 19.8625 16.8778 20.1883 16.9808C20.2964 17.0082 20.3926 17.0699 20.4626 17.1567C20.5113 17.2223 20.5861 17.3683 20.5861 17.6763V21.4206C20.5861 21.6689 20.6848 21.907 20.8603 22.0825C21.0359 22.2581 21.274 22.3567 21.5222 22.3567C21.7705 22.3567 22.0086 22.2581 22.1841 22.0825C22.3597 21.907 22.4583 21.6689 22.4583 21.4206V17.6763C22.4583 17.0491 22.2992 16.4912 21.9678 16.0437C21.6629 15.638 21.2361 15.3405 20.75 15.1947C19.9056 14.9298 18.9704 15.0767 18.3461 15.3445C18.146 15.4301 17.9513 15.5276 17.7629 15.6365C17.7237 15.4208 17.61 15.2258 17.4416 15.0853C17.2733 14.9449 17.061 14.868 16.8418 14.868ZM14.0335 12.9958C13.7852 12.9958 13.5471 13.0944 13.3716 13.27C13.196 13.4455 13.0974 13.6836 13.0974 13.9319C13.0974 14.1802 13.196 14.4183 13.3716 14.5938C13.5471 14.7694 13.7852 14.868 14.0335 14.868C14.2818 14.868 14.5199 14.7694 14.6954 14.5938C14.871 14.4183 14.9696 14.1802 14.9696 13.9319C14.9696 13.6836 14.871 13.4455 14.6954 13.27C14.5199 13.0944 14.2818 12.9958 14.0335 12.9958Z" fill="white"/>
</svg>
