<svg width="35" height="35" viewBox="0 0 35 35" fill="none" xmlns="http://www.w3.org/2000/svg">
<path d="M17.4795 23.3761C16.6971 24.1585 15.7544 24.5497 14.6515 24.5497C13.5486 24.5497 12.606 24.1585 11.8236 23.3761C11.0411 22.5937 10.6499 21.6511 10.6499 20.5481C10.6499 19.4452 11.0411 18.5026 11.8236 17.7202L13.7088 15.8349C13.8424 15.7013 13.9997 15.6347 14.1807 15.6351C14.3617 15.6353 14.5192 15.7024 14.6532 15.8364C14.7873 15.9705 14.8539 16.1275 14.853 16.3074C14.8523 16.4873 14.7851 16.644 14.6515 16.7776L12.7663 18.6629C12.2425 19.1866 11.9805 19.8148 11.9801 20.5474C11.9796 21.2802 12.2409 21.9081 12.764 22.4311C13.2871 22.9542 13.9157 23.2163 14.65 23.2173C15.3841 23.2185 16.0131 22.9572 16.5368 22.4334L18.4221 20.5481C18.5557 20.4146 18.7129 20.348 18.8939 20.3483C19.075 20.3486 19.2325 20.4157 19.3665 20.5497C19.5005 20.6837 19.5671 20.8407 19.5663 21.0207C19.5655 21.2006 19.4984 21.3573 19.3648 21.4908L17.4795 23.3761ZM16.2069 19.9353C16.0733 20.0689 15.9161 20.1355 15.7352 20.1353C15.5541 20.135 15.3966 20.0678 15.2625 19.9338C15.1286 19.7998 15.062 19.6429 15.0629 19.4629C15.0636 19.283 15.1308 19.1263 15.2644 18.9928L18.7521 15.505C18.8857 15.3714 19.0429 15.3048 19.2238 15.3051C19.4049 15.3053 19.5625 15.3725 19.6965 15.5066C19.8305 15.6405 19.897 15.7975 19.8962 15.9774C19.8954 16.1573 19.8282 16.314 19.6947 16.4476L16.2069 19.9353ZM21.2502 19.6054C21.1166 19.739 20.9593 19.8056 20.7783 19.8052C20.5974 19.805 20.4398 19.7379 20.3058 19.6039C20.1717 19.4698 20.1051 19.3128 20.106 19.1329C20.1068 18.953 20.1739 18.7963 20.3075 18.6627L22.1928 16.7775C22.7165 16.2537 22.9786 15.6255 22.9789 14.8929C22.9794 14.1602 22.7181 13.5323 22.195 13.0092C21.6719 12.4861 21.0433 12.224 20.309 12.223C19.5749 12.2219 18.946 12.4832 18.4222 13.0069L16.5369 14.8922C16.4034 15.0258 16.2461 15.0924 16.0651 15.092C15.884 15.0917 15.7265 15.0246 15.5925 14.8906C15.4585 14.7566 15.3919 14.5996 15.3927 14.4196C15.3935 14.2398 15.4607 14.083 15.5942 13.9495L17.4795 12.0642C18.2619 11.2818 19.2046 10.8906 20.3075 10.8906C21.4104 10.8906 22.3531 11.2818 23.1355 12.0642C23.9179 12.8466 24.3091 13.7893 24.3091 14.8922C24.3091 15.9951 23.9179 16.9378 23.1355 17.7202L21.2502 19.6054Z" fill="white"/>
</svg>
