<svg width="34" height="35" viewBox="0 0 34 35" fill="none" xmlns="http://www.w3.org/2000/svg">
<path d="M15.9199 10.3722C16.0889 10.3606 16.2594 10.3548 16.4314 10.3548C17.4752 10.3548 18.5078 10.5693 19.4653 10.985C20.4227 11.4007 21.2845 12.0088 21.9972 12.7715C22.7099 13.5341 23.2582 14.4351 23.6081 15.4185C23.9581 16.4019 24.1022 17.4467 24.0315 18.4881C24.022 18.6322 24.07 18.7741 24.1651 18.8826C24.2602 18.9912 24.3946 19.0576 24.5386 19.0671C24.6826 19.0766 24.8245 19.0285 24.9331 18.9334C25.0417 18.8383 25.108 18.704 25.1175 18.56C25.1306 18.3663 25.1371 18.1704 25.1371 17.9723C25.1371 16.7799 24.8922 15.6003 24.4174 14.5064C23.9427 13.4126 23.2484 12.428 22.3775 11.6136C21.5065 10.7992 20.4776 10.1723 19.3544 9.77199C18.2312 9.37163 17.0378 9.20627 15.8481 9.28616C15.7768 9.29088 15.7071 9.3096 15.643 9.34124C15.5789 9.37289 15.5217 9.41685 15.4746 9.4706C15.4275 9.52436 15.3915 9.58687 15.3686 9.65456C15.3456 9.72225 15.3362 9.79379 15.341 9.8651C15.3457 9.93641 15.3644 10.0061 15.396 10.0702C15.4277 10.1342 15.4716 10.1915 15.5254 10.2386C15.5792 10.2856 15.6417 10.3217 15.7094 10.3446C15.777 10.3675 15.8486 10.3769 15.9199 10.3722ZM15.3431 12.5182C15.3461 12.4466 15.3631 12.3763 15.3933 12.3114C15.4234 12.2464 15.4661 12.188 15.5189 12.1396C15.5717 12.0912 15.6335 12.0536 15.7008 12.0291C15.7681 12.0047 15.8396 11.9937 15.9112 11.9969C17.6112 12.071 19.2216 12.7796 20.4248 13.9829C21.6279 15.1863 22.3362 16.7969 22.41 18.4969C22.414 18.5688 22.4037 18.6407 22.3796 18.7086C22.3556 18.7765 22.3183 18.8389 22.2699 18.8923C22.2216 18.9457 22.1631 18.9889 22.0979 19.0195C22.0327 19.0501 21.9621 19.0674 21.8902 19.0705C21.8182 19.0736 21.7464 19.0624 21.6788 19.0375C21.6112 19.0126 21.5492 18.9746 21.4965 18.9256C21.4437 18.8766 21.4012 18.8176 21.3714 18.752C21.3416 18.6865 21.3251 18.6156 21.3229 18.5436C21.2606 17.1162 20.6656 15.7638 19.6554 14.7534C18.6452 13.743 17.293 13.1477 15.8655 13.0851C15.7939 13.0823 15.7236 13.0654 15.6586 13.0354C15.5936 13.0054 15.5351 12.9628 15.4866 12.9101C15.4381 12.8574 15.4004 12.7957 15.3758 12.7284C15.3512 12.6612 15.3401 12.5897 15.3431 12.5182ZM13.2091 24.938L14.4171 26.1372C14.519 26.2383 14.6566 26.2949 14.8001 26.2949C14.9436 26.2949 15.0813 26.2383 15.1832 26.1372L16.4183 24.9108L18.2639 23.0728C18.949 22.3876 19.4156 21.5147 19.6046 20.5644C19.7936 19.614 19.6966 18.629 19.3258 17.7338C18.955 16.8386 18.327 16.0735 17.5214 15.5352C16.7157 14.9969 15.7685 14.7095 14.7996 14.7095C13.8306 14.7095 12.8834 14.9969 12.0778 15.5352C11.2721 16.0735 10.6442 16.8386 10.2734 17.7338C9.90253 18.629 9.80549 19.614 9.9945 20.5644C10.1835 21.5147 10.6501 22.3876 11.3352 23.0728C11.7792 23.5168 12.5497 24.284 13.2091 24.938ZM14.799 20.8289C14.4743 20.8289 14.1629 20.6999 13.9334 20.4703C13.7038 20.2407 13.5748 19.9294 13.5748 19.6047C13.5748 19.28 13.7038 18.9686 13.9334 18.739C14.1629 18.5094 14.4743 18.3804 14.799 18.3804C15.1237 18.3804 15.4351 18.5094 15.6647 18.739C15.8943 18.9686 16.0233 19.28 16.0233 19.6047C16.0233 19.9294 15.8943 20.2407 15.6647 20.4703C15.4351 20.6999 15.1237 20.8289 14.799 20.8289Z" fill="#C25CFA"/>
</svg>
