<svg width="34" height="35" viewBox="0 0 34 35" fill="none" xmlns="http://www.w3.org/2000/svg">
<path d="M10.0632 24.7371C9.61644 24.7371 9.24374 24.5878 8.94507 24.2891C8.6464 23.9904 8.49674 23.6174 8.49609 23.17V10.7887C8.49609 10.342 8.64575 9.96933 8.94507 9.67066C9.24439 9.37199 9.61708 9.22233 10.0632 9.22168H16.2722V10.1914H10.0632C9.91381 10.1914 9.77676 10.2535 9.65199 10.3776C9.52722 10.5017 9.46516 10.6388 9.46581 10.7887V23.171C9.46581 23.3197 9.52787 23.4564 9.65199 23.5812C9.77611 23.706 9.91284 23.768 10.0622 23.7674H16.2722V24.7371H10.0632ZM20.5807 20.4112L19.8999 19.713L22.1487 17.4642H13.5308V16.4945H22.1487L19.8989 14.2448L20.5797 13.5485L24.0115 16.9794L20.5807 20.4112Z" fill="black"/>
</svg>
