<svg width="36" height="35" viewBox="0 0 36 35" fill="none" xmlns="http://www.w3.org/2000/svg">
<path d="M28.0804 12.1077V28.6381C28.0804 29.4231 28.3922 30.1759 28.9473 30.731C29.5024 31.2861 30.2552 31.5979 31.0402 31.5979C31.8252 31.5979 32.578 31.2861 33.1331 30.731C33.6882 30.1759 34 29.4231 34 28.6381V4.9598C34.0012 4.57079 33.9254 4.18538 33.7771 3.82575C33.6287 3.46613 33.4108 3.13937 33.1357 2.8643C32.8606 2.58922 32.5339 2.37125 32.1742 2.22292C31.8146 2.0746 31.4292 1.99884 31.0402 2.00001H7.36188C6.57689 2.00001 5.82406 2.31184 5.26899 2.86691C4.71392 3.42198 4.40209 4.17482 4.40209 4.9598C4.40209 5.74479 4.71392 6.49762 5.26899 7.05269C5.82406 7.60776 6.57689 7.91959 7.36188 7.91959H23.8923L3.83085 27.984C3.2917 28.5422 2.99337 29.2899 3.00011 30.0659C3.00686 30.842 3.31813 31.5843 3.8669 32.1331C4.41567 32.6819 5.15802 32.9931 5.93407 32.9999C6.71012 33.0066 7.45777 32.7083 8.01599 32.1692L28.0804 12.1077Z" fill="black"/>
</svg>
