<svg width="35" height="35" viewBox="0 0 35 35" fill="none" xmlns="http://www.w3.org/2000/svg">
<path d="M11.9083 22.6335V15.5251C11.9083 14.2682 12.4075 13.0629 13.2963 12.1741C14.185 11.2854 15.3904 10.7861 16.6472 10.7861C17.9041 10.7861 19.1094 11.2854 19.9982 12.1741C20.8869 13.0629 21.3862 14.2682 21.3862 15.5251V22.6335M11.9083 22.6335H21.3862M11.9083 22.6335H10.3286M21.3862 22.6335H22.9658M15.8574 25.003H17.437" stroke="black" stroke-width="1.07367" stroke-linecap="round" stroke-linejoin="round"/>
<path d="M16.6472 10.7862C17.0834 10.7862 17.437 10.4326 17.437 9.99637C17.437 9.56016 17.0834 9.20654 16.6472 9.20654C16.211 9.20654 15.8574 9.56016 15.8574 9.99637C15.8574 10.4326 16.211 10.7862 16.6472 10.7862Z" stroke="black" stroke-width="1.07367"/>
</svg>
