<svg width="35" height="35" viewBox="0 0 35 35" fill="none" xmlns="http://www.w3.org/2000/svg">
<path d="M16.3732 25.8538C16.6431 26.1238 17.0807 26.1238 17.3506 25.8538L19.208 23.9965H21.8344C22.2161 23.9965 22.5256 23.687 22.5256 23.3053V20.6789L24.3822 18.8223C24.6521 18.5524 24.6521 18.1148 24.3822 17.8449L22.5256 15.9882V13.3612C22.5256 12.9795 22.2161 12.67 21.8344 12.67H19.2074L17.3506 10.8133C17.0807 10.5434 16.6431 10.5434 16.3732 10.8133L14.5164 12.67H11.8903C11.5086 12.67 11.1991 12.9795 11.1991 13.3612V15.9874L9.34159 17.8449C9.07168 18.1148 9.07168 18.5524 9.34159 18.8223L11.1991 20.6798V23.3053C11.1991 23.687 11.5086 23.9965 11.8903 23.9965H14.5158L16.3732 25.8538Z" stroke="#A454EB" stroke-width="1.03672" stroke-linecap="round" stroke-linejoin="round"/>
<path d="M19.7504 15.6929L14.2212 21.222" stroke="#A454EB" stroke-width="0.691145"/>
<path d="M18.815 21.3239C19.3876 21.3239 19.8518 20.8598 19.8518 20.2872C19.8518 19.7146 19.3876 19.2505 18.815 19.2505C18.2425 19.2505 17.7783 19.7146 17.7783 20.2872C17.7783 20.8598 18.2425 21.3239 18.815 21.3239Z" stroke="#A454EB" stroke-width="0.691145"/>
<path d="M16.0504 17.1765C16.623 17.1765 17.0871 16.7123 17.0871 16.1397C17.0871 15.5672 16.623 15.103 16.0504 15.103C15.4778 15.103 15.0137 15.5672 15.0137 16.1397C15.0137 16.7123 15.4778 17.1765 16.0504 17.1765Z" stroke="#A454EB" stroke-width="0.691145"/>
</svg>
