<svg width="35" height="35" viewBox="0 0 35 35" fill="none" xmlns="http://www.w3.org/2000/svg">
<path d="M17.5001 11C18.3285 11 19 10.3284 19 9.5C19 8.67158 18.3285 8 17.5001 8C16.6717 8 16 8.67158 16 9.5C16 10.3284 16.6717 11 17.5001 11Z" fill="black"/>
<path d="M19 17.4916C19.0017 17.789 18.9149 18.0802 18.7507 18.3281C18.5865 18.576 18.3524 18.7696 18.078 18.8842C17.8035 18.9988 17.5012 19.0292 17.2094 18.9716C16.9177 18.914 16.6496 18.7709 16.4393 18.5606C16.2291 18.3503 16.086 18.0823 16.0284 17.7905C15.9708 17.4988 16.0012 17.1965 16.1158 16.9221C16.2303 16.6477 16.4239 16.4135 16.6719 16.2493C16.9199 16.0851 17.2111 15.9984 17.5085 16C17.9033 16.0022 18.2814 16.1601 18.5607 16.4394C18.8399 16.7186 18.9978 17.0967 19 17.4916Z" fill="black"/>
<path d="M19 25.4916C19.0017 25.789 18.9149 26.0802 18.7507 26.3281C18.5865 26.576 18.3524 26.7696 18.078 26.8842C17.8035 26.9988 17.5012 27.0292 17.2094 26.9716C16.9177 26.914 16.6496 26.7709 16.4393 26.5606C16.2291 26.3504 16.086 26.0823 16.0284 25.7905C15.9708 25.4988 16.0012 25.1965 16.1158 24.9221C16.2303 24.6476 16.4239 24.4135 16.6719 24.2493C16.9199 24.0851 17.2111 23.9983 17.5085 24C17.904 24 18.2834 24.1571 18.5631 24.4369C18.8428 24.7166 19 25.096 19 25.4916Z" fill="black"/>
</svg>
