<svg width="35" height="35" viewBox="0 0 35 35" fill="none" xmlns="http://www.w3.org/2000/svg">
<path d="M18.5068 10.626C18.3673 10.626 18.2539 10.7394 18.2539 10.8791C18.2539 10.8921 18.2594 10.9034 18.2613 10.916H18.2539V16.9179C18.2539 17.0577 18.3673 17.1711 18.5068 17.1711H24.5086V17.1636C24.5212 17.1655 24.5324 17.1711 24.5456 17.1711C24.6852 17.1711 24.7986 17.0577 24.7986 16.9179C24.7627 13.4586 21.9662 10.6621 18.5068 10.626Z" fill="#A454EB"/>
<path d="M23.3357 18.3753C23.3357 18.2356 23.2225 18.1222 23.0827 18.1222H17.5655C17.4984 18.1221 17.4341 18.0954 17.3866 18.0479C17.3392 18.0005 17.3126 17.9361 17.3126 17.869V12.372H17.3051C17.307 12.3594 17.3126 12.3482 17.3126 12.3352C17.3126 12.1952 17.1991 12.082 17.0594 12.082C17.0533 12.082 17.0483 12.0851 17.0424 12.0855V12.0837C17.0199 12.0836 16.9975 12.082 16.975 12.082C13.4622 12.082 10.6143 14.9299 10.6143 18.4427C10.6143 21.9555 13.4622 24.8034 16.975 24.8034C20.4878 24.8034 23.3357 21.9555 23.3357 18.4427C23.3357 18.4225 23.3347 18.4024 23.3344 18.382C23.3344 18.3795 23.3357 18.3776 23.3357 18.3753Z" fill="black"/>
</svg>
