<svg width="34" height="35" viewBox="0 0 34 35" fill="none" xmlns="http://www.w3.org/2000/svg">
<path d="M26.4011 18.0857C26.404 19.8489 25.8796 21.5726 24.8952 23.0355C24.0834 24.2462 22.9858 25.2383 21.6995 25.924C20.4131 26.6097 18.9776 26.9679 17.5199 26.9669C16.0622 26.9679 14.6267 26.6097 13.3403 25.924C12.0539 25.2383 10.9563 24.2462 10.1445 23.0355C9.3716 21.8833 8.87935 20.5661 8.70726 19.1894C8.53517 17.8127 8.68801 16.4148 9.15353 15.1078C9.61906 13.8008 10.3843 12.6211 11.388 11.6632C12.3916 10.7052 13.6057 9.99577 14.933 9.59164C16.2602 9.18752 17.6637 9.09998 19.0309 9.33603C20.3981 9.57208 21.691 10.1252 22.8059 10.9509C23.9208 11.7767 24.8267 12.8522 25.451 14.0912C26.0754 15.3302 26.4008 16.6983 26.4011 18.0857Z" stroke="black" stroke-width="0.9868"/>
<path d="M18.9997 15.1257C18.9997 15.5183 18.8438 15.8948 18.5662 16.1724C18.2886 16.4499 17.9121 16.6059 17.5195 16.6059V17.5927C17.8435 17.5927 18.1643 17.5289 18.4636 17.4049C18.7629 17.2809 19.0349 17.0992 19.264 16.8701C19.493 16.641 19.6748 16.3691 19.7987 16.0698C19.9227 15.7705 19.9865 15.4497 19.9865 15.1257H18.9997ZM17.5195 16.6059C17.127 16.6059 16.7505 16.4499 16.4729 16.1724C16.1953 15.8948 16.0393 15.5183 16.0393 15.1257H15.0525C15.0525 15.4497 15.1163 15.7705 15.2403 16.0698C15.3643 16.3691 15.546 16.641 15.7751 16.8701C16.2377 17.3328 16.8652 17.5927 17.5195 17.5927V16.6059ZM16.0393 15.1257C16.0393 14.7331 16.1953 14.3566 16.4729 14.079C16.7505 13.8014 17.127 13.6455 17.5195 13.6455V12.6587C16.8652 12.6587 16.2377 12.9186 15.7751 13.3813C15.3124 13.8439 15.0525 14.4714 15.0525 15.1257H16.0393ZM17.5195 13.6455C17.9121 13.6455 18.2886 13.8014 18.5662 14.079C18.8438 14.3566 18.9997 14.7331 18.9997 15.1257H19.9865C19.9865 14.4714 19.7266 13.8439 19.264 13.3813C18.8013 12.9186 18.1738 12.6587 17.5195 12.6587V13.6455ZM10.7757 23.8648L10.3021 23.7247L10.2261 23.9822L10.4008 24.1865L10.7757 23.8648ZM24.2633 23.8648L24.6383 24.1865L24.813 23.9822L24.736 23.7247L24.2633 23.8648ZM14.5591 21.5399H20.4799V20.5531H14.5591V21.5399ZM14.5591 20.5531C13.6029 20.5533 12.6722 20.862 11.9054 21.4334C11.1386 22.0048 10.5757 22.8084 10.3021 23.7247L11.2484 24.0059C11.4614 23.2933 11.8986 22.6685 12.4951 22.2242C13.0915 21.7799 13.8154 21.54 14.5591 21.5399V20.5531ZM17.5195 26.4739C16.309 26.4752 15.1126 26.2138 14.0129 25.7078C12.9131 25.2018 11.9363 24.4633 11.1497 23.5431L10.4008 24.1865C11.28 25.2145 12.3718 26.0396 13.6008 26.6048C14.8298 27.1701 16.1668 27.4621 17.5195 27.4607V26.4739ZM20.4799 21.5399C21.2238 21.54 21.9477 21.7802 22.5442 22.2246C23.1407 22.6691 23.5778 23.2941 23.7906 24.0069L24.736 23.7247C24.4624 22.8084 23.9005 22.0048 23.1337 21.4334C22.3669 20.862 21.4362 20.5533 20.4799 20.5531V21.5399ZM23.8893 23.5431C23.1028 24.4633 22.1259 25.2018 21.0262 25.7078C19.9265 26.2138 18.7301 26.4752 17.5195 26.4739V27.4607C18.8723 27.4621 20.2092 27.1701 21.4382 26.6048C22.6672 26.0396 23.759 25.2145 24.6383 24.1865L23.8893 23.5431Z" fill="black"/>
</svg>
