<svg width="35" height="35" viewBox="0 0 35 35" fill="none" xmlns="http://www.w3.org/2000/svg">
<path fill-rule="evenodd" clip-rule="evenodd" d="M22.4465 10.1602C23.0514 10.1602 23.6315 10.4004 24.0593 10.8282C24.487 11.2559 24.7273 11.836 24.7273 12.4409V24.6047C24.7272 24.7478 24.6866 24.8881 24.6103 25.0093C24.534 25.1304 24.4251 25.2276 24.296 25.2896C24.1669 25.3515 24.0229 25.3758 23.8807 25.3595C23.7384 25.3432 23.6036 25.2871 23.4919 25.1976L22.0664 24.0573L20.641 25.1976C20.4949 25.3146 20.3109 25.3737 20.1241 25.3634C19.9372 25.3532 19.7607 25.2744 19.6283 25.1421L18.6454 24.1592L17.6624 25.1421C17.5301 25.2745 17.3536 25.3534 17.1668 25.3638C16.98 25.3742 16.7959 25.3153 16.6497 25.1984L15.2243 24.0573L13.7988 25.1976C13.6871 25.2871 13.5523 25.3432 13.41 25.3595C13.2678 25.3758 13.1238 25.3515 12.9947 25.2896C12.8656 25.2276 12.7567 25.1304 12.6804 25.0093C12.6041 24.8881 12.5636 24.7478 12.5635 24.6047V12.4409C12.5635 11.836 12.8038 11.2559 13.2315 10.8282C13.6592 10.4004 14.2393 10.1602 14.8442 10.1602H22.4465ZM18.6454 17.7625H16.3646C16.163 17.7625 15.9697 17.8426 15.8271 17.9852C15.6845 18.1278 15.6044 18.3211 15.6044 18.5228C15.6044 18.7244 15.6845 18.9178 15.8271 19.0603C15.9697 19.2029 16.163 19.283 16.3646 19.283H18.6454C18.847 19.283 19.0404 19.2029 19.1829 19.0603C19.3255 18.9178 19.4056 18.7244 19.4056 18.5228C19.4056 18.3211 19.3255 18.1278 19.1829 17.9852C19.0404 17.8426 18.847 17.7625 18.6454 17.7625ZM20.9261 14.7216H16.3646C16.1709 14.7218 15.9845 14.796 15.8436 14.929C15.7027 15.062 15.6179 15.2438 15.6066 15.4373C15.5952 15.6307 15.6581 15.8212 15.7825 15.9698C15.9069 16.1184 16.0833 16.2138 16.2757 16.2367L16.3646 16.2421H20.9261C21.1198 16.2418 21.3062 16.1676 21.4471 16.0346C21.588 15.9016 21.6728 15.7198 21.6842 15.5264C21.6955 15.3329 21.6326 15.1425 21.5082 14.9939C21.3838 14.8453 21.2074 14.7498 21.015 14.7269L20.9261 14.7216Z" fill="black"/>
</svg>
