<svg width="34" height="35" viewBox="0 0 34 35" fill="none" xmlns="http://www.w3.org/2000/svg">
<path d="M19.2194 13.7365C19.6886 13.8076 20.1173 13.9736 20.5057 14.2345C20.894 14.4954 21.2065 14.8308 21.4431 15.2406C21.7123 15.7069 21.8513 16.2056 21.8602 16.7367C21.8691 17.2677 21.7434 17.7703 21.4832 18.2443C21.4465 18.3149 21.4337 18.3906 21.4448 18.4713C21.456 18.5521 21.4965 18.612 21.5664 18.6512C21.6364 18.6904 21.7098 18.7002 21.7867 18.6806C21.8635 18.6609 21.9224 18.6156 21.9632 18.5448C22.2708 17.9821 22.4225 17.3841 22.4183 16.7508C22.4141 16.1175 22.2513 15.5226 21.93 14.9659C21.661 14.5001 21.3092 14.1144 20.8747 13.8089C20.4402 13.5034 19.9588 13.3031 19.4305 13.208L20.3308 12.6882C20.3994 12.6486 20.4435 12.5921 20.463 12.5188C20.4825 12.4454 20.4724 12.3743 20.4327 12.3055C20.393 12.2367 20.3366 12.1927 20.2636 12.1735C20.1907 12.1543 20.12 12.1645 20.0514 12.2041L18.5219 13.0872C18.4533 13.1268 18.4092 13.1831 18.3896 13.2563C18.37 13.3295 18.3799 13.4004 18.4195 13.4689L19.3026 14.9985C19.3422 15.0671 19.3987 15.1111 19.472 15.1306C19.5454 15.1501 19.6164 15.14 19.6852 15.1003C19.754 15.0605 19.7981 15.0042 19.8173 14.9313C19.8365 14.8584 19.8263 14.7876 19.7867 14.719L19.2194 13.7365Z" fill="white"/>
<path d="M14.1467 22.808C13.6775 22.7368 13.2488 22.5708 12.8604 22.3099C12.4721 22.049 12.1596 21.7136 11.923 21.3038C11.6538 20.8375 11.5147 20.3389 11.5059 19.8078C11.497 19.2767 11.6227 18.7741 11.8829 18.3002C11.9196 18.2295 11.9324 18.1538 11.9212 18.0731C11.9101 17.9924 11.8696 17.9324 11.7997 17.8932C11.7297 17.854 11.6563 17.8442 11.5794 17.8638C11.5026 17.8835 11.4437 17.9288 11.4029 17.9997C11.0953 18.5624 10.9436 19.1603 10.9478 19.7936C10.952 20.4269 11.1148 21.0218 11.4361 21.5785C11.7051 22.0444 12.0569 22.4301 12.4914 22.7356C12.9259 23.041 13.4073 23.2413 13.9356 23.3365L13.0352 23.8563C12.9667 23.8959 12.9226 23.9523 12.9031 24.0257C12.8836 24.099 12.8937 24.1701 12.9334 24.2389C12.9731 24.3077 13.0295 24.3517 13.1025 24.3709C13.1754 24.3901 13.2461 24.3799 13.3147 24.3403L14.8442 23.4573C14.9128 23.4177 14.9569 23.3613 14.9765 23.2882C14.9961 23.2149 14.9861 23.1441 14.9466 23.0755L14.0635 21.5459C14.0239 21.4774 13.9674 21.4333 13.8941 21.4138C13.8207 21.3943 13.7497 21.4045 13.6809 21.4442C13.6121 21.4839 13.568 21.5402 13.5488 21.6131C13.5296 21.6861 13.5398 21.7568 13.5794 21.8254L14.1467 22.808Z" fill="white"/>
<path d="M11.6571 15.8369C11.9869 15.6152 12.325 15.4452 12.6716 15.3269C13.0181 15.2086 13.3898 15.1494 13.7866 15.1494C14.1834 15.1494 14.556 15.2086 14.9044 15.3269C15.2528 15.4452 15.5919 15.6152 15.9217 15.8369C16.1508 15.5593 16.318 15.2696 16.4233 14.9678C16.5285 14.666 16.5812 14.3465 16.5812 14.0093C16.5812 13.2212 16.3124 12.5584 15.775 12.0209C15.2375 11.4834 14.5747 11.2147 13.7866 11.2147C12.9985 11.2147 12.3357 11.4834 11.7982 12.0209C11.2608 12.5584 10.992 13.2212 10.992 14.0093C10.992 14.3465 11.0456 14.666 11.1527 14.9678C11.2598 15.2696 11.428 15.5593 11.6571 15.8369ZM13.7856 14.2887C13.4602 14.2887 13.1862 14.177 12.9636 13.9538C12.741 13.7304 12.6296 13.4561 12.6296 13.1307C12.6296 12.8054 12.7413 12.5314 12.9647 12.3088C13.1879 12.0861 13.4623 11.9748 13.7876 11.9748C14.113 11.9748 14.387 12.0864 14.6096 12.3098C14.8322 12.5331 14.9436 12.8075 14.9436 13.1328C14.9436 13.4582 14.8319 13.7321 14.6085 13.9548C14.3853 14.1774 14.1109 14.2887 13.7856 14.2887ZM13.7843 17.3628C13.3199 17.3628 12.8834 17.2747 12.475 17.0987C12.0665 16.9226 11.7111 16.6827 11.409 16.3791C11.1068 16.0754 10.8686 15.7198 10.6944 15.3124C10.5202 14.905 10.4331 14.4697 10.4331 14.0065C10.4331 13.5433 10.5211 13.1079 10.6972 12.7005C10.8733 12.2931 11.1131 11.9385 11.4168 11.6367C11.7205 11.3348 12.076 11.0959 12.4834 10.9198C12.8908 10.7438 13.3261 10.6558 13.7894 10.6558C14.2526 10.6558 14.6879 10.7438 15.0954 10.9198C15.5028 11.0959 15.8574 11.3348 16.1592 11.6367C16.461 11.9385 16.6999 12.2934 16.876 12.7014C17.0521 13.1094 17.1401 13.5449 17.1401 14.0077C17.1401 14.4707 17.0521 14.9057 16.876 15.3128C16.6999 15.72 16.461 16.0754 16.1592 16.3791C15.8574 16.6827 15.5022 16.9226 15.0937 17.0987C14.6853 17.2747 14.2488 17.3628 13.7843 17.3628Z" fill="white"/>
<path d="M17.0892 24.0864C17.4189 23.8647 17.7571 23.6947 18.1036 23.5764C18.4501 23.4581 18.8218 23.399 19.2187 23.399C19.6155 23.399 19.9881 23.4581 20.3365 23.5764C20.6849 23.6947 21.024 23.8647 21.3537 24.0864C21.5829 23.8088 21.7501 23.5191 21.8553 23.2173C21.9606 22.9155 22.0132 22.596 22.0132 22.2588C22.0132 21.4707 21.7445 20.8079 21.207 20.2704C20.6695 19.7329 20.0067 19.4642 19.2187 19.4642C18.4306 19.4642 17.7678 19.7329 17.2303 20.2704C16.6928 20.8079 16.4241 21.4707 16.4241 22.2588C16.4241 22.596 16.4776 22.9155 16.5847 23.2173C16.6919 23.5191 16.86 23.8088 17.0892 24.0864ZM19.2176 22.5382C18.8923 22.5382 18.6183 22.4266 18.3956 22.2033C18.173 21.9799 18.0617 21.7056 18.0617 21.3802C18.0617 21.0549 18.1734 20.7809 18.3967 20.5583C18.62 20.3356 18.8943 20.2243 19.2197 20.2243C19.545 20.2243 19.819 20.336 20.0417 20.5593C20.2643 20.7826 20.3756 21.057 20.3756 21.3823C20.3756 21.7077 20.2639 21.9817 20.0406 22.2043C19.8173 22.4269 19.543 22.5382 19.2176 22.5382ZM19.2164 25.6123C18.7519 25.6123 18.3155 25.5242 17.907 25.3482C17.4985 25.1721 17.1432 24.9323 16.841 24.6286C16.5388 24.3249 16.3006 23.9693 16.1265 23.5619C15.9523 23.1545 15.8652 22.7192 15.8652 22.256C15.8652 21.7928 15.9532 21.3574 16.1292 20.95C16.3053 20.5426 16.5452 20.188 16.8488 19.8862C17.1525 19.5844 17.5081 19.3454 17.9155 19.1694C18.3229 18.9933 18.7582 18.9053 19.2214 18.9053C19.6846 18.9053 20.12 18.9933 20.5274 19.1694C20.9348 19.3454 21.2894 19.5844 21.5912 19.8862C21.8931 20.188 22.132 20.5429 22.3081 20.9509C22.4841 21.3589 22.5721 21.7944 22.5721 22.2573C22.5721 22.7202 22.4841 23.1552 22.3081 23.5624C22.132 23.9695 21.8931 24.3249 21.5912 24.6286C21.2894 24.9323 20.9343 25.1721 20.5258 25.3482C20.1173 25.5242 19.6808 25.6123 19.2164 25.6123Z" fill="white"/>
</svg>
