<svg width="34" height="35" viewBox="0 0 34 35" fill="none" xmlns="http://www.w3.org/2000/svg">
<path d="M15.941 16.2929C15.1628 16.2929 14.4973 16.0165 13.9443 15.4635C13.3914 14.9106 13.1149 14.245 13.1149 13.4667C13.1149 12.6803 13.3914 12.0127 13.9443 11.4639C14.4973 10.9151 15.1628 10.6406 15.941 10.6406C16.7274 10.6406 17.395 10.9151 17.9439 11.4639C18.4927 12.0127 18.7671 12.6803 18.7671 13.4667C18.7671 14.245 18.4927 14.9106 17.9439 15.4635C17.395 16.0165 16.7274 16.2929 15.941 16.2929ZM23.8664 24.587L21.7898 22.5104C21.5154 22.6987 21.2287 22.8359 20.9298 22.9219C20.6307 23.0079 20.3194 23.0509 19.9959 23.0509C19.1071 23.0509 18.3525 22.7407 17.732 22.1202C17.1114 21.4996 16.8012 20.745 16.8012 19.8563C16.8012 18.9675 17.1114 18.2129 17.732 17.5923C18.3525 16.9718 19.1071 16.6616 19.9959 16.6616C20.8846 16.6616 21.6393 16.9718 22.2598 17.5923C22.8803 18.2129 23.1906 18.9675 23.1906 19.8563C23.1906 20.1798 23.1476 20.4911 23.0616 20.7902C22.9755 21.0891 22.8383 21.3758 22.65 21.6502L24.7266 23.7268C24.8453 23.8456 24.9047 23.989 24.9047 24.1568C24.9047 24.3248 24.8453 24.4682 24.7266 24.587C24.6078 24.7057 24.4644 24.7651 24.2964 24.7651C24.1286 24.7651 23.9853 24.7057 23.8664 24.587ZM19.9959 21.8223C20.5529 21.8223 21.0198 21.6339 21.3967 21.257C21.7735 20.8802 21.9619 20.4132 21.9619 19.8563C21.9619 19.2993 21.7735 18.8323 21.3967 18.4555C21.0198 18.0786 20.5529 17.8902 19.9959 17.8902C19.4389 17.8902 18.972 18.0786 18.5951 18.4555C18.2182 18.8323 18.0298 19.2993 18.0298 19.8563C18.0298 20.4132 18.2182 20.8802 18.5951 21.257C18.972 21.6339 19.4389 21.8223 19.9959 21.8223ZM11.2718 22.4366C10.9318 22.4366 10.642 22.3168 10.4024 22.0772C10.1628 21.8376 10.043 21.5478 10.043 21.2078V20.5996C10.043 20.1572 10.1495 19.7702 10.3624 19.4384C10.5755 19.1067 10.8786 18.8404 11.2718 18.6398C11.8083 18.3735 12.4626 18.1288 13.2347 17.9057C14.0068 17.6824 14.8208 17.5565 15.6769 17.5278C15.7998 17.5237 15.8919 17.5769 15.9534 17.6874C16.0148 17.798 16.0188 17.9107 15.9655 18.0255C15.8304 18.3162 15.7311 18.6142 15.6677 18.9194C15.6041 19.2245 15.5724 19.5306 15.5724 19.8378C15.5724 20.1819 15.6123 20.527 15.6922 20.8731C15.7721 21.2191 15.8919 21.5478 16.0516 21.8592C16.1171 21.9984 16.1171 22.1294 16.0516 22.2523C15.9861 22.3752 15.8796 22.4366 15.7322 22.4366H11.2718Z" fill="white"/>
</svg>
