<svg width="34" height="35" viewBox="0 0 34 35" fill="none" xmlns="http://www.w3.org/2000/svg">
<path d="M22.8383 24.5042L18.488 20.1539C18.1427 20.4301 17.7456 20.6487 17.2968 20.8099C16.848 20.971 16.3703 21.0515 15.864 21.0515C14.6095 21.0515 13.5479 20.617 12.6793 19.7478C11.8106 18.8787 11.376 17.8171 11.3755 16.5631C11.3751 15.3091 11.8097 14.2476 12.6793 13.3784C13.5489 12.5093 14.6104 12.0747 15.864 12.0747C17.1175 12.0747 18.1793 12.5093 19.0494 13.3784C19.9194 14.2476 20.3538 15.3091 20.3524 16.5631C20.3524 17.0695 20.2718 17.5471 20.1107 17.996C19.9496 18.4448 19.7309 18.8419 19.4547 19.1871L23.805 23.5374L22.8383 24.5042ZM15.864 19.6705C16.7271 19.6705 17.4609 19.3685 18.0654 18.7645C18.6698 18.1605 18.9718 17.4267 18.9713 16.5631C18.9709 15.6995 18.6689 14.9659 18.0654 14.3624C17.4618 13.7589 16.728 13.4567 15.864 13.4558C14.9999 13.4548 14.2663 13.7571 13.6633 14.3624C13.0602 14.9678 12.758 15.7013 12.7566 16.5631C12.7552 17.4249 13.0574 18.1587 13.6633 18.7645C14.2691 19.3703 15.0026 19.6723 15.864 19.6705Z" fill="#DA0AEA"/>
</svg>
