<svg width="34" height="35" viewBox="0 0 34 35" fill="none" xmlns="http://www.w3.org/2000/svg">
<path d="M16.995 16.0497C16.4996 16.0497 16.0357 16.2419 15.6844 16.5932C15.3348 16.9444 15.1409 17.4084 15.1409 17.9038C15.1409 18.3992 15.3348 18.8631 15.6844 19.2144C16.0357 19.564 16.4996 19.7578 16.995 19.7578C17.4904 19.7578 17.9543 19.564 18.3056 19.2144C18.6552 18.8631 18.849 18.3992 18.849 17.9038C18.849 17.4084 18.6552 16.9444 18.3056 16.5932C18.134 16.4203 17.9298 16.2832 17.7048 16.1899C17.4798 16.0966 17.2386 16.049 16.995 16.0497ZM23.8263 19.9517L22.7427 19.0255C22.7941 18.7107 22.8206 18.3892 22.8206 18.0695C22.8206 17.7497 22.7941 17.4266 22.7427 17.1135L23.8263 16.1873C23.9082 16.1172 23.9668 16.0238 23.9943 15.9197C24.0218 15.8155 24.017 15.7054 23.9804 15.604L23.9655 15.561C23.6673 14.727 23.2204 13.954 22.6466 13.2794L22.6168 13.2446C22.5471 13.1627 22.4542 13.1038 22.3504 13.0757C22.2466 13.0476 22.1367 13.0516 22.0352 13.0872L20.6898 13.5661C20.1928 13.1585 19.6394 12.837 19.0396 12.6134L18.7795 11.2067C18.7598 11.1007 18.7084 11.0032 18.6321 10.9272C18.5557 10.8511 18.458 10.8001 18.352 10.7809L18.3072 10.7726C17.4457 10.6168 16.5377 10.6168 15.6761 10.7726L15.6314 10.7809C15.5253 10.8001 15.4276 10.8511 15.3513 10.9272C15.2749 11.0032 15.2235 11.1007 15.2039 11.2067L14.9421 12.62C14.348 12.8454 13.7945 13.1661 13.3035 13.5694L11.9481 13.0872C11.8467 13.0513 11.7367 13.0472 11.6328 13.0753C11.5289 13.1034 11.4361 13.1625 11.3666 13.2446L11.3367 13.2794C10.7639 13.9548 10.3172 14.7276 10.0179 15.561L10.003 15.604C9.92844 15.8111 9.98975 16.0431 10.1571 16.1873L11.2539 17.1234C11.2025 17.4349 11.1777 17.753 11.1777 18.0678C11.1777 18.3859 11.2025 18.7041 11.2539 19.0122L10.1604 19.9484C10.0785 20.0184 10.0199 20.1118 9.99244 20.216C9.96491 20.3201 9.96975 20.4302 10.0063 20.5316L10.0212 20.5747C10.3211 21.4081 10.7635 22.1785 11.3401 22.8562L11.3699 22.891C11.4396 22.9729 11.5324 23.0318 11.6362 23.0599C11.7401 23.088 11.85 23.084 11.9515 23.0484L13.3068 22.5662C13.8005 22.9722 14.3506 23.2936 14.9454 23.5156L15.2072 24.929C15.2268 25.0349 15.2783 25.1324 15.3546 25.2085C15.431 25.2845 15.5286 25.3356 15.6347 25.3548L15.6794 25.3631C16.5495 25.5196 17.4405 25.5196 18.3106 25.3631L18.3553 25.3548C18.4613 25.3356 18.559 25.2845 18.6354 25.2085C18.7117 25.1324 18.7631 25.0349 18.7828 24.929L19.0429 23.5223C19.6427 23.2969 20.1961 22.9771 20.6931 22.5696L22.0385 23.0484C22.14 23.0843 22.25 23.0884 22.3538 23.0603C22.4577 23.0322 22.5506 22.9731 22.6201 22.891L22.6499 22.8562C23.2265 22.1752 23.6689 21.4081 23.9688 20.5747L23.9837 20.5316C24.055 20.3261 23.9937 20.0958 23.8263 19.9517ZM16.995 20.8166C15.3862 20.8166 14.0822 19.5126 14.0822 17.9038C14.0822 16.295 15.3862 14.991 16.995 14.991C18.6038 14.991 19.9078 16.295 19.9078 17.9038C19.9078 19.5126 18.6038 20.8166 16.995 20.8166Z" fill="#F8F9FB"/>
</svg>
