<svg width="46" height="39" viewBox="0 0 46 39" fill="none" xmlns="http://www.w3.org/2000/svg">
<g filter="url(#filter0_d_192_223)">
<path d="M11.3232 0C6.24538 0 2 4.24698 2 9.32316V25.9631C2 31.0376 6.24698 35.2846 11.3232 35.2846H34.3784C39.453 35.2846 43.7 31.0376 43.7 25.9615V9.32316C43.7 4.24859 39.453 0 34.3768 0H11.3232ZM11.3232 3.20769H34.3784C37.6423 3.20769 40.4923 6.05773 40.4923 9.32316V11.2269H30.8692C29.9791 11.2269 29.2654 10.5132 29.2654 9.62308C29.2654 8.73294 29.9791 8.01923 30.8692 8.01923C31.2946 8.01923 31.7025 7.85025 32.0033 7.54947C32.3041 7.24869 32.4731 6.84075 32.4731 6.41538C32.4731 5.99002 32.3041 5.58207 32.0033 5.28129C31.7025 4.98051 31.2946 4.81154 30.8692 4.81154C28.2309 4.81154 26.0577 6.98475 26.0577 9.62308C26.0577 11.6952 27.4113 13.4627 29.2654 14.1347V22.1026C27.344 23.4081 26.0577 25.599 26.0577 28.0673C26.0577 29.5477 26.5276 30.9238 27.3103 32.0769H18.3913C19.202 30.8966 19.638 29.4992 19.6423 28.0673C19.6423 25.6006 18.356 23.4081 16.4346 22.1026V14.1331C18.2887 13.4627 19.6423 11.6952 19.6423 9.62308C19.6423 6.98475 17.4691 4.81154 14.8308 4.81154H11.6231C11.5729 4.80917 11.5225 4.80917 11.4723 4.81154C11.4226 4.80923 11.3729 4.80923 11.3232 4.81154C10.8978 4.85131 10.5056 5.05843 10.233 5.38733C9.96033 5.71623 9.8295 6.13998 9.86927 6.56534C9.90904 6.99071 10.1162 7.38286 10.4451 7.65551C10.774 7.92817 11.1977 8.059 11.6231 8.01923H14.8308C15.7209 8.01923 16.4346 8.73294 16.4346 9.62308C16.4346 10.5132 15.7209 11.2269 14.8308 11.2269H5.20769V9.32155C5.20769 6.05773 8.05773 3.20769 11.3232 3.20769ZM5.20769 14.4346H13.2269V20.85H5.20769V14.4346ZM32.4731 14.4346H40.4923V20.85H32.4731V14.4346ZM5.20769 24.0577H12.425C14.5726 24.0577 16.4346 25.9198 16.4346 28.0673C16.4346 30.2149 14.5726 32.0769 12.425 32.0769H11.3216C8.05773 32.0769 5.20769 29.2269 5.20769 25.9615V24.0577ZM33.275 24.0577H40.4923V25.9631C40.4923 29.2269 37.6423 32.0769 34.3768 32.0769H33.275C31.1275 32.0769 29.2654 30.2149 29.2654 28.0673C29.2654 25.9198 31.1275 24.0577 33.275 24.0577Z" fill="#F8F8F8"/>
</g>
<defs>
<filter id="filter0_d_192_223" x="0.61" y="0" width="44.4802" height="38.0647" filterUnits="userSpaceOnUse" color-interpolation-filters="sRGB">
<feFlood flood-opacity="0" result="BackgroundImageFix"/>
<feColorMatrix in="SourceAlpha" type="matrix" values="0 0 0 0 0 0 0 0 0 0 0 0 0 0 0 0 0 0 127 0" result="hardAlpha"/>
<feOffset dy="1.39"/>
<feGaussianBlur stdDeviation="0.695"/>
<feComposite in2="hardAlpha" operator="out"/>
<feColorMatrix type="matrix" values="0 0 0 0 0 0 0 0 0 0 0 0 0 0 0 0 0 0 0.25 0"/>
<feBlend mode="normal" in2="BackgroundImageFix" result="effect1_dropShadow_192_223"/>
<feBlend mode="normal" in="SourceGraphic" in2="effect1_dropShadow_192_223" result="shape"/>
</filter>
</defs>
</svg>
