<svg width="35" height="35" viewBox="0 0 35 35" fill="none" xmlns="http://www.w3.org/2000/svg">
<path d="M12.0321 27.0704C11.6076 27.0704 11.2534 26.9285 10.9696 26.6447C10.6858 26.3609 10.5436 26.0064 10.543 25.5813V13.8153C10.543 13.3908 10.6852 13.0367 10.9696 12.7528C11.2541 12.469 11.6082 12.3268 12.0321 12.3262H17.9326V13.2477H12.0321C11.8902 13.2477 11.76 13.3067 11.6414 13.4246C11.5228 13.5426 11.4639 13.6728 11.4645 13.8153V25.5822C11.4645 25.7235 10.7474 25.8534 10.8654 25.972C10.9833 26.0905 11.8893 26.9255 12.0312 26.9249H17.9326V27.0704H12.0321Z" fill="black"/>
<path d="M25.2872 25.9864C25.2872 26.4109 25.1453 26.7651 24.8615 27.0489C24.5776 27.3328 24.2232 27.475 23.798 27.4756H12.0321C11.6076 27.4756 11.2534 27.3334 10.9696 27.0489C10.6858 26.7645 10.5436 26.4103 10.543 25.9864V20.0859H11.4645V25.9864C11.4645 26.1283 11.5234 26.2586 11.6414 26.3771C11.7594 26.4957 11.8896 26.5547 12.0321 26.5541H23.799C23.9403 26.5541 24.0702 26.4951 24.1888 26.3771C24.3073 26.2592 24.3663 26.1293 24.3657 25.9873V20.0859H25.2872V25.9864Z" fill="black"/>
<path d="M25.2872 25.9864C25.2872 26.4109 25.1453 26.7651 24.8615 27.0489C24.5776 27.3328 24.2232 27.475 23.798 27.4756H12.0321C11.6076 27.4756 11.2534 27.3334 10.9696 27.0489C10.6858 26.7645 10.5436 26.4103 10.543 25.9864V20.0859H11.4645V25.9864C11.4645 26.1283 11.5234 26.2586 11.6414 26.3771C11.7594 26.4957 11.8896 26.5547 12.0321 26.5541H23.799C23.9403 26.5541 24.0702 26.4951 24.1888 26.3771C24.3073 26.2592 24.3663 26.1293 24.3657 25.9873V20.0859H25.2872V25.9864Z" stroke="black"/>
<path d="M20.8862 11.9653L23.0811 14.1602L18.1865 19.0548L19.273 20.1742L24.1841 15.2631L26.3735 17.4525V11.9653H20.8862Z" fill="black"/>
</svg>
