<svg width="101" height="100" viewBox="0 0 101 100" fill="none" xmlns="http://www.w3.org/2000/svg">
<path d="M95.2027 53.8403C94.5295 62.2989 91.4425 70.3865 86.3082 77.1422C81.1739 83.8979 74.2083 89.0378 66.2388 91.9512C58.2694 94.8646 49.6311 95.4291 41.3502 93.5776C33.0694 91.7261 25.4941 87.5364 19.5243 81.5064C13.5545 75.4763 9.44118 67.8592 7.67299 59.5602C5.9048 51.2612 6.55608 42.629 9.54945 34.6892C12.5428 26.7494 17.7525 19.8358 24.5594 14.7697C31.3664 9.70358 39.4846 6.69794 47.9495 6.10986" stroke="black" stroke-width="7.46181" stroke-linecap="round" stroke-linejoin="round"/>
<path d="M70.0419 57.7535C68.8106 60.9227 66.8087 63.7351 64.2173 65.9362C61.6259 68.1374 58.5266 69.6578 55.1999 70.3602C51.8731 71.0625 48.4238 70.9245 45.1638 69.9587C41.9038 68.9928 38.9359 67.2296 36.5286 64.8285C34.1213 62.4274 32.3505 59.4641 31.3763 56.2066C30.4021 52.9491 30.2552 49.5001 30.949 46.1716C31.6427 42.843 33.1552 39.7399 35.3497 37.1428C37.5441 34.5458 40.3513 32.5366 43.5174 31.2972M51.0179 50.3212L68.0645 33.2746M68.0645 33.2746L81.7018 36.6839L95.3391 23.0466L81.7018 19.6373L78.2925 6L64.6552 19.6373L68.0645 33.2746Z" stroke="black" stroke-width="7.46181" stroke-linecap="round" stroke-linejoin="round"/>
</svg>
