<svg width="35" height="35" viewBox="0 0 35 35" fill="none" xmlns="http://www.w3.org/2000/svg">
<path fill-rule="evenodd" clip-rule="evenodd" d="M14.7534 10.626H20.802V11.4901H23.3942V22.2911C23.3942 22.6348 23.2577 22.9645 23.0146 23.2076C22.7715 23.4507 22.4418 23.5872 22.0981 23.5872H13.4573C13.1135 23.5872 12.7838 23.4507 12.5408 23.2076C12.2977 22.9645 12.1611 22.6348 12.1611 22.2911V11.4901H14.7534V10.626ZM15.6175 11.4901H19.9379V12.7862C19.9379 12.9008 19.8924 13.0107 19.8113 13.0917C19.7303 13.1727 19.6204 13.2182 19.5058 13.2182H16.0495C15.9349 13.2182 15.825 13.1727 15.744 13.0917C15.663 13.0107 15.6175 12.9008 15.6175 12.7862V11.4901ZM17.3664 20.3314L20.6948 16.5268L20.045 15.9582L17.3249 19.0672L15.9233 17.6648L15.3116 18.2766L17.3664 20.3314Z" fill="black"/>
</svg>
