<svg width="35" height="35" viewBox="0 0 35 35" fill="none" xmlns="http://www.w3.org/2000/svg">
<path fill-rule="evenodd" clip-rule="evenodd" d="M16.7255 19.1494L16.6319 20.4917C16.7333 20.4919 16.8361 20.492 16.9403 20.492C19.5458 20.492 21.2876 20.423 22.2913 20.365C23.1266 20.3168 23.8312 19.7151 23.9317 18.8509C24.0105 18.1725 24.0854 17.1637 24.0854 15.7792C24.0854 14.3947 24.0105 13.3859 23.9317 12.7075C23.8312 11.8433 23.1266 11.2416 22.2913 11.1934C21.2876 11.1354 19.5458 11.0664 16.9403 11.0664C16.2395 11.0664 15.6012 11.0714 15.0229 11.0798C15.8114 11.5956 16.3323 12.4864 16.3323 13.4988C16.3323 14.0616 16.1713 14.5868 15.8929 15.0308C16.7352 15.0464 17.5727 15.0773 18.3814 15.1237C18.8644 15.1514 19.586 15.4494 19.7633 16.2595C19.839 16.6053 19.863 17.0577 19.7597 17.6219C19.6221 18.3743 19.001 18.84 18.3711 18.9256L16.7255 19.1494ZM13.4436 15.4752C12.3521 15.4752 11.4673 14.5903 11.4673 13.4988C11.4673 12.4073 12.3521 11.5225 13.4436 11.5225C14.5352 11.5225 15.42 12.4073 15.42 13.4988C15.42 14.5903 14.5352 15.4752 13.4436 15.4752ZM18.3291 16.0344C16.1435 15.9091 13.7419 15.8979 11.6209 16.0009C11.0199 16.0301 10.513 16.4597 10.41 17.0581C10.2863 17.776 10.1368 18.8607 10.1052 20.0448C10.0962 20.3785 10.3195 20.678 10.6655 20.725C10.8014 20.7435 10.9709 20.7621 11.1786 20.7778C11.2606 20.784 11.3228 20.8495 11.3257 20.9272L11.4403 24.0136C11.4587 24.5105 11.8219 24.9364 12.3283 24.9896C12.4183 24.999 12.5143 25.0081 12.615 25.0163C12.8731 25.0374 13.0896 24.8364 13.0993 24.583L13.2043 21.8544C13.2074 21.7727 13.2745 21.7082 13.3562 21.7082H13.5311C13.6128 21.7082 13.6799 21.7727 13.683 21.8544L13.7882 24.5875C13.7979 24.8399 14.0127 25.0405 14.2699 25.0211C14.3797 25.0127 14.4838 25.0033 14.5805 24.9935C15.0751 24.9434 15.4352 24.5356 15.469 24.0515L15.8585 18.469C15.8635 18.3971 15.9182 18.3386 15.9896 18.3289L18.2481 18.0218C18.5436 17.9816 18.8055 17.7687 18.8624 17.4578C18.9452 17.005 18.9204 16.6749 18.8722 16.4545C18.8121 16.1803 18.562 16.0478 18.3291 16.0344Z" fill="#C25CFA"/>
</svg>
