<svg width="34" height="35" viewBox="0 0 34 35" fill="none" xmlns="http://www.w3.org/2000/svg">
<path d="M16.8937 18.4803C18.6625 18.4803 20.0965 17.0464 20.0965 15.2775C20.0965 13.5087 18.6625 12.0747 16.8937 12.0747C15.1248 12.0747 13.6909 13.5087 13.6909 15.2775C13.6909 17.0464 15.1248 18.4803 16.8937 18.4803Z" fill="#C25CFA"/>
<path d="M20.8972 17.6797C22.2239 17.6797 23.2993 16.6042 23.2993 15.2776C23.2993 13.951 22.2239 12.8755 20.8972 12.8755C19.5706 12.8755 18.4951 13.951 18.4951 15.2776C18.4951 16.6042 19.5706 17.6797 20.8972 17.6797Z" fill="#C25CFA"/>
<path d="M12.8899 17.6797C14.2165 17.6797 15.292 16.6042 15.292 15.2776C15.292 13.951 14.2165 12.8755 12.8899 12.8755C11.5632 12.8755 10.4878 13.951 10.4878 15.2776C10.4878 16.6042 11.5632 17.6797 12.8899 17.6797Z" fill="#C25CFA"/>
<path fill-rule="evenodd" clip-rule="evenodd" d="M21.3533 22.4837H23.2158C23.6898 22.4837 24.0525 22.0753 23.938 21.6157C23.6425 20.4387 22.8578 18.4802 20.8977 18.4802C20.1883 18.4802 19.6326 18.7364 19.1986 19.1207C20.4061 19.903 21.0306 21.2746 21.3533 22.4837ZM14.5898 19.1207C14.1242 18.701 13.5175 18.4722 12.8907 18.4802C10.9306 18.4802 10.1459 20.4387 9.85039 21.6157C9.73589 22.0753 10.0986 22.4837 10.5726 22.4837H12.4359C12.7586 21.2746 13.3823 19.903 14.5898 19.1207Z" fill="#C25CFA"/>
<path d="M16.8941 19.2812C19.8639 19.2812 20.6302 21.9244 20.8288 23.2896C20.8928 23.7276 20.5389 24.0856 20.0969 24.0856H13.6913C13.2493 24.0856 12.8962 23.7276 12.9595 23.2896C13.158 21.9244 13.9243 19.2812 16.8941 19.2812Z" fill="#C25CFA"/>
</svg>
