<svg width="35" height="35" viewBox="0 0 35 35" fill="none" xmlns="http://www.w3.org/2000/svg">
<path d="M23.7155 15.1891C23.9348 15.311 24.1347 15.4597 24.3151 15.6352C24.4955 15.8107 24.6467 16.0057 24.7686 16.2202C24.8904 16.4348 24.9879 16.6615 25.0611 16.9004C25.1342 17.1393 25.1683 17.3879 25.1635 17.6463H24.2274C24.2274 17.3928 24.1786 17.1515 24.0811 16.9223C23.9836 16.6932 23.8495 16.4957 23.6789 16.3299C23.5082 16.1642 23.3084 16.0301 23.0792 15.9277C22.8501 15.8253 22.6087 15.7741 22.3552 15.7741C22.0968 15.7741 21.8555 15.8229 21.6312 15.9204C21.4069 16.0179 21.2095 16.152 21.0388 16.3226C20.8682 16.4933 20.7341 16.6932 20.6366 16.9223C20.5391 17.1515 20.4879 17.3928 20.483 17.6463C20.483 18.09 20.3831 18.5117 20.1832 18.9115C19.9833 19.3113 19.7029 19.6428 19.3422 19.9061C19.6591 20.067 19.9443 20.2644 20.1978 20.4985C20.4513 20.7325 20.6707 20.9958 20.856 21.2883C21.0413 21.5808 21.1802 21.8929 21.2728 22.2244C21.3655 22.5559 21.4142 22.9021 21.4191 23.2629H20.483C20.483 22.8777 20.4099 22.5145 20.2636 22.1732C20.1174 21.8319 19.915 21.5345 19.6566 21.281C19.3982 21.0275 19.1008 20.8276 18.7644 20.6813C18.428 20.535 18.0648 20.4595 17.6748 20.4546C17.2896 20.4546 16.9264 20.5277 16.5851 20.674C16.2438 20.8203 15.9464 21.0226 15.6929 21.281C15.4393 21.5394 15.2395 21.8368 15.0932 22.1732C14.9469 22.5096 14.8714 22.8728 14.8665 23.2629H13.9304C13.9304 22.9069 13.9791 22.5632 14.0767 22.2317C14.1742 21.9002 14.3131 21.5881 14.4935 21.2956C14.6739 21.0031 14.8909 20.7398 15.1444 20.5058C15.3979 20.2718 15.6856 20.0719 16.0073 19.9061C15.6514 19.6428 15.3735 19.3113 15.1736 18.9115C14.9737 18.5117 14.8714 18.09 14.8665 17.6463C14.8665 17.3928 14.8177 17.1515 14.7202 16.9223C14.6227 16.6932 14.4886 16.4957 14.318 16.3299C14.1474 16.1642 13.9475 16.0301 13.7183 15.9277C13.4892 15.8253 13.2478 15.7741 12.9943 15.7741C12.7359 15.7741 12.4946 15.8229 12.2703 15.9204C12.046 16.0179 11.8486 16.152 11.6779 16.3226C11.5073 16.4933 11.3732 16.6932 11.2757 16.9223C11.1782 17.1515 11.127 17.3928 11.1221 17.6463H10.186C10.186 17.3928 10.2202 17.1466 10.2884 16.9077C10.3567 16.6688 10.4517 16.4421 10.5736 16.2276C10.6955 16.013 10.8491 15.818 11.0344 15.6425C11.2196 15.467 11.4195 15.3158 11.634 15.1891C11.4732 15.0184 11.3488 14.821 11.2611 14.5967C11.1733 14.3724 11.127 14.1409 11.1221 13.902C11.1221 13.6484 11.1709 13.4071 11.2684 13.178C11.3659 12.9488 11.5 12.7514 11.6706 12.5856C11.8413 12.4198 12.0387 12.2857 12.263 12.1834C12.4873 12.081 12.731 12.0298 12.9943 12.0298C13.2478 12.0298 13.4892 12.0785 13.7183 12.176C13.9475 12.2736 14.1449 12.4076 14.3107 12.5783C14.4764 12.7489 14.6105 12.9488 14.7129 13.178C14.8153 13.4071 14.8665 13.6484 14.8665 13.902C14.8665 14.1409 14.8226 14.3724 14.7348 14.5967C14.6471 14.821 14.5203 15.0184 14.3546 15.1891C14.7543 15.4085 15.081 15.7108 15.3345 16.0959C15.5978 15.7059 15.9342 15.3987 16.3437 15.1745C16.7533 14.9502 17.197 14.8381 17.6748 14.8381C18.1477 14.8381 18.5889 14.9502 18.9984 15.1745C19.408 15.3987 19.7468 15.7059 20.015 16.0959C20.2685 15.7108 20.5952 15.4085 20.9949 15.1891C20.8341 15.0184 20.7097 14.821 20.622 14.5967C20.5342 14.3724 20.4879 14.1409 20.483 13.902C20.483 13.6484 20.5318 13.4071 20.6293 13.178C20.7268 12.9488 20.8609 12.7514 21.0315 12.5856C21.2022 12.4198 21.3996 12.2857 21.6239 12.1834C21.8481 12.081 22.0919 12.0298 22.3552 12.0298C22.6087 12.0298 22.8501 12.0785 23.0792 12.176C23.3084 12.2736 23.5058 12.4076 23.6716 12.5783C23.8373 12.7489 23.9714 12.9488 24.0738 13.178C24.1762 13.4071 24.2274 13.6484 24.2274 13.902C24.2274 14.1409 24.1835 14.3724 24.0957 14.5967C24.008 14.821 23.8812 15.0184 23.7155 15.1891ZM12.0582 13.902C12.0582 14.0336 12.0826 14.1555 12.1313 14.2676C12.1801 14.3798 12.2459 14.4773 12.3288 14.5602C12.4117 14.643 12.5116 14.7113 12.6286 14.7649C12.7457 14.8186 12.8675 14.8429 12.9943 14.8381C13.1259 14.8381 13.2478 14.8137 13.36 14.7649C13.4721 14.7162 13.5696 14.6503 13.6525 14.5675C13.7354 14.4846 13.8036 14.3846 13.8573 14.2676C13.9109 14.1506 13.9353 14.0287 13.9304 13.902C13.9304 13.7703 13.906 13.6484 13.8573 13.5363C13.8085 13.4242 13.7427 13.3267 13.6598 13.2438C13.5769 13.1609 13.477 13.0926 13.36 13.039C13.243 12.9854 13.1211 12.961 12.9943 12.9659C12.8627 12.9659 12.7408 12.9903 12.6286 13.039C12.5165 13.0878 12.419 13.1536 12.3361 13.2365C12.2532 13.3193 12.185 13.4193 12.1313 13.5363C12.0777 13.6533 12.0533 13.7752 12.0582 13.902ZM17.6748 19.5185C17.9283 19.5185 18.1696 19.4697 18.3988 19.3722C18.6279 19.2747 18.8254 19.1407 18.9911 18.97C19.1569 18.7994 19.291 18.6019 19.3934 18.3776C19.4957 18.1534 19.5469 17.9096 19.5469 17.6463C19.5469 17.3928 19.4982 17.1515 19.4007 16.9223C19.3032 16.6932 19.1691 16.4957 18.9984 16.3299C18.8278 16.1642 18.6279 16.0301 18.3988 15.9277C18.1696 15.8253 17.9283 15.7741 17.6748 15.7741C17.4164 15.7741 17.175 15.8229 16.9507 15.9204C16.7265 16.0179 16.529 16.152 16.3584 16.3226C16.1877 16.4933 16.0537 16.6932 15.9561 16.9223C15.8586 17.1515 15.8074 17.3928 15.8026 17.6463C15.8026 17.9047 15.8513 18.1461 15.9488 18.3703C16.0463 18.5946 16.1804 18.7921 16.3511 18.9627C16.5217 19.1333 16.7192 19.2674 16.9434 19.3649C17.1677 19.4624 17.4115 19.5136 17.6748 19.5185ZM21.4191 13.902C21.4191 14.0336 21.4435 14.1555 21.4922 14.2676C21.541 14.3798 21.6068 14.4773 21.6897 14.5602C21.7726 14.643 21.8725 14.7113 21.9895 14.7649C22.1065 14.8186 22.2284 14.8429 22.3552 14.8381C22.4868 14.8381 22.6087 14.8137 22.7209 14.7649C22.833 14.7162 22.9305 14.6503 23.0134 14.5675C23.0963 14.4846 23.1645 14.3846 23.2182 14.2676C23.2718 14.1506 23.2962 14.0287 23.2913 13.902C23.2913 13.7703 23.2669 13.6484 23.2182 13.5363C23.1694 13.4242 23.1036 13.3267 23.0207 13.2438C22.9378 13.1609 22.8379 13.0926 22.7209 13.039C22.6038 12.9854 22.482 12.961 22.3552 12.9659C22.2236 12.9659 22.1017 12.9903 21.9895 13.039C21.8774 13.0878 21.7799 13.1536 21.697 13.2365C21.6141 13.3193 21.5459 13.4193 21.4922 13.5363C21.4386 13.6533 21.4142 13.7752 21.4191 13.902Z" fill="black"/>
</svg>
