<svg width="35" height="35" viewBox="0 0 35 35" fill="none" xmlns="http://www.w3.org/2000/svg">
<path d="M18.3374 10.6709C19.0317 10.6709 19.7104 10.8768 20.2876 11.2625C20.8649 11.6482 21.3148 12.1965 21.5805 12.8379C21.8462 13.4793 21.9157 14.1851 21.7803 14.8661C21.6448 15.547 21.3105 16.1725 20.8196 16.6634C20.3287 17.1543 19.7032 17.4887 19.0222 17.6241C18.3413 17.7596 17.6355 17.69 16.9941 17.4244C16.3526 17.1587 15.8044 16.7087 15.4187 16.1315C15.0329 15.5542 14.8271 14.8755 14.8271 14.1812L14.8306 14.0289C14.8698 13.1251 15.2565 12.2715 15.9098 11.6458C16.5632 11.0202 17.4328 10.671 18.3374 10.6709ZM19.7415 19.0957C20.6725 19.0957 21.5654 19.4655 22.2237 20.1239C22.882 20.7822 23.2519 21.675 23.2519 22.606V23.3081C23.2519 23.6805 23.1039 24.0377 22.8406 24.301C22.5773 24.5643 22.2201 24.7122 21.8477 24.7122H14.8271C14.4547 24.7122 14.0975 24.5643 13.8342 24.301C13.5709 24.0377 13.4229 23.6805 13.4229 23.3081V22.606C13.4229 21.675 13.7928 20.7822 14.4511 20.1239C15.1094 19.4655 16.0023 19.0957 16.9333 19.0957H19.7415Z" fill="#A454EB"/>
</svg>
