<svg width="35" height="35" viewBox="0 0 35 35" fill="none" xmlns="http://www.w3.org/2000/svg">
<path d="M16.8768 18.4663L15.7011 17.2618C15.5898 17.1427 15.4525 17.0832 15.2891 17.0832C15.1258 17.0832 14.9827 17.1408 14.8599 17.2561C14.7407 17.3751 14.6811 17.5173 14.6811 17.6824C14.6811 17.8477 14.7407 17.9899 14.8599 18.1089L16.4734 19.7111C16.5887 19.8263 16.7231 19.884 16.8768 19.884C17.0305 19.884 17.165 19.8263 17.2803 19.7111L20.3691 16.6337C20.4843 16.5184 20.541 16.3801 20.5392 16.2188C20.5372 16.0574 20.4767 15.9191 20.3577 15.8038C20.2424 15.6962 20.105 15.6433 19.9455 15.6453C19.7861 15.6473 19.6526 15.702 19.5451 15.8095L16.8768 18.4663ZM15.0212 24.5749L13.9723 22.7885L11.9092 22.362C11.7671 22.3351 11.6499 22.2592 11.5577 22.1343C11.4655 22.0094 11.4309 21.876 11.454 21.7339L11.6787 19.6995L10.3359 18.1435C10.236 18.0398 10.186 17.913 10.186 17.7632C10.186 17.6133 10.236 17.4865 10.3359 17.3828L11.6787 15.8384L11.454 13.8041C11.4309 13.6619 11.4655 13.5284 11.5577 13.4035C11.6499 13.2787 11.7671 13.2028 11.9092 13.176L13.9723 12.7494L15.0212 10.9514C15.098 10.8246 15.2056 10.7372 15.3439 10.6892C15.4822 10.6412 15.6206 10.6479 15.7589 10.7094L17.6145 11.5508L19.4701 10.7094C19.6084 10.6479 19.7467 10.6393 19.885 10.6834C20.0233 10.7276 20.1309 10.8131 20.2078 10.9398L21.2681 12.7494L23.3197 13.176C23.4618 13.2028 23.579 13.2787 23.6712 13.4035C23.7634 13.5284 23.798 13.6619 23.7749 13.8041L23.5502 15.8384L24.893 17.3828C24.9929 17.4865 25.0429 17.6133 25.0429 17.7632C25.0429 17.913 24.9929 18.0398 24.893 18.1435L23.5502 19.6995L23.7749 21.7339C23.798 21.876 23.7634 22.0094 23.6712 22.1343C23.579 22.2592 23.4618 22.3351 23.3197 22.362L21.2681 22.7885L20.2078 24.5865C20.1309 24.7133 20.0233 24.7987 19.885 24.8429C19.7467 24.887 19.6084 24.8784 19.4701 24.8169L17.6145 23.9755L15.7589 24.8169C15.6206 24.8784 15.4822 24.8851 15.3439 24.8372C15.2056 24.7891 15.098 24.7017 15.0212 24.5749Z" fill="white"/>
</svg>
