<svg width="35" height="35" viewBox="0 0 35 35" fill="none" xmlns="http://www.w3.org/2000/svg">
<path d="M11.6614 24.667C11.2753 24.667 10.9449 24.5296 10.6701 24.2549C10.3954 23.9801 10.2578 23.6495 10.2573 23.2629V13.4339C10.2573 13.0478 10.3949 12.7173 10.6701 12.4426C10.9453 12.1679 11.2758 12.0303 11.6614 12.0298H21.4904C21.8765 12.0298 22.2072 12.1674 22.4824 12.4426C22.7576 12.7178 22.895 13.0483 22.8945 13.4339H17.278C16.4472 13.4339 15.7716 13.6944 15.2511 14.2153C14.7306 14.7363 14.4702 15.4119 14.4697 16.2422V20.4546C14.4697 21.2854 14.7302 21.9612 15.2511 22.4822C15.772 23.0031 16.4477 23.2633 17.278 23.2629H22.8945C22.8945 23.649 22.7571 23.9797 22.4824 24.2549C22.2076 24.5301 21.877 24.6675 21.4904 24.667H11.6614ZM17.278 21.8587C16.8918 21.8587 16.5614 21.7214 16.2866 21.4466C16.0119 21.1719 15.8743 20.8412 15.8738 20.4546V16.2422C15.8738 15.8561 16.0114 15.5256 16.2866 15.2509C16.5619 14.9761 16.8923 14.8385 17.278 14.8381H22.1924C22.5786 14.8381 22.9092 14.9757 23.1845 15.2509C23.4597 15.5261 23.597 15.8565 23.5966 16.2422V20.4546C23.5966 20.8407 23.4592 21.1714 23.1845 21.4466C22.9097 21.7218 22.579 21.8592 22.1924 21.8587H17.278ZM19.3842 19.4015C19.6884 19.4015 19.94 19.302 20.1389 19.1031C20.3378 18.9042 20.4373 18.6526 20.4373 18.3484C20.4373 18.0442 20.3378 17.7926 20.1389 17.5937C19.94 17.3947 19.6884 17.2953 19.3842 17.2953C19.0799 17.2953 18.8284 17.3947 18.6294 17.5937C18.4305 17.7926 18.3311 18.0442 18.3311 18.3484C18.3311 18.6526 18.4305 18.9042 18.6294 19.1031C18.8284 19.302 19.0799 19.4015 19.3842 19.4015Z" fill="#A454EB"/>
</svg>
