<svg width="35" height="35" viewBox="0 0 35 35" fill="none" xmlns="http://www.w3.org/2000/svg">
<path d="M17.2493 19.1985L20.5189 17.1055C20.7089 16.9816 20.8039 16.8082 20.8039 16.5853C20.8039 16.3624 20.7089 16.189 20.5189 16.0651L17.2493 13.9721C17.043 13.8358 16.8325 13.8276 16.6177 13.9473C16.4031 14.0671 16.2958 14.2508 16.2958 14.4985V18.6721C16.2958 18.9198 16.4031 19.1035 16.6177 19.2232C16.8325 19.343 17.043 19.3348 17.2493 19.1985ZM11.924 22.53C11.5896 22.53 11.2996 22.4072 11.0539 22.1616C10.8083 21.9159 10.6855 21.6258 10.6855 21.2914V11.8792C10.6855 11.5448 10.8083 11.2547 11.0539 11.009C11.2996 10.7634 11.5896 10.6406 11.924 10.6406H24.3086C24.643 10.6406 24.9331 10.7634 25.1788 11.009C25.4244 11.2547 25.5472 11.5448 25.5472 11.8792V21.2914C25.5472 21.6258 25.4244 21.9159 25.1788 22.1616C24.9331 22.4072 24.643 22.53 24.3086 22.53H20.9648V23.397C20.9648 23.5744 20.9059 23.722 20.7883 23.8396C20.6706 23.9573 20.5231 24.0161 20.3456 24.0161H15.8871C15.7096 24.0161 15.562 23.9573 15.4444 23.8396C15.3267 23.722 15.2679 23.5744 15.2679 23.397V22.53H11.924Z" fill="white"/>
</svg>
