<svg width="34" height="35" viewBox="0 0 34 35" fill="none" xmlns="http://www.w3.org/2000/svg">
<path d="M16.9922 12.6216C14.2579 12.6216 12.0351 14.8444 12.0313 17.5787C12.0313 18.5152 12.2946 19.4291 12.7911 20.2152L12.9077 20.4033L12.4074 22.2311L14.2842 21.7384L14.4647 21.8475C15.2245 22.2988 16.0971 22.5395 16.9884 22.5395H16.9922C19.7227 22.5395 22.0057 20.3168 22.0057 17.5825C22.0057 16.2586 21.434 15.0136 20.4975 14.0771C19.5572 13.1369 18.3161 12.6216 16.9922 12.6216ZM19.907 19.7075C19.7829 20.0572 19.1887 20.3732 18.9028 20.4145C18.4289 20.486 18.0603 20.4484 17.1163 20.0422C15.6232 19.3953 14.6453 17.8909 14.5701 17.7931C14.4948 17.6953 13.9608 16.9844 13.9608 16.251C13.9608 15.5176 14.3444 15.1566 14.4836 15.0061C14.619 14.8557 14.7807 14.8181 14.8822 14.8181C14.98 14.8181 15.0816 14.8181 15.1681 14.8218C15.2583 14.8256 15.3824 14.788 15.5028 15.0776C15.6269 15.3747 15.924 16.1081 15.9617 16.1833C15.9993 16.2586 16.0256 16.3451 15.9729 16.4428C15.6871 17.0145 15.3824 16.992 15.5367 17.2552C16.1121 18.2444 16.6875 18.5867 17.5639 19.0267C17.7143 19.1019 17.8008 19.0906 17.8873 18.9891C17.9738 18.8913 18.2597 18.5528 18.3575 18.4061C18.4552 18.2557 18.5568 18.282 18.6922 18.3309C18.8276 18.3798 19.561 18.7409 19.7114 18.8161C19.8619 18.8913 19.9597 18.9289 19.9973 18.9891C20.0311 19.0606 20.0311 19.3614 19.907 19.7075ZM23.6117 9.20654H10.3727C9.37601 9.20654 8.56738 10.0152 8.56738 11.0119V24.2508C8.56738 25.2475 9.37601 26.0562 10.3727 26.0562H23.6117C24.6084 26.0562 25.417 25.2475 25.417 24.2508V11.0119C25.417 10.0152 24.6084 9.20654 23.6117 9.20654ZM16.9884 23.5438C15.988 23.5438 15.0063 23.2918 14.1375 22.8179L10.9745 23.6491L11.8207 20.5575C11.2979 19.6548 11.0234 18.628 11.0234 17.5749C11.0271 14.2878 13.7012 11.6136 16.9884 11.6136C18.5831 11.6136 20.08 12.2342 21.2084 13.3625C22.3329 14.4909 23.0099 15.9878 23.0099 17.5825C23.0099 20.8696 20.2756 23.5438 16.9884 23.5438Z" fill="black"/>
</svg>
