<svg width="34" height="35" viewBox="0 0 34 35" fill="none" xmlns="http://www.w3.org/2000/svg">
<path d="M23.9269 24.4846L18.8089 16.4468L23.8195 10.9354C23.9953 10.7372 24.0859 10.4777 24.0717 10.2131C24.0575 9.94859 23.9395 9.70031 23.7435 9.52213C23.5474 9.34395 23.289 9.25022 23.0243 9.26128C22.7596 9.27234 22.5099 9.38728 22.3294 9.5812L17.6922 14.6857L14.5299 9.71797C14.4391 9.57508 14.3136 9.45741 14.1652 9.37587C14.0168 9.29433 13.8502 9.25154 13.6809 9.25146H9.6536C9.47325 9.25155 9.29623 9.30008 9.14104 9.39198C8.98586 9.48388 8.85821 9.61578 8.77144 9.77389C8.68467 9.93199 8.64196 10.1105 8.64778 10.2908C8.6536 10.471 8.70773 10.6464 8.80452 10.7986L13.9225 18.8363L8.90856 24.3478C8.81778 24.4453 8.74726 24.5599 8.70108 24.6849C8.6549 24.8098 8.63399 24.9427 8.63955 25.0759C8.64511 25.209 8.67704 25.3397 8.73348 25.4603C8.78992 25.581 8.86976 25.6893 8.96836 25.7789C9.06695 25.8685 9.18236 25.9377 9.30788 25.9823C9.4334 26.027 9.56653 26.0463 9.69957 26.0392C9.83261 26.032 9.96291 25.9985 10.0829 25.9407C10.2029 25.8828 10.3102 25.8016 10.3986 25.702L15.0392 20.5974L18.2015 25.5652C18.2923 25.7081 18.4178 25.8258 18.5662 25.9073C18.7146 25.9888 18.8812 26.0316 19.0505 26.0317H23.0778C23.2582 26.0316 23.4352 25.9831 23.5904 25.8912C23.7455 25.7993 23.8732 25.6674 23.96 25.5093C24.0467 25.3512 24.0894 25.1727 24.0836 24.9924C24.0778 24.8121 24.0237 24.6368 23.9269 24.4846ZM19.6034 24.0181L11.4877 11.2651H13.128L21.2437 24.0181H19.6034Z" fill="white"/>
</svg>
