<svg width="35" height="35" viewBox="0 0 35 35" fill="none" xmlns="http://www.w3.org/2000/svg">
<path d="M15.4173 16.1373L19.2963 18.3416L15.4173 20.5459V16.1373ZM26.0599 11.1623V25.5045C26.0599 26.5843 25.1839 27.4603 24.1042 27.4603H9.76191C8.68217 27.4603 7.80615 26.5843 7.80615 25.5045V11.1623C7.80615 10.0826 8.68217 9.20654 9.76191 9.20654H24.1042C25.1839 9.20654 26.0599 10.0826 26.0599 11.1623ZM24.3486 18.3456C24.3486 18.3456 24.3486 15.9172 24.039 14.7519C23.8678 14.1082 23.3667 13.6029 22.727 13.4318C21.5739 13.1181 16.9331 13.1181 16.9331 13.1181C16.9331 13.1181 12.2922 13.1181 11.1391 13.4318C10.4994 13.6029 9.99823 14.1082 9.8271 14.7519C9.51744 15.9132 9.51744 18.3456 9.51744 18.3456C9.51744 18.3456 9.51744 20.774 9.8271 21.9393C9.99823 22.5831 10.4994 23.068 11.1391 23.2391C12.2922 23.5488 16.9331 23.5488 16.9331 23.5488C16.9331 23.5488 21.5739 23.5488 22.727 23.235C23.3667 23.0639 23.8678 22.579 24.039 21.9353C24.3486 20.774 24.3486 18.3456 24.3486 18.3456Z" fill="black"/>
</svg>
