<svg width="35" height="35" viewBox="0 0 35 35" fill="none" xmlns="http://www.w3.org/2000/svg">
<path d="M26.7521 13.2464C26.6694 12.9229 26.511 12.6236 26.2899 12.3734C26.0688 12.1232 25.7914 11.9291 25.4805 11.8072C22.4721 10.6452 17.684 10.6558 17.4208 10.6558C17.1575 10.6558 12.3694 10.6452 9.36101 11.8072C9.05014 11.9291 8.77271 12.1232 8.55161 12.3734C8.33051 12.6236 8.17208 12.9229 8.08939 13.2464C7.86209 14.1222 7.5918 15.7229 7.5918 18.3785C7.5918 21.0341 7.86209 22.6348 8.08939 23.5106C8.17196 23.8343 8.33033 24.1337 8.55143 24.3841C8.77254 24.6345 9.05003 24.8287 9.36101 24.9507C12.243 26.0626 16.7538 26.1012 17.3628 26.1012H17.4787C18.0877 26.1012 22.6011 26.0626 25.4805 24.9507C25.7915 24.8287 26.069 24.6345 26.2901 24.3841C26.5112 24.1337 26.6695 23.8343 26.7521 23.5106C26.9794 22.633 27.2497 21.0341 27.2497 18.3785C27.2497 15.7229 26.9794 14.1222 26.7521 13.2464ZM20.2808 18.9507L16.7705 21.4079C16.6655 21.4815 16.5423 21.5249 16.4144 21.5334C16.2865 21.542 16.1587 21.5153 16.0448 21.4563C15.931 21.3974 15.8354 21.3084 15.7686 21.199C15.7017 21.0896 15.6661 20.9639 15.6656 20.8357V15.9213C15.6656 15.7928 15.7009 15.6669 15.7676 15.5571C15.8342 15.4473 15.9297 15.3579 16.0436 15.2986C16.1576 15.2394 16.2856 15.2125 16.4137 15.2209C16.5419 15.2293 16.6653 15.2728 16.7705 15.3464L20.2808 17.8037C20.3732 17.8684 20.4485 17.9545 20.5006 18.0545C20.5526 18.1546 20.5798 18.2657 20.5798 18.3785C20.5798 18.4913 20.5526 18.6024 20.5006 18.7025C20.4485 18.8025 20.3732 18.8886 20.2808 18.9533V18.9507Z" fill="white"/>
</svg>
